<svg width="483" height="122" viewBox="0 0 483 122" fill="none" xmlns="http://www.w3.org/2000/svg">
<g clip-path="url(#clip0_694_4173)">
<path d="M180.957 56.5081C181.362 52.73 181.7 48.639 182.668 45.0095C186.006 32.489 194.024 20.9888 204.039 12.8959C229.691 -7.83232 269.663 -3.40403 290.006 22.659C299.119 34.3371 302.748 45.7731 303.574 60.3218C305.598 50.9937 305.026 39.218 302.918 29.8946C302.106 26.2949 300.124 22.7113 299.916 18.9199C299.682 14.6006 301.823 12.5463 306.014 12.4542C313.196 12.2963 320.368 12.3674 327.542 12.3682L368.195 12.3712L483.165 12.4075C480.914 15.2617 478.945 18.2638 476.889 20.8749C464.533 21.0758 451.815 20.9362 439.427 20.9362L343.672 20.9585C345.804 22.7437 347.207 24.0577 348.798 26.3482L430.436 26.3652C443.804 26.3636 457.889 26.1436 471.217 26.4135C469.022 29.7096 466.497 33.2627 464.011 36.3303C463.531 36.9243 461.701 37.0169 460.955 37.0246C424.117 37.4015 387.173 36.6578 350.346 37.0918C351.989 38.5348 352.149 38.7925 352.637 40.9848C383.846 41.6231 415.34 40.6578 446.578 41.053C450.68 41.105 455.052 41.1451 459.146 41.04C458.06 42.7527 452.652 50.4974 451.479 51.6559C442.102 52.0723 431.55 51.6877 422.029 51.7852C398.641 52.0243 374.926 51.4497 351.571 51.8611C352 53.018 352.597 54.5045 352.903 55.6617C380.345 56.0612 407.896 55.5062 435.349 55.7207C439.555 55.7536 443.991 55.7899 448.187 55.6073C445.824 59.8082 443.197 62.1985 440.57 65.9992C411.093 66.3838 381.339 65.8158 351.824 66.0746L352.08 69.969C379.676 69.991 408.019 69.6388 435.549 70.0069C434.033 73.7126 432.227 77.0148 430.365 80.5501C401.106 80.0567 371.053 80.5265 341.722 80.4598C341.094 82.5906 340.507 84.9341 338.616 86.3042C336.882 92.9976 334.759 97.4424 327.462 98.9919C324.353 102.472 322.128 104.997 317.504 106.467L316.998 106.369C316.784 105.699 316.614 104.975 316.188 104.427C314.328 105.356 313.132 105.968 311.145 106.678C310.005 107.086 308.678 109.152 306.957 109.81L306.789 109.876C304.258 110.835 301.991 110.559 298.746 111.863C301.725 103.666 305.103 96.0949 302.3 87.3403C302.982 85.8962 303.8 84.2738 304.426 82.8257C301.866 84.9341 300.678 87.4022 298.573 89.3482C294.428 93.1812 291.578 96.9002 287.968 101.084C275.636 115.382 255.603 123.348 236.782 121.587C223.056 120.333 210.153 114.513 200.15 105.064C198.348 103.355 196.411 101.368 194.863 99.438C190.873 94.4653 185.738 91.4932 182.129 86.1181L181.284 87.1227C179.039 93.4867 180.985 106.273 184.786 111.876C179.12 109.884 176.159 111.434 172.417 106.403C170.208 106.095 169.881 105.837 167.909 104.825C166.385 104.044 167.277 105.469 165.713 106.101C163.983 106.327 159.008 103.24 158.332 102.043C155.737 97.4498 156.069 99.5874 151.833 97.7596C147.314 95.8093 146.374 90.5131 144.622 86.6688C143.515 84.2374 142.355 83.7897 141.245 80.4312L52.9785 80.4697C51.4866 77.0631 49.1397 73.5286 47.4797 69.9862L131.469 69.9615L131.871 66.1309C121.966 65.7853 110.672 66.0388 100.687 66.0385L42.9152 66.0555L34.6323 55.6044C46.2788 55.8995 58.5284 55.7294 70.2245 55.7305L130.098 55.7066C130.674 54.3734 131.265 53.1756 131.914 51.8759C119.195 51.4921 105.079 51.7721 92.2684 51.7735L32.1113 51.8696C29.9199 48.6334 26.421 44.1896 23.9786 41.0339L130.189 41.0782C131.121 39.3358 131.601 38.6532 132.813 37.0803L19.9965 37.0559C17.4086 33.5419 14.6975 29.6709 11.7415 26.4899C22.0483 26.133 33.5938 26.3639 43.9803 26.3633L101.073 26.3705L121.225 26.3798C125.384 26.3832 130.151 26.4992 134.259 26.2197C135.524 25.1706 137.917 22.289 139.133 20.9243L6.89618 20.9718C5.16804 18.6301 2.00026 14.5425 0.165161 12.3996L116.315 12.3775L156.285 12.3759C163.215 12.3743 170.24 12.231 177.142 12.4367C187.302 12.7393 182.229 23.916 180.735 29.329C178.119 38.8116 177.515 49.9429 179.462 59.6007C179.769 60.1236 179.858 60.3468 180.387 60.6822C181.035 59.6564 180.403 57.8734 180.957 56.5081Z" fill="#422974"/>
<path d="M238.795 4.93205C269.632 3.07249 296.15 26.5375 298.057 57.3715C299.963 88.2057 276.539 114.76 245.709 116.715C214.81 118.674 188.185 95.1874 186.274 64.2855C184.363 33.3839 207.89 6.79532 238.795 4.93205Z" fill="white"/>
<path d="M243.329 8.82874C252.713 9.14868 258.936 11.4049 267.14 15.7149C267.153 27.0721 267.188 38.4573 267.143 49.8155C267.124 54.5468 265.611 59.1923 262.122 62.5318C262.338 62.716 262.547 62.9101 262.747 63.1129C263.979 64.3532 265.542 66.2421 265.828 67.9704C266.624 72.7862 266.328 78.303 266.317 83.1976L266.29 105.28C265.133 105.312 263.754 105.266 262.579 105.256C262.458 95.2048 262.656 85.1224 262.576 75.0688C262.557 72.7108 262.608 70.3968 262.287 68.0548C260.222 64.2764 251.984 65.4159 248.136 65.4889L248.165 110.756C246.554 110.807 244.871 110.806 243.254 110.829C243.46 76.9118 242.907 42.6949 243.329 8.82874Z" fill="#422974"/>
<path d="M248.186 13.8287C248.778 14.0261 250.032 14.339 250.634 14.4483C254.577 15.164 258.253 17.0316 262.026 18.1212L262.031 39.5141C262.049 46.1074 262.992 52.014 259.609 57.8332C258.782 59.0213 258.245 59.6029 257.266 60.654C254.373 60.9146 251.1 60.814 248.165 60.7872L248.186 13.8287Z" fill="white"/>
<path d="M211.655 19.8287L212.035 20.0513C212.276 22.2957 212.109 26.022 212.105 28.4421L212.106 44.468L212.096 96.8287L207.074 96.7918C206.964 86.7754 207.404 75.3511 207.011 65.5133C206.388 65.0143 206.283 65.1803 205.269 65.1355C201.981 65.0876 198.693 65.0968 195.406 65.1632C196.221 69.6628 197.578 73.9887 198.317 78.4952C199.136 80.6738 195.035 82.1485 194.346 80.5547C186.606 62.6619 189.589 41.6387 203.492 27.1605C206.049 24.4978 208.727 22.2304 211.655 19.8287Z" fill="#422974"/>
<path d="M206.846 30.8287C207.321 31.3098 207.121 58.4427 207.136 61.7923C203.343 61.8676 199.361 61.8036 195.553 61.7982C195.278 61.5579 195.168 61.294 195.166 60.9317C195.106 49.3298 198.962 39.2697 206.846 30.8287Z" fill="white"/>
<path d="M238.225 8.82874L238.5 8.84598C239.219 10.1364 238.778 31.1444 238.778 34.3233L233.901 34.3824C233.658 28.277 233.84 20.9754 233.815 14.758C228.268 16.2806 225.156 17.0389 220.151 19.9448L220.132 101.705C226.295 103.812 226.574 104.825 234.145 106.179L234.167 91.9684L234.195 86.9411L239.072 86.9729C239.267 95.0103 239.098 103.727 239.081 111.829C233.182 110.9 229.567 110.607 223.785 108.473C221.217 107.525 217.345 105.536 215.188 104.879L215.165 16.8266C216.622 16.2991 219.377 14.5603 221.084 13.8144C226.775 11.3291 232.027 9.49662 238.225 8.82874Z" fill="#422974"/>
<path d="M272.415 19.8287C276.765 21.8013 283.299 29.0162 286.052 32.8507C287.867 35.3777 289.906 38.4264 285.637 39.6577C284.294 39.2752 278.768 31.6564 277.183 29.851C277.646 50.0903 276.94 70.6772 277.29 90.889C279.372 88.7958 280.772 86.5931 282.334 84.1378C283.232 82.1925 284.949 79.5211 287.466 81.1188C290.896 86.3273 275.926 98.8652 272.344 101.829C272.029 98.1746 272.226 91.5514 272.226 87.7322L272.237 61.4567L272.223 35.1135C272.218 30.5814 272.032 24.2042 272.415 19.8287Z" fill="#422974"/>
<path d="M316.588 20.8645C319.117 20.7881 321.964 20.8563 324.516 20.8655C327.587 23.9153 331.388 28.3379 334.165 31.698C331.899 34.7359 331.883 37.8551 331.209 38.8287L330.714 38.6952C326.074 36.1705 317.171 30.5333 312.539 27.2119C311.66 26.5801 312.56 23.6233 312.919 22.4659C314.21 21.7959 315.231 21.3963 316.588 20.8645Z" fill="white"/>
<path d="M158.561 20.9561C161.167 20.8834 165.516 20.5289 167.849 21.4523C170.03 22.3156 170.376 23.5891 171.165 25.5577C169.284 29.5338 162.21 32.8854 158.445 35.2325C156.442 36.4969 154.366 37.4318 152.279 38.8287C151.493 35.3175 151.054 34.6765 149.165 31.6803C150.89 29.6218 156.938 22.301 158.561 20.9561Z" fill="white"/>
<path d="M328.165 21.0154C332.249 20.9375 339.77 20.1535 342.716 22.5125C345.846 25.0195 349.602 28.8668 350.165 32.8287C345.713 30.6421 341.808 28.9872 336.837 30.0247C334.281 28.0229 330.294 23.535 328.165 21.0154Z" fill="white"/>
<path d="M144.83 20.8908C148.506 20.775 152.467 20.8548 156.165 20.8648C154.242 23.1084 152.304 25.7288 150.367 27.9916C147.195 31.6992 147.195 29.9443 142.563 30.2693C140.186 30.8285 135.723 33.229 134.195 32.771C133.634 29.3001 141.24 22.1249 144.83 20.8908Z" fill="white"/>
<path d="M324.927 66.9117C325.803 66.8537 326.746 66.6974 327.528 67.0646C328.841 68.7215 331.466 74.512 331.137 76.6839C330.683 79.6856 328.52 83.2041 326.97 85.8287C325.905 85.2778 322.09 79.344 321.165 77.9924L321.221 77.912C323.181 75.0097 322.506 71.1105 321.925 67.8796C322.857 67.6364 323.994 67.2222 324.927 66.9117Z" fill="white"/>
<path d="M156.07 66.8313C157.909 66.7845 159.905 67.3872 161.699 67.8471C160.972 71.5536 160.877 75.1576 162.165 78.7458C161.098 80.6891 158.964 82.9406 157.572 85.0894L157.116 85.7959C155.569 86.3016 152.95 80.8136 152.538 79.4407C151.156 74.8393 153.904 70.6991 156.07 66.8313Z" fill="white"/>
<path d="M156.381 49.8287C156.938 50.3172 158.779 55.2628 159.165 56.2399C156.583 62.2713 155.452 63.5003 148.864 64.6891C146.166 65.2989 146.508 63.8435 146.368 61.6482C146.305 60.6681 146.242 59.641 146.165 58.6581C148.688 54.7871 152.297 52.0616 156.381 49.8287Z" fill="white"/>
<path d="M327.054 49.8287C331.965 52.6524 334.335 53.8675 337.165 58.7786C337.104 60.2302 337.367 63.9771 336.282 64.8287L335.276 64.6907C332.946 64.2611 330.983 63.9345 328.719 63.2209C326.966 61.0149 325.474 58.938 324.165 56.4631C324.918 54.0272 326.384 52.3286 327.054 49.8287Z" fill="white"/>
<path d="M334.095 44.8376C339.614 44.6538 347.429 47.3329 349.741 52.6287C350.494 54.3575 351.319 56.9156 351.141 58.8017L350.749 58.8287C345.891 55.8207 340.463 53.4884 335.742 50.2528C333.853 48.9565 331.993 46.8467 334.095 44.8376Z" fill="white"/>
<path d="M147.899 44.832C157.308 44.6274 143.672 54.0491 140.916 54.3873C140.746 54.4081 135.07 57.4885 134.323 57.8948L132.165 58.8287C132.701 49.5266 138.789 46.4123 147.899 44.832Z" fill="white"/>
<path d="M309.912 75.8287C314.149 79.4673 314.264 82.7446 315.165 88.3405C313.375 90.1679 312.114 92.6817 310.394 94.7742L310.029 94.8287C309.285 94.2807 306.758 89.242 305.165 87.3252C307.018 83.8087 308.568 79.5903 309.912 75.8287Z" fill="white"/>
<path d="M173.016 75.8287C173.601 76.3398 177.527 85.0432 178.165 86.4114C177.181 88.9022 174.736 92.4467 173.212 94.8287C172.07 94.0106 169.033 89.2919 168.165 87.9735C168.432 85.3843 169.18 80.8234 170.061 78.4598L173.016 75.8287Z" fill="white"/>
<path d="M311.165 72.5291C311.434 71.4675 313.795 60.1906 316.061 62.0314C319.564 64.8769 320.683 72.3097 319.579 76.8172L320.03 77.1212C320.214 78.0224 320.257 77.6588 319.855 78.4847C319.112 78.9241 319.432 78.8803 318.659 78.6967L316.876 77.9057C316.301 77.8393 316.216 77.8345 315.74 77.4869L315.735 76.2459C314.959 76.641 315.291 76.6004 314.481 76.4304C313.287 75.514 312.112 73.7936 311.165 72.5291Z" fill="white"/>
<path d="M315.165 76.0901C316.729 75.4586 317.843 76.0946 319.503 76.6958L320.012 77.0182C320.221 77.9737 320.269 77.5882 319.816 78.464C318.977 78.9299 319.337 78.8834 318.465 78.6887L316.454 77.85C315.804 77.7796 315.708 77.7745 315.171 77.406L315.165 76.0901Z" fill="#453476"/>
<path d="M146.692 33.8706C150.342 33.3173 150.224 38.3911 150.136 40.4697C144.099 40.4395 140.866 40.3956 135.803 43.4799L133.186 44.8287C133.143 43.1329 133.083 41.7694 133.934 40.2098C135.946 36.5253 142.591 35.0425 146.692 33.8706Z" fill="white"/>
<path d="M335.744 32.8287C338.992 32.958 346.127 35.8068 348.741 37.8481C349.987 38.8213 351.999 43.5363 350.794 44.8287L349.962 44.4988C346.331 41.7227 343.275 40.565 338.572 40.3611C336.916 40.2895 335.31 40.4923 333.682 40.1911C332.115 38.1138 334.492 34.6095 335.744 32.8287Z" fill="white"/>
<path d="M168.678 61.8287L169.133 61.9752C170.214 63.0017 172.586 70.9739 173.165 72.918C171.845 73.9654 170.624 75.4867 169.543 76.8287L169.122 76.7257C167.167 75.9636 166.635 76.2986 164.59 76.8086C163.607 71.7344 164.085 64.7436 168.678 61.8287Z" fill="white"/>
<path d="M140.162 59.8564C140.372 59.8379 140.582 59.8285 140.792 59.8288C144.948 59.8128 144.085 62.5076 144.102 65.911C140.946 67.405 138.72 69.1203 136.497 71.8221L134.632 73.8287C133.526 67.7905 134.021 62.5286 140.162 59.8564Z" fill="white"/>
<path d="M167.425 50.8287L168.658 50.8952C169.407 51.2611 169.764 52.1506 170.165 52.884C169.943 55.2006 169.634 57.2823 169.28 59.5804C166.072 60.5945 164.692 62.2524 162.927 64.8287C160.186 64.4351 159.723 63.0459 160.51 60.482C161.698 56.6082 163.662 52.9348 167.425 50.8287Z" fill="white"/>
<path d="M315.705 50.8287C320.128 51.2432 322.003 56.4015 323.493 59.9706C324.052 61.3076 324.879 64.2153 323.002 64.6888C322.61 64.7295 321.024 65.007 320.896 64.6449C319.808 61.5977 318.02 60.9772 315.261 59.3741C314.854 57.3414 314.488 55.3006 314.165 53.2526C314.542 52.5079 315.228 51.5443 315.705 50.8287Z" fill="white"/>
<path d="M342.113 58.8287C347.028 59.2502 349.363 64.1133 349.126 69.3716C349.056 70.8869 349.329 72.0622 348.994 73.6464L348.69 73.8287L348.186 73.2202C346.239 70.5733 342.806 67.5004 340.181 65.7373C340.207 64.1206 340.012 61.4179 340.516 59.9643C340.782 59.2031 341.447 59.1054 342.113 58.8287Z" fill="white"/>
<path d="M314.912 31.8287C316.439 31.926 329.03 40.1261 331.165 41.4946C330.682 42.1475 329.73 43.816 329.27 44.5768L329.029 44.8287C328.121 44.799 325.328 42.493 324.245 41.793C320.637 39.457 317.438 38.0378 313.21 37.0116C313.202 34.6926 312.749 33.214 314.912 31.8287Z" fill="white"/>
<path d="M167.895 31.835C168.398 31.8016 168.64 31.9059 169.113 32.0412C170.347 33.1972 170.119 35.1226 170.165 36.8428C163.525 38.7425 160.449 40.8097 155.196 44.8287C154.508 44.7922 153.466 41.6258 153.165 40.8949C156.132 39.4471 165.01 33.6923 167.895 31.835Z" fill="white"/>
<path d="M158.777 87.8287C164.026 90.4899 165.644 96.1021 165.048 101.527C164.968 102.253 164.599 102.488 164.04 102.829C157.547 100.197 155.336 93.7891 158.777 87.8287Z" fill="white"/>
<path d="M324.435 87.8287C327.488 89.5032 326.081 98.2555 323.455 100.225C321.717 101.529 321.792 101.727 319.738 102.757C316.845 103.72 318.756 94.6857 319.13 93.5396C320.112 90.5505 321.661 89.2143 324.435 87.8287Z" fill="white"/>
<path d="M333.22 81.831C337.306 81.6934 336.383 87.869 334.944 90.3261C333.699 92.4539 332.819 93.5305 330.938 95.0476C330.305 95.4567 329.751 95.9436 329.047 95.8044C328.321 95.0641 328.395 90.4324 328.165 88.6178C328.995 86.7971 331.818 83.5656 333.22 81.831Z" fill="white"/>
<path d="M149.45 81.8287C151.811 82.0597 154.616 86.8139 156.165 88.8861C155.826 90.6054 155.816 95.8068 155.128 96.8287C155.034 96.7779 154.941 96.7259 154.849 96.6721C149.514 93.6034 146.204 88.0879 149.45 81.8287Z" fill="white"/>
<path d="M331.165 66.8287C334.59 67.0083 336.779 68.5791 339.955 69.9903C340.257 73.1279 340.416 78.7074 339.113 81.4991C338.765 82.081 338.57 82.533 337.969 82.8287C337.639 82.3978 337.541 82.0486 337.47 81.5147C336.74 76.0995 333.057 71.773 331.165 66.8287Z" fill="white"/>
<path d="M151.708 66.8462C152.406 66.8119 152.508 66.8012 153.137 67.078C153.445 68.2155 151.155 70.4372 150.437 71.6371C147.88 75.908 146.632 79.136 145.268 83.8287C142.865 79.1046 143.036 75.2951 143.331 70.2744C146.014 68.5806 148.593 67.578 151.708 66.8462Z" fill="white"/>
<path d="M166.006 42.8848C169.375 42.5721 169.356 43.5366 170.165 46.5608C167.314 48.1052 163.774 48.9338 161.765 51.6447C161.137 52.6016 161.034 53.0483 159.914 52.7237C159.143 51.9503 158.554 49.8158 158.165 48.6677C160.531 45.7454 162.568 44.1424 166.006 42.8848Z" fill="white"/>
<path d="M316.253 42.8464C321.192 42.4731 327.564 48.0667 324.248 52.8287L323.724 52.7663C320.285 49.0544 318.7 48.5818 314.165 46.3776C314.903 44.8225 315.181 44.1575 316.253 42.8464Z" fill="white"/>
<path d="M177.587 93.8287C178.786 101.061 178.85 101.637 181.165 108.829L178.337 108.346C176.702 107.805 175.882 107.31 174.378 106.467L174.165 99.1708C174.892 97.7726 176.665 95.2349 177.587 93.8287Z" fill="white"/>
<path d="M167.52 77.8287L168.042 78.0744C168.71 79.3449 166.459 88.5743 166.002 90.8287L163.64 88.4463C162.305 87.2009 161.708 86.7625 160.165 85.7478C161.882 83.1097 164.566 79.1039 167.52 77.8287Z" fill="white"/>
<path d="M317.045 77.8287L318.953 78.6381L324.165 86.0114C321.448 87.5758 320.493 88.6159 318.302 90.8287C317.848 87.5288 315.978 81.8713 316.18 78.4788C316.199 78.1554 316.69 78.0073 317.045 77.8287Z" fill="white"/>
<path d="M306.037 93.8287C308.586 94.8686 310.077 103.162 308.548 105.521C307.645 106.917 307.525 106.852 306.121 107.416L303.165 107.829C304.974 102.573 305.541 99.2951 306.037 93.8287Z" fill="white"/>
<path d="M167.798 90.8287C168.614 91.4691 171.343 96.6777 172.002 97.8832C172.083 99.4659 172.442 102.711 171.735 103.829C166.355 102.44 166.769 95.704 167.798 90.8287Z" fill="white"/>
<path d="M315.472 91.8287C316.686 93.2553 316.174 100.561 314.947 102.217C314.455 102.881 312.638 103.526 311.849 103.829C311.432 103.796 311.555 103.803 311.165 103.537C311.496 96.9204 311.409 97.0445 315.472 91.8287Z" fill="white"/>
<path d="M340.165 42.8304C342.418 42.7691 346.739 44.3324 348.165 46.8041C346.8 47.1452 341.507 43.8421 340.165 42.8304Z" fill="#BCA1D6"/>
<path d="M141.097 43.8441C141.518 43.8005 141.744 43.8569 142.165 43.9194C141.749 44.5202 137.846 46.1979 136.894 46.664L136.402 46.8287L136.165 46.5935C136.748 45.1571 139.65 44.1121 141.097 43.8441Z" fill="#BCA1D6"/>
<path d="M145.778 54.8287L146.111 54.8942C146.521 56.2901 144.532 57.4495 143.032 57.8287C142.258 57.362 142.33 57.557 142.165 56.9332C142.864 56.0055 144.559 55.3863 145.778 54.8287Z" fill="#E3D3F1"/>
<path d="M337.165 54.8287C339.142 55.0048 340.555 55.4611 341.165 56.7861C338.46 57.0116 338.212 56.3385 337.165 54.8287Z" fill="#E3D3F1"/>
</g>
<defs>
<clipPath id="clip0_694_4173">
<rect width="483" height="122" fill="white"/>
</clipPath>
</defs>
</svg>
