<svg width="567" height="217" viewBox="0 0 567 217" fill="none" xmlns="http://www.w3.org/2000/svg">
<path d="M217.86 92.2102C218.303 88.0711 218.671 83.5892 219.728 79.6129C223.373 65.896 232.126 53.2969 243.061 44.4307C271.067 21.7219 314.709 26.5733 336.918 55.1267C346.868 67.9207 350.829 80.4494 351.731 96.3883C353.942 86.1689 353.316 73.2679 351.016 63.0537C350.128 59.11 347.965 55.184 347.738 51.0303C347.482 46.2983 349.82 44.0478 354.395 43.9469C362.237 43.7739 370.066 43.8518 377.899 43.8527L422.283 43.8559L547.806 43.8957C545.348 47.0226 543.199 50.3116 540.953 53.1722C527.464 53.3923 513.578 53.2393 500.054 53.2393L395.51 53.2638C397.837 55.2195 399.37 56.6591 401.106 59.1684L490.237 59.1871C504.832 59.1853 520.21 58.9443 534.761 59.24C532.364 62.8511 529.607 66.7436 526.894 70.1044C526.37 70.7551 524.372 70.8566 523.557 70.865C483.339 71.2779 443.003 70.4632 402.796 70.9386C404.59 72.5195 404.765 72.8018 405.297 75.2036C439.37 75.9029 473.755 74.8454 507.86 75.2783C512.339 75.3353 517.112 75.3792 521.583 75.2641C520.396 77.1404 514.492 85.6251 513.212 86.8944C502.974 87.3506 491.453 86.9292 481.058 87.036C455.524 87.2979 429.633 86.6684 404.134 87.1191C404.602 88.3866 405.254 90.0152 405.588 91.283C435.549 91.7206 465.629 91.1126 495.601 91.3475C500.193 91.3836 505.036 91.4234 509.617 91.2234C507.037 95.8257 504.169 98.4444 501.301 102.608C469.119 103.03 436.634 102.407 404.41 102.691L404.689 106.957C434.819 106.981 465.762 106.596 495.819 106.999C494.164 111.059 492.192 114.676 490.159 118.549C458.215 118.009 425.404 118.524 393.381 118.451C392.695 120.785 392.055 123.352 389.99 124.853C388.096 132.186 385.778 137.056 377.812 138.753C374.417 142.566 371.989 145.332 366.94 146.943L366.387 146.835C366.154 146.101 365.968 145.308 365.503 144.708C363.473 145.726 362.167 146.396 359.997 147.174C358.752 147.62 357.304 149.885 355.425 150.605L355.242 150.677C352.479 151.728 350.003 151.426 346.461 152.854C349.712 143.874 353.401 135.58 350.341 125.989C351.085 124.406 351.978 122.629 352.662 121.043C349.867 123.352 348.569 126.056 346.272 128.188C341.746 132.388 338.634 136.462 334.693 141.046C321.229 156.709 299.357 165.437 278.809 163.508C263.823 162.134 249.736 155.757 238.815 145.405C236.848 143.534 234.733 141.357 233.042 139.242C228.687 133.794 223.081 130.538 219.14 124.65L218.217 125.75C215.766 132.722 217.891 146.73 222.041 152.869C215.855 150.686 212.622 152.384 208.536 146.872C206.125 146.536 205.768 146.252 203.615 145.144C201.951 144.289 202.925 145.849 201.217 146.542C199.329 146.789 193.897 143.407 193.159 142.096C190.326 137.064 190.688 139.406 186.063 137.403C181.129 135.267 180.103 129.464 178.191 125.253C176.982 122.589 175.715 122.099 174.504 118.419L78.136 118.461C76.5072 114.729 73.9448 110.857 72.1325 106.976L163.83 106.949L164.27 102.752C153.455 102.374 141.125 102.652 130.223 102.651L67.1491 102.67L58.1059 91.2202C70.8213 91.5435 84.1953 91.3571 96.9648 91.3583L162.333 91.3321C162.963 89.8716 163.608 88.5593 164.316 87.1354C150.43 86.715 135.018 87.0217 121.032 87.0232L55.3536 87.1284C52.961 83.583 49.141 78.7147 46.4744 75.2574L162.433 75.306C163.451 73.397 163.974 72.6492 165.298 70.9261L42.1268 70.8993C39.3015 67.0495 36.3415 62.8086 33.1142 59.3237C44.3669 58.9326 56.9722 59.1856 68.3119 59.185L130.645 59.1929L152.647 59.203C157.187 59.2068 162.392 59.3339 166.877 59.0277C168.257 57.8783 170.87 54.7214 172.197 53.2262L27.8242 53.2783C25.9374 50.7128 22.4789 46.2347 20.4754 43.887L147.285 43.8628L190.924 43.8611C198.49 43.8593 206.16 43.7023 213.696 43.9277C224.787 44.2592 219.249 56.5038 217.618 62.4341C214.762 72.8228 214.102 85.0177 216.228 95.5983C216.564 96.1711 216.661 96.4157 217.238 96.7832C217.946 95.6594 217.255 93.706 217.86 92.2102Z" fill="#422974"/>
<path d="M216.228 95.5983C216.564 96.1711 216.661 96.4156 217.238 96.7832C217.946 95.6594 217.255 93.7059 217.86 92.2102C218.158 94.8685 217.956 100.126 217.883 102.948C217.273 100.512 216.721 98.0611 216.228 95.5983Z" fill="#E3D3F1"/>
<path d="M218.217 125.75C217.784 124.391 217.156 124.427 216.623 121.959L217.057 121.752L216.719 122.037L217.208 121.909L216.794 122.203L216.86 122.345L217.482 122.211C217.881 122.632 218.78 124.094 219.14 124.65L218.217 125.75Z" fill="#E3D3F1"/>
<path d="M280.933 35.5206C314.758 33.4814 343.846 59.2129 345.937 93.0253C348.029 126.838 322.335 155.957 288.517 158.1C254.624 160.249 225.419 134.494 223.323 100.607C221.226 66.7207 247.034 37.5639 280.933 35.5206Z" fill="white"/>
<path d="M285.975 40.3486C296.19 40.6966 302.964 43.151 311.893 47.8397C311.908 60.1946 311.945 72.58 311.896 84.936C311.876 90.0829 310.229 95.1365 306.431 98.7694C306.667 98.9698 306.893 99.1809 307.112 99.4016C308.452 100.751 310.154 102.806 310.465 104.686C311.332 109.925 311.009 115.926 310.997 121.251L310.968 145.272C309.709 145.308 308.208 145.258 306.928 145.247C306.797 134.313 307.013 123.345 306.925 112.408C306.905 109.843 306.96 107.325 306.611 104.778C304.363 100.667 295.396 101.907 291.208 101.986L291.24 151.23C289.486 151.285 287.654 151.284 285.894 151.309C286.118 114.413 285.516 77.1899 285.975 40.3486Z" fill="#422974"/>
<path d="M291.234 46.2009C291.891 46.4126 293.284 46.7482 293.953 46.8653C298.334 47.633 302.417 49.6358 306.608 50.8044L306.614 73.7471C306.635 80.8181 307.682 87.1525 303.924 93.3934C303.005 94.6675 302.408 95.2912 301.321 96.4186C298.107 96.698 294.471 96.5901 291.211 96.5613L291.234 46.2009Z" fill="white"/>
<path d="M250.648 51.9713L251.048 52.217C251.301 54.6943 251.125 58.8073 251.121 61.4786L251.122 79.1677L251.112 136.963L245.825 136.922C245.709 125.866 246.173 113.256 245.758 102.397C245.102 101.846 244.992 102.03 243.924 101.98C240.463 101.927 237.001 101.937 233.541 102.011C234.399 106.977 235.828 111.752 236.606 116.726C237.468 119.131 233.151 120.759 232.425 119C224.277 99.2498 227.417 76.0448 242.053 60.064C244.745 57.1249 247.565 54.6222 250.648 51.9713Z" fill="#422974"/>
<path d="M245.523 64.5099C246.019 65.0304 245.81 94.3826 245.826 98.0062C241.865 98.0876 237.707 98.0184 233.731 98.0126C233.443 97.7526 233.329 97.4671 233.327 97.0751C233.264 84.5243 237.29 73.6413 245.523 64.5099Z" fill="white"/>
<path d="M280.256 40.2512L280.552 40.2701C281.327 41.6841 280.852 64.7047 280.852 68.1882L275.602 68.253C275.34 61.5627 275.537 53.5615 275.509 46.7484C269.538 48.4169 266.188 49.2479 260.801 52.4322L260.779 142.025C267.415 144.334 267.714 145.444 275.865 146.928L275.888 131.356L275.919 125.847L281.169 125.882C281.378 134.689 281.197 144.241 281.178 153.119C274.828 152.102 270.937 151.78 264.712 149.441C261.948 148.403 257.779 146.224 255.457 145.503L255.433 49.0153C257.002 48.4373 259.967 46.5318 261.805 45.7145C267.93 42.9911 273.584 40.983 280.256 40.2512Z" fill="#422974"/>
<path d="M317.719 52.1303C322.41 54.2986 329.458 62.2294 332.427 66.4444C334.385 69.2221 336.584 72.5733 331.979 73.9268C330.531 73.5064 324.571 65.1316 322.861 63.1471C323.361 85.3946 322.599 108.024 322.977 130.241C325.223 127.94 326.732 125.519 328.416 122.82C329.385 120.682 331.238 117.745 333.951 119.502C337.651 125.227 321.506 139.009 317.643 142.266C317.303 138.25 317.515 130.969 317.515 126.771L317.527 97.8887L317.512 68.9317C317.507 63.9499 317.306 56.94 317.719 52.1303Z" fill="#422974"/>
<path d="M365.93 53.2571C368.682 53.1727 371.779 53.2481 374.557 53.2582C377.899 56.6265 382.035 61.5112 385.057 65.2223C382.59 68.5775 382.573 72.0226 381.84 73.0978L381.302 72.9504C376.253 70.1619 366.564 63.9359 361.524 60.2676C360.567 59.5697 361.547 56.3041 361.937 55.0258C363.342 54.2858 364.453 53.8444 365.93 53.2571Z" fill="white"/>
<path d="M193.533 53.2949C196.396 53.214 201.174 52.8195 203.738 53.847C206.134 54.8077 206.514 56.225 207.381 58.4156C205.314 62.8403 197.542 66.57 193.405 69.182C191.204 70.5891 188.924 71.6294 186.631 73.1839C185.767 69.2765 185.285 68.5633 183.209 65.229C185.105 62.9383 191.749 54.7915 193.533 53.2949Z" fill="white"/>
<path d="M378.036 53.2995C382.483 53.2088 390.673 52.2961 393.881 55.0424C397.29 57.9612 401.379 62.4402 401.993 67.0527C397.145 64.507 392.892 62.5804 387.48 63.7882C384.696 61.4577 380.354 56.2328 378.036 53.2995Z" fill="white"/>
<path d="M177.9 53.2815C181.859 53.157 186.125 53.2428 190.109 53.2536C188.038 55.6647 185.95 58.4808 183.864 60.9125C180.447 64.8969 180.447 63.011 175.458 63.3602C172.898 63.9612 168.091 66.5409 166.445 66.0487C165.841 62.3187 174.033 54.6077 177.9 53.2815Z" fill="white"/>
<path d="M374.868 103.559C375.869 103.495 376.945 103.321 377.838 103.73C379.336 105.576 382.332 112.027 381.956 114.447C381.439 117.792 378.969 121.712 377.201 124.636C375.985 124.022 371.631 117.411 370.575 115.905L370.639 115.816C372.876 112.582 372.105 108.238 371.442 104.638C372.507 104.367 373.804 103.905 374.868 103.559Z" fill="white"/>
<path d="M190.785 103.469C192.775 103.418 194.935 104.067 196.877 104.562C196.09 108.551 195.987 112.43 197.381 116.292C196.226 118.384 193.917 120.807 192.411 123.12L191.917 123.88C190.243 124.424 187.408 118.518 186.962 117.04C185.468 112.088 188.441 107.632 190.785 103.469Z" fill="white"/>
<path d="M190.502 84.852C191.114 85.4082 193.132 91.0396 193.555 92.1521C190.725 99.0198 189.484 100.419 182.261 101.773C179.303 102.467 179.678 100.81 179.524 98.3103C179.455 97.1943 179.386 96.0249 179.302 94.9057C182.068 90.4979 186.025 87.3945 190.502 84.852Z" fill="white"/>
<path d="M377.628 84.8496C382.998 88.0679 385.589 89.4529 388.684 95.0502C388.617 96.7047 388.905 100.975 387.718 101.946L386.619 101.789C384.071 101.299 381.924 100.927 379.449 100.113C377.533 97.5991 375.901 95.2319 374.47 92.4112C375.293 89.6349 376.896 87.6989 377.628 84.8496Z" fill="white"/>
<path d="M384.609 79.4608C390.641 79.2549 399.184 82.256 401.711 88.1883C402.534 90.1248 403.436 92.9904 403.241 95.1031L402.813 95.1334C397.502 91.7639 391.569 89.1513 386.409 85.5269C384.344 84.0747 382.311 81.7114 384.609 79.4608Z" fill="white"/>
<path d="M181.282 79.4945C191.108 79.2634 176.868 89.9091 173.989 90.2911C173.812 90.3147 167.885 93.7952 167.105 94.2544L164.851 95.3096C165.411 84.7991 171.769 81.2801 181.282 79.4945Z" fill="white"/>
<path d="M358.456 112.995C363.391 117.113 363.525 120.823 364.575 127.156C362.49 129.225 361.021 132.07 359.017 134.438L358.592 134.5C357.726 133.879 354.782 128.177 352.926 126.007C355.085 122.027 356.891 117.253 358.456 112.995Z" fill="white"/>
<path d="M209.458 113.356C210.094 113.931 214.367 123.725 215.06 125.264C213.99 128.067 211.329 132.055 209.671 134.736C208.429 133.815 205.125 128.505 204.18 127.022C204.471 124.108 205.285 118.976 206.243 116.317L209.458 113.356Z" fill="white"/>
<path d="M359.389 109.839C359.703 108.682 362.458 96.3985 365.102 98.4036C369.188 101.503 370.494 109.6 369.205 114.51L369.732 114.841C369.947 115.823 369.997 115.427 369.528 116.326C368.662 116.805 369.034 116.757 368.132 116.557L366.053 115.696C365.381 115.623 365.282 115.618 364.726 115.239L364.72 113.888C363.816 114.318 364.203 114.274 363.257 114.088C361.864 113.09 360.494 111.216 359.389 109.839Z" fill="white"/>
<path d="M364.72 113.888C366.338 113.239 367.489 113.892 369.205 114.51L369.732 114.841C369.947 115.823 369.997 115.427 369.528 116.326C368.662 116.805 369.034 116.757 368.132 116.557L366.053 115.696C365.381 115.623 365.282 115.618 364.726 115.239L364.72 113.888Z" fill="#453476"/>
<path d="M179.707 67.1795C183.685 66.5238 183.557 72.5364 183.461 74.9995C176.881 74.9637 173.358 74.9117 167.84 78.5667L164.988 80.165C164.941 78.1555 164.875 76.5397 165.803 74.6916C167.996 70.3253 175.237 68.5682 179.707 67.1795Z" fill="white"/>
<path d="M387.119 67.0411C390.513 67.1786 397.971 70.2096 400.702 72.3814C402.005 73.4168 404.108 78.4332 402.848 79.8083L401.979 79.4573C398.183 76.5036 394.989 75.2719 390.074 75.055C388.343 74.9788 386.665 75.1946 384.964 74.8742C383.326 72.664 385.81 68.9357 387.119 67.0411Z" fill="white"/>
<path d="M204.003 98.1699L204.525 98.3266C205.765 99.4251 208.486 107.957 209.15 110.037C207.637 111.158 206.235 112.786 204.995 114.222L204.513 114.112C202.27 113.296 201.66 113.655 199.314 114.201C198.186 108.771 198.735 101.289 204.003 98.1699Z" fill="white"/>
<path d="M173.037 95.6756C173.278 95.6544 173.521 95.6437 173.764 95.6439C178.559 95.6256 177.562 98.7215 177.582 102.631C173.941 104.348 171.372 106.318 168.808 109.422L166.656 111.728C165.38 104.791 165.951 98.7456 173.037 95.6756Z" fill="white"/>
<path d="M202.386 85.7426L203.742 85.8194C204.564 86.2419 204.957 87.2689 205.398 88.1156C205.153 90.7904 204.814 93.1939 204.425 95.8472C200.898 97.0181 199.382 98.9323 197.442 101.907C194.429 101.452 193.92 99.8485 194.785 96.8882C196.091 92.4155 198.25 88.1743 202.386 85.7426Z" fill="white"/>
<path d="M364.438 85.7028C369.461 86.1744 371.59 92.0436 373.283 96.1045C373.917 97.6258 374.857 100.934 372.725 101.473C372.28 101.519 370.479 101.835 370.334 101.423C369.098 97.9559 367.068 97.2499 363.935 95.4259C363.473 93.1131 363.057 90.791 362.69 88.4607C363.118 87.6134 363.897 86.5169 364.438 85.7028Z" fill="white"/>
<path d="M393.425 95.4073C399.349 95.8449 402.165 100.894 401.88 106.354C401.795 107.928 402.124 109.148 401.72 110.793L401.353 110.982L400.745 110.35C398.398 107.602 394.259 104.411 391.095 102.581C391.127 100.902 390.891 98.0957 391.499 96.5863C391.819 95.796 392.622 95.6945 393.425 95.4073Z" fill="white"/>
<path d="M364.063 65.5855C365.692 65.6922 379.118 74.6837 381.395 76.1844C380.88 76.9003 379.865 78.7298 379.374 79.564L379.118 79.8402C378.149 79.8077 375.171 77.2791 374.016 76.5115C370.168 73.9501 366.756 72.3939 362.248 71.2686C362.24 68.7258 361.757 67.1045 364.063 65.5855Z" fill="white"/>
<path d="M203.36 65.648C203.912 65.6108 204.179 65.7271 204.699 65.878C206.056 67.1676 205.806 69.3152 205.856 71.234C198.554 73.3531 195.171 75.6589 189.393 80.1421C188.636 80.1013 187.49 76.5694 187.159 75.754C190.422 74.1391 200.186 67.7197 203.36 65.648Z" fill="white"/>
<path d="M193.815 126.885C199.446 129.814 201.183 135.991 200.543 141.962C200.458 142.761 200.061 143.02 199.461 143.394C192.495 140.498 190.123 133.445 193.815 126.885Z" fill="white"/>
<path d="M374.269 127.136C377.451 128.929 375.985 138.301 373.248 140.41C371.436 141.807 371.515 142.019 369.374 143.122C366.358 144.153 368.35 134.478 368.74 133.251C369.764 130.05 371.378 128.619 374.269 127.136Z" fill="white"/>
<path d="M383.891 120.578C388.605 120.427 387.541 127.187 385.88 129.876C384.443 132.206 383.428 133.384 381.258 135.045C380.528 135.492 379.888 136.025 379.077 135.873C378.239 135.063 378.324 129.993 378.059 128.006C379.016 126.014 382.273 122.476 383.891 120.578Z" fill="white"/>
<path d="M182.887 120.569C185.583 120.815 188.786 125.871 190.555 128.075C190.168 129.904 190.157 135.437 189.37 136.523C189.263 136.469 189.157 136.414 189.052 136.357C182.96 133.093 179.181 127.226 182.887 120.569Z" fill="white"/>
<path d="M381.444 103.435C385.336 103.637 387.823 105.404 391.432 106.991C391.775 110.521 391.956 116.798 390.475 119.938C390.08 120.593 389.859 121.102 389.175 121.434C388.8 120.949 388.69 120.557 388.608 119.956C387.779 113.864 383.594 108.997 381.444 103.435Z" fill="white"/>
<path d="M185.484 103.534C186.2 103.497 186.305 103.485 186.949 103.788C187.264 105.031 184.918 107.458 184.183 108.769C181.563 113.436 180.284 116.964 178.887 122.091C176.425 116.929 176.6 112.767 176.902 107.28C179.65 105.43 182.293 104.334 185.484 103.534Z" fill="white"/>
<path d="M201.01 77.6891C204.557 77.3696 204.537 78.3553 205.389 81.4459C202.387 83.0242 198.66 83.8709 196.545 86.6414C195.884 87.6192 195.776 88.0757 194.597 87.744C193.785 86.9537 193.165 84.7723 192.755 83.599C195.246 80.6125 197.391 78.9743 201.01 77.6891Z" fill="white"/>
<path d="M364.997 77.5728C370.369 77.1817 377.3 83.0419 373.693 88.031L373.123 87.9655C369.383 84.0768 367.658 83.5816 362.725 81.2723C363.528 79.6431 363.831 78.9464 364.997 77.5728Z" fill="white"/>
<path d="M214.102 133.37C215.342 140.992 215.408 141.599 217.802 149.179L214.878 148.67C213.187 148.1 212.339 147.579 210.784 146.689L210.563 139C211.315 137.526 213.149 134.852 214.102 133.37Z" fill="white"/>
<path d="M202.495 115.584L203.044 115.855C203.745 117.254 201.383 127.423 200.902 129.907L198.424 127.282C197.022 125.91 196.396 125.427 194.776 124.309C196.579 121.402 199.396 116.989 202.495 115.584Z" fill="white"/>
<path d="M366.053 115.696L368.132 116.557L373.813 124.406C370.852 126.071 369.81 127.179 367.423 129.534C366.928 126.021 364.889 119.999 365.11 116.388C365.131 116.043 365.666 115.886 366.053 115.696Z" fill="white"/>
<path d="M353.889 133.275C356.804 134.429 358.508 143.635 356.76 146.254C355.727 147.804 355.591 147.732 353.985 148.358L350.605 148.816C352.673 142.981 353.322 139.343 353.889 133.275Z" fill="white"/>
<path d="M203.158 130.381C204.164 131.064 207.526 136.617 208.338 137.902C208.437 139.589 208.88 143.048 208.009 144.24C201.381 142.76 201.892 135.578 203.158 130.381Z" fill="white"/>
<path d="M364.895 130.778C366.274 132.347 365.692 140.377 364.299 142.197C363.74 142.927 361.678 143.636 360.782 143.969C360.308 143.933 360.448 143.94 360.006 143.648C360.381 136.375 360.282 136.512 364.895 130.778Z" fill="white"/>
<path d="M391.938 77.9906C394.419 77.9395 399.178 79.243 400.748 81.304C399.245 81.5884 393.416 78.8342 391.938 77.9906Z" fill="#BCA1D6"/>
<path d="M173.809 78.2904C174.267 78.2428 174.514 78.3044 174.972 78.3727C174.519 79.0293 170.268 80.8629 169.231 81.3723L168.696 81.5523L168.438 81.2953C169.073 79.7254 172.233 78.5832 173.809 78.2904Z" fill="#BCA1D6"/>
<path d="M178.853 90.1388L179.164 90.2141C179.548 91.8186 177.687 93.1512 176.283 93.587C175.559 93.0506 175.627 93.2747 175.472 92.5577C176.127 91.4914 177.712 90.7796 178.853 90.1388Z" fill="#E3D3F1"/>
<path d="M388.783 90.3013C390.731 90.5639 392.125 91.244 392.727 93.2192C390.059 93.5553 389.815 92.5519 388.783 90.3013Z" fill="#E3D3F1"/>
<path d="M345.998 183.736C345.972 182.768 345.806 181.004 346.493 180.358C350.562 179.749 363.543 180.245 367.972 180.773C369.331 180.935 371.835 182.461 373.018 183.205C373.112 183.359 373.199 183.514 373.283 183.672C377.122 190.76 375.267 195.425 368.272 198.96C368.694 199.173 369.109 199.393 369.522 199.62C372.777 201.456 374.211 208.704 375.232 212.364L378.641 212.224C379.449 212.392 380.104 212.558 380.933 212.56L381.005 216.029L378.815 215.979C377.143 216.158 373.173 216.054 371.311 216.049C369.915 211.123 368.56 204.328 364.994 200.747C362.301 200.196 358.429 200.318 355.617 200.327L355.605 212.3L360.873 212.378L360.797 216.052L346.025 216.051L345.984 212.336L350.841 212.275C350.553 202.825 350.908 193.211 350.696 183.724L345.998 183.736Z" fill="#422974"/>
<path d="M378.641 212.224C379.449 212.392 380.104 212.558 380.933 212.56L381.005 216.029L378.815 215.979C378.937 214.846 379.266 213.1 378.641 212.224Z" fill="#FCF5FA"/>
<path d="M355.628 183.71C359.508 183.69 364.819 183.347 368.173 185.601C371.073 187.549 370.459 192.212 368.598 194.727C363.988 196.994 360.75 196.582 355.631 196.58C355.579 192.319 355.626 187.977 355.628 183.71Z" fill="white"/>
<path d="M192.625 180.246L201.182 180.238C201.221 185.318 201.207 190.399 201.14 195.479C215.308 179.888 231.628 204.119 216.777 214.935C212.898 217.074 210.45 216.834 206.188 216.126C205.361 215.238 202.08 212.733 200.923 211.81C201.096 213.074 201.07 214.733 201.09 216.036C199.193 216.067 194.469 216.311 192.919 215.855C192.407 215.108 192.547 213.566 192.974 212.801C193.882 212.259 195.678 212.505 196.819 212.556L196.793 183.491C195.628 183.531 193.808 183.779 192.934 183.159C192.376 182.383 192.576 181.238 192.625 180.246Z" fill="#422974"/>
<path d="M207.889 194.313C220.894 193.701 220.467 210.953 210.992 213.128C209.001 213.241 207.743 213.38 205.863 212.347C200.992 209.672 199.893 202.641 202.526 198.06C203.715 195.993 205.599 194.883 207.889 194.313Z" fill="white"/>
<path d="M286.499 180.207L295.413 180.219C295.597 190.878 295.405 201.849 295.475 212.562L299.794 212.633C299.8 213.622 299.945 214.785 299.372 215.545C297.813 216.684 293.625 216.044 291.187 216.008L291.301 211.79C287.185 216.187 284.539 217.183 278.661 216.332C263.523 211.966 269.919 184.103 286.842 191.286C288.959 192.185 289.94 193.64 291.187 195.464C290.897 192.129 291.03 186.967 291.019 183.496L286.513 183.538C286.458 182.501 286.496 181.262 286.499 180.207Z" fill="#422974"/>
<path d="M282.512 194.03C291.371 194.435 292.976 202.959 289.428 209.755C288.343 211.836 285.993 212.8 283.753 213.252C275.096 212.821 272.931 204.292 276.456 197.438C277.633 195.15 280.145 194.487 282.512 194.03Z" fill="white"/>
<path d="M18.5474 180.156L23.6662 180.264C24.1467 181.788 26.1387 186.049 26.8711 187.785L33.4883 203.559C34.4931 205.901 36.3976 209.969 36.9401 212.307L41.1641 212.409L41.0495 216.065L26.7553 216.062L26.7091 212.33L31.9124 212.267C30.8898 209.615 29.8008 206.988 28.6464 204.39L23.4847 204.38C19.777 204.366 16.134 204.336 12.4258 204.49C11.7008 205.916 10.0628 210.6 9.41761 212.311C11.1019 212.27 13.0131 212.359 14.7153 212.4L14.6159 216.052L0.375672 216.078C0.317647 214.863 0.307031 213.56 0.275299 212.337L4.6961 212.332C5.60835 209.454 7.3311 206.133 8.53365 203.243C11.6882 195.469 15.027 187.771 18.5474 180.156Z" fill="#422974"/>
<path d="M20.5857 185.69C21.664 186.716 26.3068 198.466 27.2605 200.617L20.451 200.623L14.2848 200.607C16.0697 196.329 18.6764 189.665 20.5857 185.69Z" fill="white"/>
<path d="M100.537 190.6C107.646 189.136 114.597 193.71 116.063 200.817C117.529 207.923 112.955 214.873 105.846 216.34C98.7358 217.807 91.7819 213.233 90.3157 206.124C88.8492 199.015 93.4261 192.064 100.537 190.6Z" fill="#422974"/>
<path d="M101.315 194.051C114.118 192.928 114.05 209.881 105.336 212.86C93.4671 214.543 91.4038 197.414 101.315 194.051Z" fill="white"/>
<path d="M406.839 190.603C413.941 189.236 420.811 193.88 422.187 200.981C423.563 208.083 418.927 214.955 411.824 216.339C404.71 217.724 397.822 213.078 396.444 205.966C395.068 198.854 399.722 191.973 406.839 190.603Z" fill="#422974"/>
<path d="M407.58 194.031C420.174 193.076 420.355 210.03 411.196 212.852C402.331 214.016 399.457 205.357 402.214 198.365C403.189 195.895 405.23 194.856 407.58 194.031Z" fill="white"/>
<path d="M552.503 190.535C562.392 189.731 566.982 194.489 566.665 204.452C566.452 211.063 563.378 215.293 556.758 216.592C549.766 217.034 543.725 214.11 542.44 206.817C541 198.663 544.083 192.088 552.503 190.535Z" fill="#422974"/>
<path d="M552.768 194.055C565.527 192.751 565.202 210.091 556.744 212.825C547.75 214.271 545.139 205.365 547.687 198.4C548.649 195.772 550.374 194.99 552.768 194.055Z" fill="white"/>
<path d="M499.594 198.612C498.125 198.621 496.91 198.632 495.441 198.503L495.069 198.012C495.961 189.358 509.146 188.465 514.247 192.932C517.423 195.714 516.324 208.225 516.277 212.555L520.495 212.692L522.266 212.539L522.316 215.959C521.658 215.785 521.068 215.994 520.41 216.155C518.366 215.963 514.236 216.039 512.04 216.014C512.051 214.845 512.136 213.512 512.182 212.33C505.656 217.628 501.211 218.949 494.67 212.488C494.365 211.196 494.106 209.781 494.12 208.448C494.126 206.735 494.813 205.094 496.028 203.888C499.83 200.166 506.97 200.673 511.944 200.759C511.906 199.3 512.014 197.526 511.214 196.313C510.321 194.931 508.896 193.977 507.276 193.676C505.307 193.312 503.273 193.759 501.636 194.916C499.955 196.094 499.934 196.693 499.594 198.612Z" fill="#422974"/>
<path d="M520.495 212.692L522.266 212.539L522.316 215.959C521.658 215.785 521.068 215.994 520.41 216.155L520.495 212.692Z" fill="#FCF5FA"/>
<path d="M505.6 204.227C507.965 204.102 509.722 204.181 512.066 204.296C511.525 208.771 510.434 211.926 505.551 213.118C503.721 213.182 501.694 213.18 500.228 212.014C498.413 210.57 498.25 208.315 499.655 206.536C501.238 204.532 503.294 204.488 505.6 204.227Z" fill="white"/>
<path d="M455.792 179.471C461.315 179.089 464.549 180.406 468.88 183.817C468.863 182.759 468.68 181.373 469.282 180.575C470.099 180.032 471.745 180.181 472.798 180.18C472.9 184.268 472.818 188.645 472.81 192.755L468.799 192.772C468.185 189.776 467.952 188.069 465.53 185.789C463.427 183.808 460.178 183.04 457.328 183.21C454.117 183.399 451.121 184.877 449.018 187.308C443.948 193.062 444.344 205.102 450.432 210.124C453.756 212.868 456.577 213.082 460.687 212.742C465.393 211.5 467.187 208.553 468.046 204.023C469.572 203.88 471.684 203.934 473.263 203.931C472.935 206.373 472.338 209.013 470.91 211.043C465.876 218.056 454.585 218.313 447.773 213.78C439.513 208.284 438.565 194.373 443.765 186.528C446.607 182.236 450.769 180.389 455.792 179.471Z" fill="#422974"/>
<path d="M313.141 190.52C323.376 189.653 327.474 194.626 328.335 204.442C323.149 204.878 313.091 204.438 307.321 204.597C307.667 206.982 307.769 208.435 309.377 210.323C312.853 214.4 319.176 214.749 322.146 209.976L323.193 208.13L327.407 208.238C325.729 212.718 323.783 215.267 318.766 216.358C305.649 219.21 298.709 206.105 304.95 195.462C306.661 192.548 309.796 191.127 313.141 190.52Z" fill="#422974"/>
<path d="M313.478 193.666C319.9 193.277 321.424 195.055 323.161 200.991L317.629 201.08L307.449 201.033C308.545 196.335 308.99 195.62 313.478 193.666Z" fill="white"/>
<path d="M52.3756 190.553C52.4998 190.539 52.6242 190.527 52.749 190.516C63.236 189.59 66.9929 194.618 67.7229 204.435C60.9376 204.765 53.6538 204.314 46.6807 204.641C47.3363 207.316 47.9456 209.355 49.9906 211.305C53.2996 214.459 58.7798 213.857 61.7421 210.61C62.1647 209.808 62.5737 208.898 62.9663 208.073L67.0508 208.231C66.8239 209.024 66.401 210.273 65.9865 210.984C64.4971 213.564 62.0312 215.437 59.1451 216.18C40.5632 220.961 35.5838 194.489 52.3756 190.553Z" fill="#422974"/>
<path d="M53.2118 193.656C57.003 193.367 58.6283 194.064 61.5141 196.394C62.1802 197.837 62.5472 199.44 62.955 200.98L57.2432 201.084C53.8246 201.131 50.284 201.055 46.8558 201.025C48.4127 196.778 48.7783 195.283 53.2118 193.656Z" fill="white"/>
<path d="M236.627 190.531C236.776 190.515 236.926 190.503 237.076 190.494C247.633 189.799 251.007 194.571 251.508 204.483C244.902 204.644 237.798 204.524 231.129 204.574C231.187 205.177 231.259 205.779 231.346 206.378C232.419 213.592 241.828 215.817 245.682 210.39C246.107 209.503 246.232 209.187 246.884 208.463C247.933 207.872 249.59 208.099 250.852 208.148C249.514 213.302 247.374 215.192 242.135 216.366C229.35 219.232 222.586 205.873 228.562 195.614C230.27 192.683 233.304 191.18 236.627 190.531Z" fill="#422974"/>
<path d="M237.354 193.682C243.497 193.164 245.356 195.437 246.85 200.997L241.07 201.071C237.769 201.112 234.468 201.088 231.168 200.998C232.35 196.241 232.682 195.4 237.354 193.682Z" fill="white"/>
<path d="M177.545 194.5C177.535 193.462 177.425 192.072 177.791 191.14C179.501 190.826 184.612 190.952 186.622 190.96L186.627 198.379L186.653 212.678L190.895 212.68C190.915 213.584 190.786 215.099 190.736 216.048L182.315 216.03L182.217 211.966C180.793 213.127 178.983 214.853 177.577 216.113C161.814 219.632 164.862 204.846 165.003 194.531L160.724 194.499L160.727 190.976L169.406 190.979C169.473 196.78 168.995 203.224 169.503 208.816C170.756 216.134 180.74 213.981 181.82 207.545C182.55 203.195 182.248 198.929 182.225 194.524L177.545 194.5Z" fill="#422974"/>
<path d="M129.31 190.515C131.179 190.383 132.208 190.267 134.069 190.587C135.778 190.881 138.026 192.806 139.302 192.769C139.342 192.224 139.389 191.68 139.443 191.136C140.329 190.641 142.461 190.566 142.557 191.625C142.722 193.446 142.971 198.727 142.394 200.267C136.972 200.898 140.112 198.328 137.661 195.812C136.427 194.546 133.499 193.701 131.725 193.809C129.732 193.945 127.877 194.871 126.571 196.382C124.639 198.659 124.25 201.726 124.493 204.593C125.006 210.62 127.936 213.512 134.124 212.837C137.285 211.597 137.804 210.564 139.167 207.562L143.171 207.654C142.119 211.948 140.393 215.019 135.782 216.2C122.689 219.552 116.035 206.326 121.617 195.666C123.15 192.738 126.173 191.259 129.31 190.515Z" fill="#422974"/>
<path d="M477.702 180.191L486.416 180.245L486.392 212.534C488.51 212.496 489.79 212.124 491.032 214.112C490.895 216.329 488.699 216.124 487.102 216.056C484.944 215.988 479.563 216.358 477.94 215.85C477.452 215.155 477.489 213.498 478.016 212.81C478.903 212.242 480.718 212.506 481.855 212.563L481.82 183.478C480.677 183.494 478.874 183.789 478.03 183.197C477.443 182.391 477.649 181.224 477.702 180.191Z" fill="#422974"/>
<path d="M146.516 180.288C149.356 180.188 152.479 180.245 155.344 180.246L155.278 212.552L159.53 212.56C159.53 213.896 159.706 214.76 159.095 215.821C158.266 216.292 156.63 216.088 155.604 216.049L146.58 216.052L146.48 212.588L150.788 212.556L150.763 183.469C149.618 183.494 147.696 183.778 146.884 183.18C146.31 182.393 146.483 181.291 146.516 180.288Z" fill="#422974"/>
<path d="M530.689 194.903C534.403 190.865 534.802 190.487 540.462 190.239L540.517 194.264C539.72 194.304 538.929 194.368 538.135 194.41C529.168 194.877 530.826 206.061 530.887 212.575L536.454 212.682C536.396 213.792 536.364 214.957 536.207 216.053C532.993 216.05 525.175 216.237 522.315 215.959L522.266 212.539L526.518 212.564C526.434 206.533 526.425 200.502 526.486 194.471L522.214 194.385C522.228 192.959 522.007 192.532 522.67 191.417C524.7 190.285 528.016 191.037 530.861 191.008L530.689 194.903Z" fill="#422974"/>
<path d="M87.5343 190.27C88.2204 190.187 88.3132 190.175 88.9123 190.509C89.4236 191.487 89.2052 193.22 89.1593 194.393C88.2512 194.394 87.3432 194.41 86.4354 194.44C77.807 194.779 79.3768 206.557 79.6833 212.583C81.4098 212.559 84.028 212.002 84.8715 213.548C84.8753 214.398 84.9954 215.279 84.4562 215.899C81.89 216.286 74.0242 216.063 71.0924 216.069C71.0293 215.056 70.7798 213.663 71.3402 212.895C72.2227 212.29 74.0481 212.524 75.21 212.558C75.1571 206.531 75.1548 200.504 75.2027 194.478L71.0517 194.416L71.027 190.968L79.5161 190.993L79.4547 195.279C81.8644 191.036 82.7233 190.772 87.5343 190.27Z" fill="#422974"/>
<path d="M380.866 194.328C380.874 192.895 380.65 192.529 381.317 191.402C383.201 190.365 386.904 191.032 389.58 190.974L389.527 212.52C390.676 212.51 392.572 212.353 393.529 212.833C393.907 213.43 393.692 214.687 393.631 215.453L393.337 215.916C391.109 216.272 383.635 216.053 381.005 216.029L380.933 212.56L385.112 212.551L385.095 194.429C383.707 194.397 382.241 194.39 380.866 194.328Z" fill="#422974"/>
<path d="M236.614 20.6457C235.386 18.8219 234.783 17.5272 232.59 17.1009C232.451 17.0744 232.311 17.0503 232.171 17.0285L232.125 16.6694C233.017 15.612 234.044 14.4373 235.442 14.1081C237.241 14.8489 241.466 23.7125 242.876 25.8724C243.317 26.5472 244.452 25.8698 245.24 26.6159C244.844 27.7675 242.522 28.9358 241.434 29.4763C236.998 34.885 231.198 29.9006 233.558 23.0523C234.609 22.4054 236.066 21.689 236.614 20.6457Z" fill="#453476"/>
<path d="M237.09 22.4076C238.735 24.1123 240.995 26.7459 240.684 29.235C237.327 29.861 236.159 27.617 234.898 24.9412L235.12 23.5391C235.93 22.6051 235.741 22.8729 237.09 22.4076Z" fill="#FCF5FA"/>
<path d="M236.614 20.6457C236.705 21.2619 236.722 21.9467 237.09 22.4076C235.741 22.8729 235.93 22.6051 235.12 23.5391L234.898 24.9412C234.728 24.2567 234.045 23.6029 233.558 23.0523C234.609 22.4054 236.066 21.689 236.614 20.6457Z" fill="#56487A"/>
<path d="M270.621 2.02983C271.923 2.9515 272.245 14.6157 273.411 16.887L275.044 17.3156L275.166 17.6447C273.795 18.437 268.467 19.431 266.739 19.5976C266.526 19.5259 266.316 19.4476 266.108 19.3629C262.014 17.6945 262.979 14.1015 264.371 10.8735C266.188 9.84711 267.023 9.63165 269.012 9.35323C268.406 6.35948 268.483 5.54169 266.439 3.37538C267.893 3.03646 269.217 2.53121 270.621 2.02983Z" fill="#453476"/>
<path d="M266.776 10.4367C267.009 10.429 267.541 10.4085 267.753 10.4336C270.194 10.7239 270.583 16.3138 270.477 18.0542C265.782 18.1833 265.624 13.8782 266.776 10.4367Z" fill="white"/>
<path d="M331.482 16.5903C343.026 15.9998 337.546 29.308 327.701 29.7319C326.791 29.656 325.386 29.6653 324.955 28.7814C327.875 27.2603 328.082 28.5277 331.895 25.8075C326.956 23.3734 326.601 19.3867 331.482 16.5903Z" fill="#422974"/>
<path d="M333.605 17.7378C334.091 17.7412 334.53 17.8175 335.01 17.884C336.595 19.8981 333.873 23.0494 332.494 24.5652C328.876 22.9545 330.903 19.1779 333.605 17.7378Z" fill="#FCF5FA"/>
<path d="M309.075 6.42058C310.401 6.25545 311.733 6.64104 312.766 7.48724C316.201 10.2737 313.382 16.1197 310.663 18.5218C310.023 18.0601 309.718 17.3447 309.331 16.644L309.656 16.0638C301.667 13.7931 303.909 6.98938 309.075 6.42058Z" fill="#453476"/>
<path d="M309.075 6.42058C310.401 6.25545 311.733 6.64104 312.766 7.48724C316.201 10.2737 313.382 16.1197 310.663 18.5218C310.023 18.0601 309.718 17.3447 309.331 16.644L309.657 16.0638C310.029 15.2988 309.956 15.6405 309.851 14.7251L310.381 14.0719C311.73 12.2785 312.193 9.03417 310.666 7.15605C310.099 7.15803 309.819 7.12759 309.255 7.04681L309.075 6.42058Z" fill="#422974"/>
<path d="M310.666 7.15605C312.193 9.03417 311.73 12.2785 310.381 14.0719L308.708 13.9455C306.091 12.1164 307.495 8.09074 310.666 7.15605Z" fill="#FCF5FA"/>
<path d="M282.828 17.7529C273.787 19.3257 273.906 7.83364 281.64 8.24705C283.323 8.44626 284.864 9.1326 285.097 10.9553C283.904 12.8009 282.431 12.3078 280.439 12.1304L279.659 12.2584C278.946 13.5625 280.132 15.5759 281.012 16.5977L281.165 16.5803C282.895 16.3731 283.209 16.2383 284.617 15.211L285.205 15.197C285.132 16.6701 284.05 17.2119 282.828 17.7529Z" fill="#422974"/>
<path d="M281.64 8.24706C283.323 8.44626 284.864 9.1326 285.097 10.9553C283.904 12.8009 282.431 12.3078 280.439 12.1304C281.296 10.0944 282.232 11.3428 281.333 8.62916L281.64 8.24706Z" fill="#453476"/>
<path d="M281.012 16.5977L281.165 16.5803C282.895 16.3731 283.209 16.2383 284.617 15.211L285.205 15.197C285.132 16.6701 284.05 17.2119 282.828 17.7529L282.438 16.7518L281.012 16.5977Z" fill="#56487A"/>
<path d="M291.888 6.80643C294.797 5.0094 296.1 4.6303 299.43 3.78037C299.261 5.49206 297.95 17.1305 298.334 17.9412L300.035 18.562L300.134 18.9076C299.043 19.2408 295.704 18.7615 294.355 18.6381C294.646 18.2949 294.739 18.0047 294.925 17.5899C295.091 13.8882 295.568 10.3132 295.754 6.71219C294.611 6.75453 292.996 6.86432 291.888 6.80643Z" fill="#422974"/>
<path d="M319.225 23.7109C321.206 20.3639 321.113 19.6462 318.786 16.8741C320.444 15.8924 323.457 16.9198 322.617 12.7816C321.343 11.5667 319.857 12.4253 318.158 12.6545C318.216 12.018 318.871 11.4124 319.365 11.013C321.625 9.18412 326.514 10.9943 326.014 14.2555C325.604 16.929 323.859 17.1313 321.666 17.6442C322.154 18.1109 323.251 19.1226 323.574 19.6676C324.947 21.9894 322.483 24.4114 320.43 25.301C320.092 24.5548 319.961 24.0454 319.225 23.7109Z" fill="#422974"/>
<path d="M251.732 24.5789C250.871 25.148 249.907 25.5671 248.866 25.6034C247.871 25.6418 246.903 25.2787 246.179 24.5959C242.809 21.43 244.443 13.6584 250.048 15.7172C250.528 15.8937 251.981 17.3708 252.432 17.8202C250.636 18.5059 248.705 19.4184 246.936 20.2098C248.007 21.7152 248.542 22.3568 250.054 23.3852C251.036 23.6813 251.144 23.7407 251.732 24.5789Z" fill="#453476"/>
<path d="M247.429 16.4587C248.4 16.6176 248.608 16.6768 249.143 17.4351C248.914 18.5279 248.964 18.2213 248.115 19.1349C247.021 18.92 246.826 19.0056 246.242 18.3059C246.467 17.2377 246.585 17.3887 247.429 16.4587Z" fill="#FCF5FA"/>
<path d="M253.905 14.1911C254.656 12.4527 256.866 11.2225 258.806 11.6737C259.631 12.1786 259.751 12.9268 260.041 13.8547C260.284 14.7351 260.312 14.8767 260.273 15.7867C261.04 16.4569 261.854 17.0313 262.174 17.9896C262.174 18.9434 261.929 19.2883 261.334 20.0657L260.236 19.2024C258.04 16.4255 253.796 20.3739 253.905 14.1911Z" fill="#422974"/>
<path d="M253.905 14.1911C254.656 12.4527 256.866 11.2225 258.806 11.6737C259.631 12.1786 259.751 12.9268 260.041 13.8547C260.284 14.7351 260.312 14.8767 260.273 15.7867C258.849 15.0699 257.054 15.5874 255.07 14.5021L254.811 14.2144L253.905 14.1911Z" fill="#FCF5FA"/>
<path d="M253.905 14.1911C254.656 12.4527 256.866 11.2225 258.806 11.6737C259.631 12.1786 259.751 12.9268 260.041 13.8547L259.58 14.033C258.714 13.4876 258.019 12.9374 256.992 12.9243C255.965 13.2377 255.645 13.5203 255.07 14.5021L254.811 14.2144L253.905 14.1911Z" fill="#56487A"/>
<path d="M384.836 180.223C386.403 180.201 388.012 180.221 389.582 180.222L389.588 185.389C388.102 185.472 386.281 185.434 384.769 185.442C384.731 183.767 384.804 181.912 384.836 180.223Z" fill="#453476"/>
<path d="M320.43 25.301C318.129 25.5899 313.225 24.3063 312.949 21.7614C313.374 21.309 313.595 21.3053 314.191 21.1443C315.124 21.4685 315.401 22.6357 316.602 23.714C317.402 24.078 318.341 23.8396 319.226 23.7109C319.961 24.0454 320.092 24.5548 320.43 25.301Z" fill="#453476"/>
<path d="M310.663 18.5218C309.38 19.3601 305.497 21.7846 304.04 20.746C305.113 19.3827 307.129 19.1354 309.331 16.644C309.718 17.3447 310.023 18.0601 310.663 18.5218Z" fill="#453476"/>
<path d="M261.334 20.0657C259.695 21.7219 257.911 23.0965 255.841 21.491C255.443 20.6744 255.296 20.4767 255.352 19.5786C256.87 18.7387 256.709 20.8589 258.688 20.9515C259.739 20.3938 259.561 20.3098 260.236 19.2024L261.334 20.0657Z" fill="#453476"/>
<path d="M250.054 23.3852C251.074 22.8134 253.279 21.1286 253.908 21.0915C254.003 22.4864 252.795 23.7883 251.732 24.5789C251.144 23.7407 251.036 23.6813 250.054 23.3852Z" fill="#56487A"/>
<path d="M294.355 18.6381C293.584 18.5597 292.685 18.5777 292.15 18.0868C292.822 17.5669 294.029 17.6341 294.925 17.5899C294.739 18.0047 294.646 18.2949 294.355 18.6381Z" fill="#56487A"/>
</svg>
