<svg width="815" height="505" viewBox="0 0 815 505" fill="none" xmlns="http://www.w3.org/2000/svg">
<g clip-path="url(#clip0_3690_1672)">
<path d="M490.625 2.77945C497.495 1.00195 525.58 -5.04354 526.075 6.54546C527.145 20.417 529.285 35.8809 530.815 49.8615L540.4 138.959L545.24 185.656C545.66 189.748 546.945 204.361 547.745 207.157L547.645 209L548 209.259C549.38 209.159 551.71 208.522 553.14 208.182C553.48 208.22 554.805 208.341 555.045 208.422C558.245 209.153 558.07 209.375 561.26 208.351C562.05 208.641 562.37 208.627 562.895 209.14L563.615 215.548C567.205 214.872 565.715 214.52 569.99 214.554C571.46 214.267 572.22 213.8 573.575 213.141L576.6 213.116L577.035 213.102L577.74 214.494C577.79 216.565 577.465 216.996 578.485 218.563L579.45 219.019C580.615 221.379 580.58 220.477 579.975 222.529C578.2 224.103 578.4 224.34 578.9 226.644C577.74 229.968 574.44 229.488 571.93 230.295C573.04 230.875 572.73 230.557 573.47 231.472C572.11 233.295 571.76 233.048 570.975 233.944L570.665 234.123L571.305 235.077L570.965 235.815C569.42 235.841 566.095 235.375 565.18 235.897L564.89 236.865L564.675 236.829C564.66 239.093 564.56 241.811 564.625 244.033C563.95 245.75 564.415 245.312 563.02 245.984L561.39 245.607C561.215 243.218 560.645 243.838 560.925 240.539L560.88 240.167C559.77 240.711 559.055 240.332 557.56 240.134C555.7 240.136 554.105 239.862 552.7 240.903C551.04 244.214 556.82 247.38 557.415 250.92C556.41 252.608 555.495 254.075 554.675 255.871C560.525 259.26 556.86 263.172 560.965 265.672C561.2 264.746 561.4 263.089 561.555 262.082L562.32 260.324C563.285 260.486 562.845 260.397 563.76 261.334L565.005 260.885C567.33 263.815 570.59 271.406 572.645 273.534C573.03 274.215 574.235 276.452 574.635 276.944C575.45 278.344 579.735 285.942 580.62 286.605C582.765 291.127 585.655 294.736 587.57 298.553L588.625 300.215L589.58 300.315C603.59 322.024 616.765 344.9 630.72 366.73C634.87 373.215 639.015 379.715 643.18 386.19C644.1 387.625 648.11 393.76 648.68 395.085C657.585 408.195 666.1 422.34 675.04 435.585C678.225 440.3 688.675 455.765 690.71 460.09C694.605 465.955 699.255 472.6 702.855 478.56C705.23 482 707.485 485.63 709.73 489.155C700.75 501.455 683.12 491.885 673.01 502.075C672.37 502.72 669.785 504.36 668.895 504.835C665.715 502.745 662.495 500.725 659.545 498.325C654.925 498.585 645.355 499.335 641.05 498.81C639.675 498.58 637.38 497.33 636.03 496.675C633.85 494.655 632.295 493.325 629.945 491.51C600.64 464.535 571.66 437.205 543.02 409.525C539.725 406.36 532.04 399.12 528.63 395.43C528.62 395.04 528.615 394.65 528.605 394.26C526.29 393.13 513.795 380.57 510.95 377.775C490.535 357.64 470.305 337.305 450.274 316.786C442.549 308.972 434.624 300.119 426.589 292.724C426.165 292.334 423.395 292.235 422.541 292.158C378.992 290.249 334.814 293.706 291.258 295.443C241.385 297.686 191.507 299.924 141.64 302.304C129.826 302.868 118.118 309.346 107.111 313.178C107.738 312.96 97.2367 311.727 95.8482 311.738L91.3167 307.977C89.5057 309.051 88.4327 309.98 86.3807 309.916L85.6697 309.273C85.7052 308.605 86.0202 306.52 85.5552 306.132C83.5922 304.493 26.4832 297.124 20.0867 296.197C14.3217 295.361 6.61868 295.258 1.31208 293.053C-0.453169 290.852 -0.0442685 287.802 0.168781 285.054C2.25248 258.181 4.73468 231.334 7.00018 204.475L10.1277 166.097C10.6807 159.275 11.1132 151.123 12.0982 144.522C12.3982 142.944 14.1253 139.441 13.8991 137.685C18.1127 137.21 22.0023 137.495 23.5 134.742L22.3384 133.67C19.3591 132.544 16.9252 132.774 13.3627 132.76L13.1777 131.437L22.809 139.545C22.1535 135.595 21.997 133.996 21.907 129.932C23.421 131.417 24.503 132.816 26.4855 133.369C28.296 132.843 27.7185 133.032 29.2015 131.564C31.8715 128.718 35.436 127.926 36.9695 132.485L36.972 132.118C36.989 130.764 36.978 130.577 37.32 129.299L38.111 129C40.263 130.89 40.1385 131.198 39.99 134.031C41.827 136.13 43.414 135.287 46 135.568C57.6135 135.756 58.3787 122.364 68.1407 126.862C71.9302 131.141 73.5797 136.933 76.6772 140.05L76.8382 140.612C79.0972 143.138 89.2377 161.852 90.8387 165.469C97.3727 165.427 110.985 164.326 115.624 168.698C117.02 170.014 117.005 171.89 117.135 173.72C120.677 189.672 125.001 207.247 128.102 223.089C127.729 227.836 125.181 227.982 126.76 231.373C129.472 236.271 134.614 244.921 136.757 249.587C143.519 262.936 150.043 270.186 166.435 270.532C176.762 270.404 188.276 268.559 198.619 267.272L246.185 261.494C297.727 255.407 350.473 250.098 401.543 241.762C417.196 196.963 434.467 152.443 449.136 107.204C455.9 86.338 462.635 65.4324 469.515 44.5984C472.965 34.1539 476.09 23.1935 479.81 12.889L481.24 9.31746C481.475 7.23996 482.115 5.64745 482.775 3.67195C485.31 3.24095 488.055 3.02845 490.625 2.77945Z" fill="#7994AF"/>
<path d="M510.34 232.47C516.56 232.09 534.22 233.317 540.29 234.905C545.88 236.974 551.825 238.433 557.56 240.135C555.7 240.137 554.105 239.863 552.7 240.903C551.04 244.215 556.82 247.38 557.415 250.921C556.41 252.608 555.495 254.076 554.675 255.872C560.525 259.26 556.86 263.173 560.965 265.672C561.2 264.747 561.4 263.089 561.555 262.082L562.32 260.324C563.285 260.486 562.845 260.398 563.76 261.335L565.005 260.886C567.33 263.816 570.59 271.406 572.645 273.535C573.03 274.215 574.235 276.453 574.635 276.945C575.45 278.345 579.735 285.943 580.62 286.606C582.765 291.128 585.655 294.736 587.57 298.553L588.625 300.216L589.58 300.315C603.59 322.024 616.765 344.9 630.72 366.73C634.87 373.215 639.015 379.715 643.18 386.19C644.1 387.625 648.11 393.76 648.68 395.085C657.585 408.195 666.1 422.34 675.04 435.585C678.225 440.3 688.675 455.765 690.71 460.09C694.605 465.955 699.255 472.6 702.855 478.56C705.23 482 707.485 485.63 709.73 489.155C700.75 501.455 683.12 491.885 673.01 502.075C672.37 502.72 669.785 504.36 668.895 504.835C665.715 502.745 662.495 500.725 659.545 498.325C654.925 498.585 645.355 499.335 641.05 498.81C639.675 498.58 637.38 497.33 636.03 496.675C633.85 494.655 632.295 493.325 629.945 491.51C600.64 464.535 571.66 437.205 543.02 409.525C539.725 406.36 532.04 399.12 528.63 395.43C528.62 395.04 528.615 394.65 528.605 394.26C526.29 393.13 513.795 380.57 510.95 377.775C490.535 357.64 470.305 337.305 450.274 316.787C442.549 308.972 434.625 300.12 426.59 292.725C426.166 292.335 423.395 292.235 422.542 292.158C423.744 292.122 425.009 291.873 426.205 291.682C421.183 286.747 416.24 280.835 411.142 275.722C409.786 274.078 406.361 270.821 404.73 269.172C401.613 268.535 393.426 266.489 391.151 264.558L391.32 263.816C390.723 263.06 390.883 263.35 390.53 262.42C396.358 258.92 407.426 256.559 413.715 252.839C413.872 252.746 417.878 252.857 418.432 252.845C428.947 246.437 458.665 232.884 470.135 238.036C484.055 234.759 496.075 232.53 510.34 232.47Z" fill="#7994AF"/>
<path d="M646.755 485.82C659.475 481.445 672.69 478.685 686.095 477.61C690.465 477.3 701.1 479.34 702.855 478.56C705.23 482 707.485 485.63 709.73 489.155C700.75 501.455 683.12 491.885 673.01 502.075C672.37 502.72 669.785 504.36 668.895 504.835C665.715 502.745 662.495 500.725 659.545 498.325C654.925 498.585 645.355 499.335 641.05 498.81C639.675 498.58 637.38 497.33 636.03 496.675C633.85 494.655 632.295 493.325 629.945 491.51C632.6 489.965 640.595 487.725 644.005 486.675L646.755 485.82Z" fill="#623D52"/>
<path d="M657.08 496.535C659.865 495.785 663.375 495.435 666.6 494.54C682.34 490.175 693.355 488.015 709.73 489.155C700.75 501.455 683.12 491.885 673.01 502.075C672.37 502.72 669.785 504.36 668.895 504.835C665.715 502.745 662.495 500.725 659.545 498.325L657.405 497.615L657.08 496.535Z" fill="#FE1F11"/>
<path d="M636.03 496.675C638.51 493.39 654.025 493.305 656.68 495.3L656.375 496.39L657.08 496.535L657.405 497.615L659.545 498.325C654.925 498.585 645.355 499.335 641.05 498.81C639.675 498.58 637.38 497.33 636.03 496.675Z" fill="#62536A"/>
<path d="M656.375 496.39L657.08 496.535L657.405 497.615L659.545 498.325C654.925 498.585 645.355 499.335 641.05 498.81C642.295 498.085 653.645 496.835 656.375 496.39Z" fill="#D8130C"/>
<path d="M404.73 269.172C401.613 268.534 393.426 266.488 391.151 264.558L391.32 263.815C390.723 263.06 390.883 263.35 390.53 262.42C396.358 258.919 407.426 256.558 413.715 252.838C413.872 252.745 417.878 252.857 418.432 252.844C428.947 246.437 458.665 232.883 470.135 238.035C463.045 239.579 460.77 243.499 454.846 245.608C444.812 249.18 434.003 251.781 423.904 255.242C420.002 256.579 412.088 257.691 410.958 262.21C413.974 262.98 416.692 259.678 419.641 260.022C416.662 263.553 408.265 265.249 407.712 270.282C410.441 274.815 425.175 287.643 426.205 291.681C421.183 286.746 416.24 280.834 411.142 275.722C409.786 274.077 406.361 270.821 404.73 269.172Z" fill="#E5CEBB"/>
<path d="M588.625 300.216L589.58 300.315C603.59 322.024 616.765 344.9 630.72 366.73C634.87 373.215 639.015 379.715 643.18 386.19C644.1 387.625 648.11 393.76 648.68 395.085C657.585 408.195 666.1 422.34 675.04 435.585C678.225 440.3 688.675 455.765 690.71 460.09C685.475 457.535 654.085 407.51 647.935 398.595C636.52 381.96 625.575 363.71 614.82 346.655C608.79 337.085 602.87 329.285 597.255 319.101C596.775 317.634 596.45 316.509 596.095 315.009L596.475 315.216C594.14 309.811 590.79 305.467 588.625 300.216Z" fill="#7087A0"/>
<path d="M510.34 232.47C516.56 232.09 534.22 233.317 540.29 234.905C545.88 236.974 551.825 238.433 557.56 240.135C555.7 240.137 554.105 239.863 552.7 240.903C551.04 244.215 556.82 247.38 557.415 250.921C556.41 252.608 555.495 254.076 554.675 255.872L552.855 259.427L552.405 259.294C551.41 258.298 551.365 258.196 550.695 256.92L550.525 256.596C549.6 256.301 549.13 256.211 548.165 256.032C547.865 255.973 546.47 255.379 546.09 255.227C540.4 252.39 537.46 248.597 532.495 244.785C530.345 243.135 528.735 243.702 527.14 241.331C526.1 240.844 516.655 238.597 514.945 238.172C521.04 238.812 530.06 241.661 534.63 241.374L535.04 239.524C536.035 238.903 536.945 238.483 537.99 237.972L538.205 237.225C534.08 234.64 516.095 234.59 510.34 232.47Z" fill="#B4AFAD"/>
<path d="M527.14 241.331C531.535 241.757 541.185 243.376 544.87 243.49C545.005 247.521 545.115 251.268 546.09 255.227C540.4 252.39 537.46 248.597 532.495 244.785C530.345 243.135 528.735 243.702 527.14 241.331Z" fill="#7087A0"/>
<path d="M544.87 243.49C546.955 243.859 548.58 243.94 550.285 245.142C552.26 248.448 549.585 252.577 548.165 256.032C547.865 255.973 546.47 255.379 546.09 255.227C545.115 251.268 545.005 247.521 544.87 243.49Z" fill="#56738D"/>
<path d="M561.555 262.082L562.32 260.324C563.285 260.486 562.845 260.397 563.76 261.334L565.005 260.885C567.33 263.815 570.59 271.406 572.645 273.534C573.03 274.215 574.235 276.452 574.635 276.944C575.45 278.344 579.735 285.942 580.62 286.605C582.765 291.127 585.655 294.736 587.57 298.553L588.625 300.215C590.79 305.466 594.14 309.81 596.475 315.215L596.095 315.008C596.45 316.509 596.775 317.634 597.255 319.101C592.13 312.636 586.47 302.648 581.09 295.404C575.775 288.249 568.285 280.74 563.905 273.89L564.57 274.485C563.94 272.787 561.98 270.115 560.865 268.453L560.965 265.672C561.2 264.746 561.4 263.089 561.555 262.082Z" fill="#72899D"/>
<path d="M644.005 486.675C643.19 485.455 638.565 480.74 637.34 479.445L622.305 463.6C605.225 445.91 588.305 428.07 571.545 410.085C566.68 404.87 553.955 391.93 550.07 386.725L550.31 386.43C552.14 387.21 552.565 387.715 554.04 389.08C556.065 391.74 558.295 394 560.59 396.42C568.085 404.32 575.48 412.275 583.055 420.1L627.57 466.255C630.365 469.11 644.49 484.285 646.755 485.82L644.005 486.675Z" fill="#7087A0"/>
<path d="M554.675 255.872C560.525 259.26 556.861 263.173 560.966 265.672L560.865 268.454C558.705 266.475 553.28 261.911 552.855 259.427L554.675 255.872Z" fill="#56738D"/>
<path d="M547.025 385.755C546.255 388.48 541.59 389.66 538.995 389.725L538.97 388.905C539.88 388.175 545.57 386.28 547.025 385.755Z" fill="#7087A0"/>
<path d="M538.97 388.905L538.995 389.725C535.815 391.22 532.62 393.225 529.25 392.985C530.77 391.205 536.51 389.685 538.97 388.905Z" fill="#F9D19D"/>
<path d="M20.216 131.425C22.886 128.579 26.4505 127.787 27.984 132.346L27.9865 131.979C28.0035 130.625 27.9925 130.438 28.3345 129.16L29.1255 128.861C31.2775 130.751 31.153 131.059 31.0045 133.892C32.8415 135.991 28.914 126.218 31.5 126.5C43.1135 126.688 58.3787 122.364 68.1407 126.862C71.9302 131.141 73.5797 136.933 76.6772 140.05L76.8382 140.612C79.0972 143.138 89.2377 161.852 90.8387 165.469C97.3727 165.427 110.985 164.326 115.624 168.698C117.02 170.014 117.005 171.89 117.135 173.72C120.677 189.672 125.001 207.247 128.102 223.089C127.729 227.836 125.181 227.982 126.76 231.373C123.879 233.123 121.209 241.519 118.288 245.508L116.936 248.756C111.724 259.945 104.356 274.674 99.8407 285.846L98.5277 287.934C94.0802 291.524 89.0532 292.134 83.4822 293.141C75.2317 293.784 66.5192 293.762 58.2542 293.502L50.5117 293.617L33.9997 294.371C32.5237 294.459 32.4592 294.459 31.0052 294.206C29.8877 292.621 30.3047 292.247 30.3877 289.972L29.9042 289.105C28.7492 292.091 29.7222 293.583 28.6672 295.693C23.5752 294.812 6.22018 292.831 1.31208 293.053C-0.453169 290.852 -0.0442685 287.802 0.168781 285.054C2.25248 258.181 4.73468 231.334 7.00018 204.475L10.1277 166.097C10.6807 159.275 11.1132 151.123 12.0982 144.522C12.3982 142.944 13.36 134.756 13.5 133C10.892 132.525 33.427 140.252 32.5 137.5L34.5 135C36.344 133.873 11.295 133.014 13.5 133L13.1777 131.437L19 133C18.3445 129.05 22.09 140.564 22 136.5C23.514 137.984 15.5175 132.677 17.5 133.23C19.3105 132.704 18.733 132.893 20.216 131.425Z" fill="#FFFEF2"/>
<path d="M72.8228 233.58L72.7998 231.999C74.3223 229.045 79.3508 229.053 82.1508 229.885C84.2688 231.061 86.0373 232.252 88.3928 232.715L89.4183 231.906C90.5753 231.86 91.7628 231.773 92.9118 231.87C99.0883 233.2 98.6763 237.339 97.7483 242.628C99.2613 243.974 99.7038 244.133 100.086 245.993C99.4708 250.998 91.9868 259.207 92.3143 262.97C89.0803 269.764 85.7058 275.612 83.6828 282.911C88.4333 283.1 96.3208 282.772 99.8408 285.846L98.5278 287.934C94.0803 291.524 89.0533 292.134 83.4823 293.142C75.2318 293.785 66.5193 293.763 58.2543 293.503L50.5118 293.618L33.9998 294.371C32.5238 294.459 32.4593 294.459 31.0053 294.206C29.8878 292.622 30.3048 292.248 30.3878 289.973L29.9043 289.106C30.4788 286.104 30.0798 258.617 30.0533 253.811C30.3408 254.129 30.6288 254.447 30.9168 254.765C38.6898 254.209 48.3658 252.953 56.0208 253.346C60.7503 253.589 61.3103 253.249 64.0833 253.41C64.2768 251.384 66.7283 237.613 67.5918 236.727L67.5093 236.33C67.4443 238.153 67.3678 239.976 67.2803 241.798L67.7323 242.274L68.1328 240.893C70.2358 242.406 70.9373 241.501 72.3923 242.911C72.7308 245.316 70.5068 246.186 71.4448 248.397C71.7193 251.59 72.2613 257.756 75.0873 259.725C79.5068 259.532 81.9273 251.68 82.7403 248.103C83.8478 240.104 84.5803 229.285 72.8228 233.58Z" fill="#B4AFAD"/>
<path d="M83.683 282.91C88.4335 283.099 96.321 282.771 99.841 285.846L98.528 287.934C94.0805 291.524 89.0535 292.134 83.4825 293.141C75.232 293.784 66.5195 293.762 58.2545 293.502L50.512 293.617L34 294.371C36.0595 293.196 38.3675 292.823 40.702 292.266C42.3185 292.247 49.514 290.849 51.5045 290.499L54.4395 289.991L57.4225 289.298C62.7325 287.776 72.994 287.037 78.5005 287.201C81.905 286.69 81.8975 285.923 83.216 282.945L83.683 282.91Z" fill="#FE1F11"/>
<path d="M83.6835 282.91C88.434 283.099 96.3215 282.771 99.8415 285.846L98.5285 287.934C95.0955 287.149 83.5845 287.684 78.501 287.201C81.9055 286.69 81.898 285.923 83.2165 282.945L83.6835 282.91Z" fill="#764157"/>
<path d="M72.8228 233.58L72.7998 231.999C74.3223 229.045 79.3508 229.053 82.1508 229.885C84.2688 231.061 86.0373 232.252 88.3928 232.715L89.4183 231.906C90.5753 231.86 91.7628 231.773 92.9118 231.87C90.1918 233.222 87.6243 234.899 88.0928 238.203L88.7273 238.555C90.8228 237.618 92.4823 236.211 94.2753 236.315C95.4238 238.427 94.8123 240.506 94.2993 242.843C90.8863 241.807 92.6983 240.081 88.1693 243.652C85.2878 245.757 86.1243 247.806 83.6338 249.389L83.0533 249.128L82.7403 248.103C83.8478 240.104 84.5803 229.285 72.8228 233.58Z" fill="#D3C2B6"/>
<path d="M88.7471 247.771C89.6676 245.825 89.2121 245.99 90.7426 245.178C95.4601 246.796 91.1591 252.607 88.1156 254.557C87.9591 252.168 88.3801 250.13 88.7471 247.771Z" fill="#B4AFAD"/>
<path d="M58.3734 284.79C65.3389 283.816 76.2864 282.567 83.2159 282.946C81.8974 285.923 81.9049 286.69 78.5004 287.201C72.9939 287.037 62.7324 287.776 57.4224 289.298L54.4394 289.991L51.5044 290.499C49.5139 290.849 42.3184 292.247 40.7019 292.266C38.3674 292.823 36.0594 293.197 33.9999 294.371C32.5239 294.459 32.4594 294.459 31.0054 294.206C29.8879 292.622 30.3049 292.248 30.3879 289.973L30.8519 289.916C33.5489 289.165 34.2289 289.132 37.0269 289.002L37.0979 288.623C44.2349 287.61 51.3319 286.332 58.3734 284.79Z" fill="#AC6751"/>
<path d="M30.8519 289.915C33.5489 289.164 34.2289 289.131 37.0269 289.002L37.0619 289.868L35.8094 290.529L35.9669 291.306C37.8469 292.073 38.7019 292.075 40.7019 292.266C38.3674 292.823 36.0594 293.196 33.9999 294.371C32.5239 294.459 32.4594 294.459 31.0054 294.206C29.8879 292.621 30.3049 292.247 30.3879 289.972L30.8519 289.915Z" fill="#764157"/>
<path d="M30.8518 289.916C30.7803 286.664 30.4673 282.929 31.5503 279.884C34.7518 281.499 32.3563 287.18 37.0978 288.623L37.0268 289.002C34.2288 289.132 33.5488 289.165 30.8518 289.916Z" fill="#7994AF"/>
<path d="M90.8386 165.469C97.3726 165.427 110.985 164.326 115.624 168.699C117.02 170.015 117.005 171.89 117.135 173.72C120.677 189.672 125.001 207.247 128.102 223.089C127.729 227.836 125.181 227.983 126.76 231.373C123.879 233.123 121.209 241.519 118.288 245.508L116.936 248.757C111.724 259.946 104.356 274.675 99.8406 285.846C96.3206 282.772 88.4331 283.1 83.6826 282.911C85.7056 275.612 89.0801 269.764 92.3141 262.97C91.9866 259.207 99.4706 250.998 100.086 245.993C99.7036 244.133 99.2611 243.974 97.7481 242.628C98.6761 237.339 99.0881 233.2 92.9116 231.87C91.7626 231.773 90.5751 231.86 89.4181 231.906C91.1816 229.779 89.4196 231.957 92.9801 230.32L92.4781 230.329C98.7576 227.809 102.793 227.306 109.175 225.553C112.898 224.531 116.428 222.908 120.556 221.749C120.751 219.328 112.549 205.545 110.955 202.652L91.9071 167.849L90.8386 165.469Z" fill="#7087A0"/>
<path d="M89.4189 231.906C91.1824 229.779 89.4204 231.957 92.9809 230.32L92.4789 230.329C98.7584 227.809 102.794 227.306 109.176 225.553C112.898 224.531 116.428 222.908 120.557 221.749C111.164 231.19 105.978 240.058 98.9194 251.261C97.6824 253.224 93.3684 261.895 92.3149 262.97C91.9874 259.207 99.4714 250.998 100.087 245.993C99.7044 244.133 99.2619 243.974 97.7489 242.628C98.6769 237.339 99.0889 233.2 92.9124 231.87C91.7634 231.773 90.5759 231.86 89.4189 231.906Z" fill="#C3B5AF"/>
<path d="M90.8389 165.469C97.3729 165.427 110.985 164.326 115.624 168.699C117.02 170.015 117.005 171.89 117.135 173.72C115.853 170.174 115.998 169.514 112.003 168.925C105.604 167.982 98.8529 168.816 92.4729 167.931L91.9074 167.849L90.8389 165.469Z" fill="#62536A"/>
<path d="M118.288 245.508C119.534 240.008 125.279 228.053 128.102 223.089C127.729 227.836 125.181 227.982 126.761 231.373C123.88 233.123 121.21 241.519 118.288 245.508Z" fill="#747B79"/>
<path d="M101.224 222.51C105.222 222.223 109.227 222.049 113.234 221.989C108.525 223.909 93.3276 225.845 87.5321 227.03C85.4031 227.466 79.5381 226.921 78.0746 227.81C79.6336 228.44 81.0796 228.954 82.6631 229.501L82.6601 229.747L82.1511 229.885C79.3511 229.053 74.3226 229.045 72.8001 231.999L72.8231 233.58C84.5806 229.285 83.8481 240.104 82.7406 248.103C81.9276 251.68 79.5071 259.532 75.0876 259.725C72.2616 257.756 71.7196 251.59 71.4451 248.397C70.5071 246.186 72.7311 245.316 72.3926 242.911C70.9376 241.501 70.2361 242.406 68.1331 240.893L67.7326 242.274L67.2806 241.798C67.3681 239.976 67.4446 238.153 67.5096 236.33L67.5921 236.727C66.7286 237.613 64.2771 251.384 64.0836 253.41C61.3106 253.249 60.7506 253.589 56.0211 253.346C48.3661 252.953 38.6901 254.209 30.9171 254.765C30.6291 254.447 30.3411 254.129 30.0536 253.811L29.9131 239.439C32.3171 238.661 37.8916 237.038 39.4801 235.273C39.0646 234.58 38.7741 234.04 38.4086 233.319L39.6271 233.222L40.8866 232.715C45.3781 229.267 58.1831 226.213 63.8486 226.046C66.7006 226.289 76.5366 224.642 79.9976 224.184C87.0361 223.229 94.1226 222.671 101.224 222.51Z" fill="#D2C5BE"/>
<path d="M63.8486 226.046C66.7006 226.288 76.5366 224.641 79.9976 224.184C87.0361 223.229 94.1226 222.671 101.224 222.51C94.8746 224.425 68.9636 229.681 63.8486 226.046Z" fill="#FEF7C4"/>
<path d="M56.762 228.706C53.5915 230.189 43.561 234.49 40.4345 233.865L39.627 233.222L40.8865 232.715C45.969 231.909 51.6465 229.972 56.762 228.706Z" fill="#A4A4A0"/>
<path d="M40.8661 236.266C42.1951 238.723 41.8511 245.519 40.9736 248.188C40.0731 245.15 40.5761 239.499 40.8661 236.266Z" fill="#B4AFAD"/>
<path d="M31.251 125.058C42.8643 125.245 58.3787 122.364 68.1406 126.862C71.9301 131.141 73.5802 136.933 76.6777 140.05C66.5207 142.307 56.2049 143.201 46.5469 145.295L46.1445 147.068C45.0785 146.627 44.5363 145.674 44.5283 145.674C36.9112 145.623 18.6396 144.515 12.0986 144.522C12.3236 143.339 12.4879 141.072 12.6152 139.271L12.7314 137.685C12.878 136.895 12.955 135.191 13.0117 133.885L13.0635 132.76L13.1777 131.437L13.7471 125.564L20.8926 125.49C24.7508 125.488 27.3813 125.478 31.25 125.058C31.1115 125.043 30.9758 125.031 30.8428 125.021C30.9761 125.031 31.1121 125.042 31.251 125.058ZM9.16992 132.963H9.16895H9.16992ZM30.7764 125.017C30.7984 125.018 30.8206 125.02 30.8428 125.021C30.7827 125.017 30.7231 125.015 30.6641 125.012C30.7013 125.014 30.7388 125.014 30.7764 125.017Z" fill="#FE1F11"/>
<path d="M76.8389 140.613C79.0979 143.139 89.2384 161.852 90.8394 165.469L91.9079 167.849L110.956 202.652C112.55 205.545 120.751 219.328 120.557 221.749C116.428 222.908 112.898 224.531 109.176 225.553C102.794 227.306 98.7584 227.809 92.4789 230.329L92.9809 230.32C89.4204 231.957 91.1824 229.779 89.4189 231.906L88.3934 232.715C86.0379 232.252 84.2694 231.061 82.1514 229.885L82.6604 229.747L82.6634 229.501C81.0799 228.954 79.6339 228.44 78.0749 227.81C79.5384 226.921 85.4034 227.466 87.5324 227.03C93.3279 225.845 108.525 223.909 113.234 221.989L119.499 221.281C108.49 202.004 97.8724 182.505 87.6524 162.798C85.4219 158.544 77.7294 144.435 76.8389 140.613Z" fill="#E5CEBB"/>
<path d="M80.7441 190.573C82.3931 185.836 84.5561 181.558 90.4711 183.759C95.5181 187.541 96.7936 191.666 97.6826 197.832C97.9206 199.386 98.0766 200.952 98.1491 202.522C97.1586 202.866 96.3631 203.236 95.3206 203.23C95.0416 201.417 94.8246 201.034 94.1016 199.311C85.9761 206.199 82.7066 197.172 80.7441 190.573Z" fill="#CEA179"/>
<path d="M90.4716 183.76C95.5186 187.542 96.7941 191.666 97.6831 197.833C97.9211 199.387 98.0771 200.952 98.1496 202.522C97.1591 202.866 96.3636 203.237 95.3211 203.23C95.0421 201.418 94.8251 201.034 94.1021 199.312C93.6781 199.126 93.1871 198.91 92.6291 198.666C92.4191 193.652 94.1156 193.709 90.7061 189.442C89.1336 187.6 88.7366 187.61 86.5726 188.215C85.1986 187.868 84.4776 187.653 83.9346 186.412C85.3046 184.272 88.1731 184.055 90.4716 183.76Z" fill="#A38D79"/>
<path d="M86.5727 188.215C88.7367 187.609 89.1337 187.599 90.7062 189.442C91.7147 192.299 92.5702 194.024 91.2672 196.896C89.8282 198.071 90.6222 197.809 88.8332 197.791C85.0477 195.873 84.7387 191.702 86.5727 188.215Z" fill="#FDFCFA"/>
<path d="M74.6047 202.951C63.4687 213.19 56.1182 183.863 71.1657 187.316C78.6537 192.585 79.4237 201.11 79.0027 209.685C77.9852 209.819 77.9862 209.736 76.9882 209.42C74.9682 207.036 77.6872 205.103 74.4782 202.479L74.6047 202.951Z" fill="#F9D19D"/>
<path d="M71.1652 187.315C78.6532 192.584 79.4232 201.11 79.0022 209.684C77.9847 209.819 77.9857 209.736 76.9877 209.42C74.9677 207.035 77.6867 205.103 74.4777 202.479C72.8107 200.396 75.5397 198.523 73.1742 195.187C71.4432 192.15 71.0347 191.893 68.0142 190.506L65.6207 192.629L64.3857 191.717L64.4132 190.515C66.0192 188.272 68.6337 187.746 71.1652 187.315Z" fill="#CEA179"/>
<path d="M68.0148 190.506C71.0353 191.894 71.4438 192.15 73.1748 195.188C73.0918 197.806 73.3118 199.696 71.6833 201.669C69.9033 201.97 70.0968 201.936 68.2268 201.044C67.9933 200.455 67.7773 199.859 67.5783 199.257C66.4808 195.972 66.4433 193.575 68.0148 190.506Z" fill="#FDFCFA"/>
<path d="M65.6212 192.629L68.0147 190.506C66.4432 193.575 66.4807 195.972 67.5782 199.257C67.7772 199.859 67.9932 200.455 68.2267 201.044C66.7342 201.073 66.7872 201.107 65.3982 200.607C62.8037 197.98 63.8372 195.422 65.6212 192.629Z" fill="#B4AFAD"/>
<path d="M94.1022 199.312C94.8252 201.034 95.0422 201.418 95.3212 203.23C96.3637 203.237 97.1592 202.866 98.1497 202.522C98.0712 210.619 90.9817 214.223 85.9852 208.98C85.3937 207.305 85.3162 207.851 85.7372 206.391C90.8362 204.982 89.5187 207.655 92.5437 207.779C94.2512 205.791 94.0237 201.935 94.1022 199.312Z" fill="#CEA179"/>
<path d="M74.4783 202.479C77.6873 205.103 74.9683 207.036 76.9883 209.42C77.9863 209.736 77.9853 209.819 79.0028 209.685C77.0468 215.181 69.9963 217.395 67.2158 210.66C69.2758 209.32 71.9818 212.065 75.1168 209.331C75.9023 207.201 75.3448 205.032 74.6048 202.951L74.4783 202.479Z" fill="#F9D19D"/>
<path d="M553.14 208.182C553.48 208.22 554.805 208.341 555.045 208.423C558.245 209.154 558.07 209.376 561.26 208.351C562.05 208.642 562.37 208.628 562.895 209.14L563.615 215.548C567.205 214.872 565.715 214.521 569.99 214.554C571.46 214.267 572.22 213.801 573.575 213.142L576.6 213.116L577.035 213.102L577.74 214.494C577.79 216.566 577.465 216.997 578.485 218.563L579.45 219.02C580.615 221.379 580.58 220.477 579.975 222.529C578.2 224.104 578.4 224.34 578.9 226.645C577.74 229.968 574.44 229.488 571.93 230.296C573.04 230.876 572.73 230.557 573.47 231.472C572.11 233.296 571.76 233.049 570.975 233.945L570.665 234.124L571.305 235.077L570.965 235.815C569.42 235.841 566.095 235.376 565.18 235.897L564.89 236.865L564.675 236.829C564.66 239.094 564.56 241.812 564.625 244.034C563.95 245.75 564.415 245.313 563.02 245.985L561.39 245.608C561.215 243.219 560.645 243.838 560.925 240.54L560.88 240.168C559.77 240.712 559.055 240.332 557.56 240.135C551.825 238.433 545.88 236.974 540.29 234.905C534.22 233.317 516.56 232.09 510.34 232.47C496.075 232.53 484.055 234.759 470.135 238.036C458.665 232.884 428.947 246.437 418.432 252.845C417.878 252.857 413.872 252.746 413.715 252.839C407.426 256.559 396.358 258.92 390.53 262.42C390.883 263.35 390.723 263.06 391.32 263.816L391.151 264.558C393.426 266.489 401.613 268.535 404.73 269.172C406.361 270.821 409.786 274.078 411.142 275.722C416.24 280.835 421.183 286.747 426.205 291.682C425.009 291.873 423.744 292.122 422.542 292.158C378.992 290.25 334.815 293.707 291.259 295.444C241.385 297.686 191.508 299.925 141.64 302.305C129.827 302.869 118.119 309.347 107.111 313.179C107.739 312.96 97.2371 311.728 95.8486 311.739L91.3171 307.977C89.5061 309.052 88.4331 309.98 86.3811 309.916L85.6701 309.273C85.7056 308.606 86.0206 306.521 85.5556 306.133C83.5926 304.493 26.4836 297.125 20.0871 296.197C14.3221 295.361 6.6191 295.258 1.3125 293.054C6.2206 292.832 23.5756 294.812 28.6676 295.693C29.7226 293.583 28.7496 292.092 29.9046 289.106L30.3881 289.973C30.3051 292.248 29.8881 292.622 31.0056 294.206C32.4596 294.459 32.5241 294.459 34.0001 294.371L50.5121 293.618L58.2546 293.503C66.5196 293.763 75.2321 293.785 83.4826 293.142C89.0536 292.134 94.0806 291.524 98.5281 287.934L99.8411 285.846C104.356 274.675 111.725 259.946 116.936 248.757L118.288 245.508C121.21 241.519 123.88 233.123 126.761 231.373C129.473 236.272 134.614 244.921 136.758 249.587C143.52 262.937 150.044 270.186 166.435 270.533C170.338 271.634 178.278 271.902 182.286 271.438C248.425 263.792 315.616 258.144 381.387 247.967C398.56 245.217 415.645 241.938 432.617 238.138C448.729 234.594 464.68 229.992 480.7 225.967C492.1 223.102 510.01 215.244 521.64 215.607C521.49 214.281 521.365 214.892 522.05 213.717L524.41 213.288L524.35 212.923C527.41 212.653 544.435 209.672 547.1 208.959L547.645 209.001L548 209.259C549.38 209.159 551.71 208.522 553.14 208.182Z" fill="#FEF9DC"/>
<path d="M296.095 273.719C296.06 272.337 295.832 270.871 296.543 269.762C299.901 268.916 306.61 268.613 310.079 268.883L311.027 271.114L312.402 271.576L312.878 271.15L313.283 271.865C313.947 270.96 314.294 270.666 315.073 269.881C311.428 278.987 315.305 296.817 328.065 285.44C328.376 285.676 328.687 285.912 328.998 286.148C334.542 285.702 340.135 285.514 345.676 285.084C366.236 283.48 386.799 283.703 407.398 283.473C414.618 283.393 414.726 283.788 420.697 287.334C417.939 284.013 412.931 279.74 411.142 275.722C416.24 280.834 421.183 286.746 426.205 291.681C425.009 291.872 423.744 292.121 422.542 292.158C378.992 290.249 334.815 293.706 291.259 295.443C241.385 297.686 191.508 299.924 141.64 302.304C129.827 302.868 118.119 309.346 107.111 313.178C107.739 312.96 97.2371 311.727 95.8486 311.738L91.3171 307.977C89.5061 309.051 88.4331 309.98 86.3811 309.916L85.6701 309.273C85.7056 308.605 86.0206 306.52 85.5556 306.132C83.5926 304.493 26.4836 297.124 20.0871 296.197C14.3221 295.361 6.6191 295.258 1.3125 293.053C6.2206 292.831 23.5756 294.812 28.6676 295.693C29.7226 293.583 28.7496 292.091 29.9046 289.105L30.3881 289.972C30.3051 292.247 29.8881 292.621 31.0056 294.206C32.4596 294.459 32.5241 294.459 34.0001 294.371L50.5121 293.617L58.2546 293.502C66.5196 293.762 75.2321 293.784 83.4826 293.141L83.1076 294.022C81.2801 294.517 81.2716 294.308 80.6341 296.433L81.2686 297.388C84.1806 299.184 98.9101 295.861 102.749 295.363C132.862 291.453 163.075 291.502 193.187 288.498C197.24 288.094 208.662 288.866 211.098 286.567C210.872 285.178 210.923 284.752 210.99 283.39C211.58 274.917 219.948 273.677 223.959 280.456C224.99 279.07 224.593 279.159 225.947 278.707C227.311 280.01 227.182 280.629 228.066 282.13L228.113 285.242C228.709 288.798 228.656 293.706 230.931 295.665C232.526 295.677 231.921 295.97 232.91 295.01L232.963 293.515C240.788 291.923 256.549 293.527 263.145 290.994C263.172 289.377 263.105 289.423 263.846 288.026C265.25 287.499 264.542 287.547 266.046 287.952L266.354 288.788L264.497 289.05L264.085 289.808C265.63 293.201 270.871 292.95 273.945 291.873C274.804 291.572 275.663 290.688 276.489 290.387C276.91 286.988 276.02 285.937 274.404 282.963L274.768 282.137C275.611 279.377 275.649 277.795 274.895 275.048C275.738 274.254 276.082 273.737 277.218 273.626C278.116 274.106 278.377 274.344 279.406 274.231C278.959 272.597 278.876 273.136 279.279 271.654C282.163 270.134 289.137 270.237 292.652 270.119C295.255 271.097 295.157 270.99 296.095 273.719Z" fill="#F9D19D"/>
<path d="M210.99 283.391C211.983 284.871 211.973 285.019 212.391 286.791C215.453 289.905 220.662 287.693 222.242 291.159C220.337 298.64 215.326 292.245 213.582 292.817C211.556 292.31 212.834 292.611 211.6 292.737C184.491 295.493 156.732 295.768 129.558 297.434C113.301 298.43 97.604 300.624 81.2965 300.617C80.4265 299.656 80.4955 298.071 80.374 296.693L80.634 296.434L81.2685 297.388C84.1805 299.184 98.91 295.862 102.749 295.363C132.862 291.454 163.075 291.503 193.187 288.499C197.24 288.094 208.662 288.866 211.098 286.567C210.872 285.179 210.923 284.753 210.99 283.391Z" fill="#FEF7C4"/>
<path d="M296.095 273.719C296.059 272.337 295.831 270.871 296.543 269.762C299.901 268.916 306.61 268.613 310.079 268.883L311.027 271.114L312.401 271.576L312.878 271.15L313.282 271.865C313.304 275.491 314.329 280.792 310.808 282.725C310.481 292.77 299.631 292.406 297.91 286.505C300.754 283.987 303.844 290.009 306.733 286.921C307.548 284.743 307.26 282.749 307.141 280.419C303.484 277.207 302.068 280.498 297.23 280.707C296.702 280.026 296.547 275.928 296.097 274.392L296.095 273.719Z" fill="#A38D79"/>
<path d="M310.079 268.884L311.027 271.114L312.402 271.577L312.878 271.15L313.283 271.865C313.305 275.491 314.329 280.793 310.809 282.725C308.2 272.01 303.626 278.499 299.714 275.837C299.315 273.86 299.27 274.672 299.885 272.752C303.488 270.26 308.227 274.438 310.079 268.884Z" fill="#FDFCFA"/>
<path d="M28.668 295.693C29.723 293.583 28.75 292.091 29.905 289.105L30.3885 289.972C30.3055 292.247 29.8885 292.621 31.006 294.206C32.46 294.459 32.5245 294.459 34.0005 294.371L50.5125 293.617L58.255 293.502C66.52 293.762 75.2325 293.784 83.483 293.141L83.108 294.022C81.2805 294.517 81.272 294.308 80.6345 296.433L80.3745 296.693C76.338 295.173 74.091 297.326 71.3635 299.526C64.5225 300.011 35.0085 297.565 28.668 295.693Z" fill="#FFF7CB"/>
<path d="M210.99 283.391C211.58 274.917 219.948 273.678 223.959 280.456C224.99 279.07 224.593 279.159 225.947 278.707C227.311 280.011 227.182 280.63 228.066 282.131L228.113 285.242C226.86 288.465 223.779 287.255 220.676 286.907C231.3 290.893 221.479 301.223 212.609 294.16L212.458 293.238L213.582 292.817C215.326 292.245 220.337 298.64 222.242 291.159C220.662 287.693 215.453 289.905 212.391 286.791C211.973 285.019 211.983 284.871 210.99 283.391Z" fill="#8D7C6A"/>
<path d="M223.959 280.456C224.99 279.07 224.593 279.159 225.947 278.707C227.311 280.011 227.182 280.63 228.066 282.131L228.113 285.242C226.86 288.465 223.779 287.255 220.676 286.907C217.942 287.103 215.364 286.441 213.751 284.126C213.661 282.828 213.457 282.831 214.128 281.648C216.629 277.236 219.656 280.439 222.497 282.016L223.511 281.678L223.959 280.456Z" fill="#FDFCFA"/>
<path d="M292.652 270.119C295.255 271.097 295.157 270.99 296.095 273.719L296.098 274.392C296.548 275.928 296.702 280.026 297.23 280.707C302.068 280.498 303.484 277.207 307.141 280.419C306.883 282.085 306.845 283.533 305.918 284.89C303.365 285.654 299.578 283.709 297.814 283.884C293.776 284.284 292.76 287.551 288.396 283.707C288.979 282.584 289.163 281.631 289.483 280.416C291.127 276.618 292.533 274.231 292.652 270.119Z" fill="#FEF7C4"/>
<path d="M292.652 270.119C295.254 271.097 295.157 270.99 296.095 273.719L296.097 274.392C295.963 277.178 296.273 279.073 294.825 281.289C292.818 281.974 291.236 281.676 289.482 280.416C291.126 276.618 292.532 274.231 292.652 270.119Z" fill="#FDFCFA"/>
<path d="M274.895 275.048C275.738 274.254 276.082 273.737 277.218 273.626C278.116 274.106 278.377 274.344 279.406 274.231C282.36 273.81 285.519 273.632 288.511 273.408C287.363 276.25 285.894 280.221 284.473 282.836C280.979 282.336 277.327 283.599 274.768 282.137C275.611 279.377 275.649 277.795 274.895 275.048Z" fill="#FDFCFA"/>
<path d="M279.405 274.231C278.959 272.597 278.875 273.136 279.278 271.654C282.162 270.134 289.137 270.237 292.652 270.119C292.532 274.231 291.126 276.618 289.482 280.416C289.163 281.631 288.978 282.584 288.395 283.707C287.24 286.842 286.173 291.783 282.082 291.811C281.514 289.227 289.799 278.357 288.511 273.408C285.519 273.632 282.359 273.81 279.405 274.231Z" fill="#A38D79"/>
<path d="M274.768 282.137C277.327 283.599 280.979 282.336 284.473 282.836C283.37 286.132 281.312 292.745 276.489 290.387C276.91 286.988 276.02 285.937 274.404 282.963L274.768 282.137Z" fill="#FEF7C4"/>
<path d="M94.8342 309.481C93.5947 308.22 92.9911 307.798 92.3271 306.208C95.0201 304.585 113.736 303.692 116.624 306.543C115.828 311.13 105.214 310.82 101.581 310.771C98.6347 310.905 97.2877 311.069 94.8342 309.481Z" fill="#FFEAAE"/>
<path d="M94.8336 309.482L94.3906 307.027C96.3051 306.723 101.749 307.359 103.052 308.943L102.931 309.847L101.58 310.772C98.6341 310.905 97.2871 311.07 94.8336 309.482Z" fill="#FEF7C4"/>
<path d="M553.14 208.182C553.48 208.22 554.805 208.341 555.045 208.423C555.195 210.372 555.425 215.346 555.73 217.044L556.1 221.92C556.47 226.527 556.7 230.101 556.475 234.794C549.79 231.121 546.165 227.983 538.89 224.832C533.63 222.914 526.21 219.553 522.18 215.845L521.64 215.607C521.49 214.281 521.365 214.892 522.05 213.717L524.41 213.288L524.35 212.923C527.41 212.653 544.435 209.672 547.1 208.959L547.645 209.001L548 209.259C549.38 209.159 551.71 208.522 553.14 208.182Z" fill="#3C3C3F"/>
<path d="M522.18 215.845C528.125 212.503 544.91 221.183 549.995 224.49L550.415 225.467C549.595 226.773 541.215 225.176 538.89 224.832C533.63 222.913 526.21 219.553 522.18 215.845Z" fill="#212835"/>
<path d="M547.645 209L548 209.259L548.06 212.214C548.105 214.296 548.5 217.194 547.435 218.745C541.305 215.366 531.475 214.248 524.41 213.288L524.35 212.923C527.41 212.652 544.435 209.671 547.1 208.959L547.645 209Z" fill="#7087A0"/>
<path d="M553.14 208.182C553.48 208.22 554.805 208.341 555.045 208.423C555.195 210.372 555.425 215.346 555.73 217.044L556.1 221.92L555.45 222.007C551.25 222.547 550.15 221.947 547.435 218.745C548.5 217.195 548.105 214.296 548.06 212.214L548 209.259C549.38 209.159 551.71 208.522 553.14 208.182Z" fill="#2F3B4B"/>
<path d="M553.14 208.182C553.48 208.22 554.805 208.341 555.045 208.423C555.195 210.372 555.425 215.346 555.73 217.044L556.1 221.92L555.45 222.007C554.305 220.968 553.37 220.761 552.245 219.632C552.63 216.065 552.86 211.806 553.14 208.182Z" fill="#8D7C6A"/>
<path d="M548.06 212.214C548.57 215.349 548.465 218.39 550.92 220.273C552.055 220.053 551.695 220.356 552.245 219.632C553.37 220.76 554.305 220.968 555.45 222.006C551.25 222.546 550.15 221.947 547.435 218.745C548.5 217.194 548.105 214.296 548.06 212.214Z" fill="#625952"/>
<path d="M576.6 213.116L577.035 213.102L577.74 214.494C577.79 216.566 577.465 216.997 578.485 218.563L579.45 219.02C580.615 221.379 580.58 220.477 579.975 222.529C578.2 224.104 578.4 224.34 578.9 226.645C577.74 229.968 574.44 229.488 571.93 230.296C573.04 230.876 572.73 230.557 573.47 231.472C572.11 233.296 571.76 233.049 570.975 233.945L570.665 234.124L571.305 235.077L570.965 235.815C569.42 235.841 566.095 235.376 565.18 235.897L564.89 236.865L564.675 236.829C564.6 233.262 564.52 230.997 564.04 227.484L564.025 226.042L564.05 222.168L563.615 215.548C567.205 214.872 565.715 214.521 569.99 214.554C571.46 214.267 572.22 213.801 573.575 213.142L576.6 213.116Z" fill="#AC6751"/>
<path d="M564.05 222.167C564.79 222.008 565.39 221.94 566.06 221.615C566.07 222.705 566.175 226.139 566.05 227.031C567.82 228.164 569.975 229.74 571.93 230.295C573.04 230.875 572.73 230.557 573.47 231.472C572.11 233.295 571.76 233.048 570.975 233.944L570.665 234.123L571.305 235.077L570.965 235.815C569.42 235.841 566.095 235.375 565.18 235.897L564.89 236.865L564.675 236.829C564.6 233.262 564.52 230.997 564.04 227.483L564.025 226.041L564.05 222.167Z" fill="#3C3C3F"/>
<path d="M564.05 222.167C564.79 222.008 565.39 221.94 566.06 221.615C566.07 222.705 566.175 226.139 566.05 227.031C564.685 228.162 565.115 227.635 564.62 229.598C565.64 232.922 567.465 233.25 570.665 234.123L571.305 235.077L570.965 235.815C569.42 235.841 566.095 235.375 565.18 235.897L564.89 236.865L564.675 236.829C564.6 233.262 564.52 230.997 564.04 227.483L564.025 226.041L564.05 222.167Z" fill="#764157"/>
<path d="M569.99 214.554C571.46 214.267 572.22 213.801 573.575 213.142C573.37 214.576 572.94 219.111 572.375 220.241C571.575 221.842 566.795 221.258 566.06 221.616C565.39 221.941 564.79 222.008 564.05 222.168L563.615 215.548C567.205 214.872 565.715 214.521 569.99 214.554Z" fill="#3A2727"/>
<path d="M573.78 221.87C575.475 222.961 575.365 223.235 575.615 225.009C574.865 226.836 575.375 226.293 573.81 227.292C571.89 227.122 572.62 227.405 571.055 225.795C569.405 226.204 569.195 225.822 568.135 224.723L568.315 223.556C570.695 223.342 571.82 223.437 573.78 221.87Z" fill="#C2705F"/>
<path d="M259.118 284.419C259.532 285.301 259.413 285.051 260.083 285.797C263.473 286.133 267.362 285.748 269.217 282.663C270.313 285.307 271.476 284.593 273.051 287.457C273.3 290.603 268.878 291.029 266.354 288.788L266.046 287.953C264.542 287.547 265.25 287.499 263.846 288.027C263.105 289.424 263.172 289.378 263.144 290.995C256.548 293.527 240.788 291.923 232.963 293.516C232.608 292.47 232.366 291.204 232.119 290.114C233.128 286.834 237.16 288.727 240.815 284.654C241.665 285.005 242.451 285.275 243.314 285.581C244.512 284.966 244.552 284.774 245.402 283.759C248.89 283.641 256.667 282.257 258.87 283.736L259.118 284.419Z" fill="#FEF7C4"/>
<path d="M245.402 283.759C248.89 283.64 256.667 282.256 258.871 283.736L259.118 284.418C258.106 286.913 247.884 287.098 245.807 285.893L245.402 283.759Z" fill="#A38D79"/>
<path d="M555.045 208.423C558.245 209.154 558.07 209.376 561.26 208.351C562.05 208.642 562.37 208.628 562.895 209.14L563.615 215.548L564.05 222.168L564.025 226.042L564.04 227.484C564.52 230.997 564.6 233.262 564.675 236.829C564.66 239.094 564.56 241.812 564.625 244.034C563.95 245.75 564.415 245.313 563.02 245.985L561.39 245.608C561.215 243.219 560.645 243.838 560.925 240.54L560.88 240.168C559.77 240.712 559.055 240.332 557.56 240.135C551.825 238.433 545.88 236.974 540.29 234.905C549.625 234.007 554.375 240.19 559.045 238.36C561.745 234.672 559.72 228.546 558.84 224.605C558.24 221.913 559.555 217.126 557.845 214.828L557.06 214.85C556.36 215.501 556.135 216.179 555.73 217.044C555.425 215.346 555.195 210.372 555.045 208.423Z" fill="#FEF7C4"/>
<path d="M560.88 240.167C560.77 236.201 559.645 216.912 561.125 214.907C562.855 218.873 562.585 221.434 563.835 225.442L564.025 226.041L564.04 227.483C564.52 230.997 564.6 233.262 564.675 236.829C564.66 239.093 564.56 241.811 564.625 244.033C563.95 245.75 564.415 245.312 563.02 245.984L561.39 245.607C561.215 243.218 560.645 243.838 560.925 240.539L560.88 240.167Z" fill="#FDFCFA"/>
<path d="M564.04 227.483C564.52 230.997 564.6 233.262 564.675 236.829C564.66 239.093 564.56 241.811 564.625 244.033C563.95 245.75 564.415 245.312 563.02 245.984L561.39 245.607C561.215 243.218 560.645 243.838 560.925 240.539C562.115 240.698 562.24 240.636 563.39 240.491C564.935 238.529 563.95 230.904 564.04 227.483Z" fill="#B4AFAD"/>
<path d="M315.073 269.881C319.396 266.671 326.683 266.623 326.545 273.165C323.242 273.899 320.303 267.904 317.398 272.481C316.367 274.107 316.368 275.337 316.838 277.097L317.673 277.993C323.35 278.129 328.532 276.911 328.064 285.44C315.304 296.817 311.428 278.987 315.073 269.881Z" fill="#A38D79"/>
<path d="M320.6 280.165C322.216 279.82 323.837 280.728 324.387 282.286C324.937 283.844 324.246 285.568 322.772 286.315C321.633 286.892 320.263 286.758 319.257 285.97C318.252 285.182 317.794 283.884 318.082 282.64C318.369 281.396 319.351 280.431 320.6 280.165Z" fill="#FEF7C4"/>
<path d="M227.667 275.224C235.695 274.638 242.498 273.685 240.815 284.654C237.16 288.727 233.128 286.834 232.12 290.114C232.366 291.204 232.609 292.47 232.963 293.516L232.909 295.011C231.921 295.97 232.526 295.677 230.931 295.665C228.656 293.707 228.709 288.799 228.112 285.242L228.065 282.131L227.667 275.224Z" fill="#A38D79"/>
<path d="M231.039 278.026C236.021 277.729 240.446 278.425 237 284.507C234.566 284.881 233.245 285.432 231.334 284.126C230.558 282.367 230.931 280.047 231.039 278.026Z" fill="#FDFCFA"/>
<path d="M118.288 245.508C121.209 241.519 123.879 233.123 126.76 231.373C129.472 236.272 134.614 244.921 136.757 249.587C136.227 249.14 134.745 247.888 134.145 247.859C128.957 247.612 122.2 248.475 116.936 248.757L118.288 245.508Z" fill="#A4A4A0"/>
<path d="M269.217 282.663C273.538 280.943 274.589 275.683 268.823 275.026C266.829 275.447 266.215 277.211 264.347 278.476C262.845 278.376 263.389 278.696 262.535 277.738C264.234 270.166 270.103 270.649 274.895 275.048C275.649 277.795 275.611 279.377 274.768 282.137L274.404 282.963C276.02 285.937 276.91 286.988 276.489 290.388C275.663 290.689 274.804 291.572 273.945 291.873C270.871 292.95 265.63 293.201 264.085 289.808L264.497 289.05L266.354 288.788C268.879 291.028 273.3 290.602 273.051 287.457C271.476 284.592 270.313 285.307 269.217 282.663Z" fill="#A38D79"/>
<path d="M490.625 2.77945C497.495 1.00195 525.58 -5.04354 526.075 6.54546C515.095 2.29446 490.415 8.27346 479.81 12.889L481.24 9.31746C481.475 7.23996 482.115 5.64745 482.775 3.67195C485.31 3.24095 488.055 3.02845 490.625 2.77945Z" fill="#764157"/>
<path d="M482.775 3.67204C485.31 3.24104 488.055 3.02854 490.625 2.77954L491.2 3.38054C490.14 5.37904 483.76 9.10605 481.24 9.31755C481.475 7.24005 482.115 5.64754 482.775 3.67204Z" fill="#992736"/>
<path d="M524.35 212.923C526.29 210.371 544.145 207.176 547.1 208.959C544.435 209.672 527.41 212.653 524.35 212.923Z" fill="#7C9EBA"/>
<path d="M466.245 90.6135L466.685 91.058C464.615 92.38 458.68 94.3965 456.11 95.3525C455.23 95.045 455.58 95.32 455.075 94.509C456.47 92.483 463.555 91.251 466.245 90.6135Z" fill="#B4AFAD"/>
<path d="M547.745 207.158C561.99 205.514 575.159 203.589 589.669 203.069C651.769 200.844 715.759 209.372 773.599 232.713C783.984 236.905 804.57 246.201 811.935 254.567C814.205 257.843 815.56 259.34 813.5 263.247C803.45 276.627 745.185 284.75 741.465 288.721L739.984 290.115C738.299 291.299 732.154 294.571 729.799 295.851C725.569 295.173 717.574 293.542 714.099 293.034C711.154 292.604 699.545 294.31 695.835 294.744C687.225 295.734 678.595 296.582 669.96 297.288C651.8 298.633 633.614 299.559 615.414 300.062C607.249 300.265 597.565 300.662 589.58 300.315L588.625 300.216L587.57 298.553C585.655 294.736 582.765 291.128 580.62 286.606C579.735 285.943 575.45 278.345 574.635 276.945C574.235 276.453 573.03 274.215 572.645 273.535C570.59 271.406 567.33 263.816 565.005 260.886L563.76 261.335C562.845 260.398 563.285 260.486 562.32 260.324L561.555 262.082C561.4 263.089 561.2 264.747 560.965 265.672C556.86 263.173 560.524 259.26 554.674 255.872C555.494 254.076 556.409 252.608 557.414 250.921C556.819 247.38 551.04 244.215 552.7 240.903C554.105 239.863 555.7 240.137 557.56 240.135C559.055 240.332 559.77 240.712 560.88 240.168L560.924 240.54C560.644 243.838 561.215 243.219 561.39 245.608L563.02 245.985C564.415 245.313 563.95 245.75 564.625 244.034C564.56 241.812 564.659 239.094 564.674 236.829L564.89 236.865L565.18 235.897C566.095 235.376 569.42 235.841 570.965 235.815L571.305 235.077L570.664 234.124L570.974 233.945C571.759 233.049 572.109 233.296 573.469 231.472C572.729 230.557 573.04 230.876 571.93 230.296C574.44 229.488 577.74 229.968 578.9 226.645C578.4 224.34 578.199 224.104 579.974 222.529C580.579 220.477 580.615 221.379 579.45 219.02L578.484 218.563C577.464 216.997 577.79 216.566 577.74 214.494L577.034 213.102L576.599 213.116L573.575 213.142C572.22 213.801 571.46 214.267 569.99 214.554C565.715 214.521 567.205 214.872 563.615 215.548L562.895 209.14C562.37 208.628 562.05 208.642 561.26 208.351C558.07 209.376 558.244 209.154 555.044 208.423C554.804 208.341 553.48 208.22 553.14 208.182C551.71 208.522 549.38 209.159 548 209.259L547.645 209.001L547.745 207.158Z" fill="#FFFDCD"/>
<path d="M547.745 207.158C561.99 205.514 575.159 203.589 589.669 203.069C651.769 200.844 715.759 209.372 773.599 232.713C783.984 236.905 804.57 246.201 811.935 254.567L809 253.672C805.25 248.518 765.895 231.68 759.465 231.592L758.88 232.098C756.755 234.598 754.71 236.273 751.995 238.144C750.285 239.261 747.19 241.43 745.525 242.355C742.555 242.284 728.655 242.651 727.245 241.443C727.14 239.919 727.025 239.61 726.58 238.128C725.765 239.099 725.345 239.656 724.62 240.701L724.025 240.632C723.805 239.929 723.66 239.646 723.58 238.919C722.785 238.031 722.485 237.896 722.315 236.732C721.04 236.238 720.11 236.305 718.75 236.255C718.335 237.039 717.795 237.878 717.59 238.708C718 240.795 718.44 242.28 717.96 244.33L718.68 244.593C716.175 248.158 711.794 247.22 708.034 246.89L708.085 247.736C706.425 248.028 704.925 247.417 703.255 246.961C703.05 247.818 702.745 248.766 702.75 249.614C702.84 250.764 702.959 251.018 702.539 252.097L702.43 252.501L679.405 252.622C670.035 252.531 659.995 252.278 650.69 252.522L648.395 251.854L647.799 251.007C647.789 248.932 647.78 248.39 647.315 246.38L646.745 246.54L643.38 249.038C643.675 247.305 643.9 247.63 643.25 246.38L642.07 246.273C641.52 245.625 639.18 242.553 638.57 242.797C629.56 246.41 628.695 246.15 619.115 243.681L617.659 244.821L616.27 245.184C614.45 243.251 610.42 241.291 608.805 244.419C602.48 245.907 598.329 245.765 591.859 245.857C589.749 244.882 589.319 244.961 586.969 245.063L586.5 245.887L586.03 245.102C583.46 245.24 568.749 246.41 567.414 247.211C565.859 245.944 565.72 245.748 564.88 243.927L564.625 244.034C564.56 241.812 564.659 239.094 564.674 236.829L564.89 236.865L565.18 235.897C566.095 235.376 569.42 235.841 570.965 235.815L571.305 235.077L570.664 234.124L570.974 233.945C571.759 233.049 572.109 233.296 573.469 231.472C572.729 230.557 573.04 230.876 571.93 230.296C574.44 229.488 577.74 229.968 578.9 226.645C578.4 224.34 578.199 224.104 579.974 222.529C580.579 220.477 580.615 221.379 579.45 219.02L578.484 218.563C577.464 216.997 577.79 216.566 577.74 214.494L577.034 213.102L576.599 213.116L573.575 213.142C572.22 213.801 571.46 214.267 569.99 214.554C565.715 214.521 567.205 214.872 563.615 215.548L562.895 209.14C562.37 208.628 562.05 208.642 561.26 208.351C558.07 209.376 558.244 209.154 555.044 208.423C554.804 208.341 553.48 208.22 553.14 208.182C551.71 208.522 549.38 209.159 548 209.259L547.645 209.001L547.745 207.158Z" fill="#1D2A3B"/>
<path d="M621.19 227.389C623.305 227.504 623.085 227.142 624.335 228.236L624.57 228.922C626.185 231.562 625.415 229.238 627.08 230.753C629.12 233.815 628.12 232.174 630.355 233.675C633.535 234.319 634.035 234.209 636.06 236.743C637.36 237.443 636.8 237.296 638.595 236.836L638.82 236.976C639.165 235.733 639.29 235.648 639.96 234.587L640.87 234.502C642.145 235.5 642.41 235.652 644.02 235.829C645.185 232.848 645.285 233.637 648.26 233.618L649.335 232.372L651.555 233.19C652.82 234.39 655.3 235.062 657.015 235.427C659.425 236.459 659.805 236.504 662.375 236.774C663.175 236.184 663.36 235.696 663.88 234.84C664.06 236.853 663.715 236.647 664.785 237.871C666.39 238.007 667.31 238.085 668.875 238.414C671.32 240.99 674.385 242.9 677.775 243.965C678.05 245.016 678.06 244.513 677.785 245.527L676.23 245.991L676.855 249.42C679.585 249.904 679.51 249.562 679.405 252.622C670.035 252.531 659.995 252.277 650.69 252.522L648.395 251.853L647.8 251.006C647.79 248.932 647.78 248.39 647.315 246.379L646.745 246.539L643.38 249.037C643.675 247.305 643.9 247.63 643.25 246.379L642.07 246.273C641.52 245.624 639.18 242.553 638.57 242.796C629.56 246.409 628.695 246.15 619.115 243.681L617.66 244.82L616.27 245.184C614.45 243.251 610.42 241.29 608.805 244.418C602.48 245.906 598.33 245.765 591.86 245.857C589.75 244.881 589.32 244.961 586.97 245.062L588.9 243.661C594.385 244.502 612.8 242.51 615.69 238.329L615.555 237.068L616.46 237.155L616.095 236.364L616.18 235.052L615.34 232.795C615.075 231.298 614.845 229.903 614.65 228.396L615.195 227.774L616.595 228.137C617.565 227.802 620.05 227.545 621.19 227.389Z" fill="#625952"/>
<path d="M665.555 243.55C671.03 243.396 671.495 243.284 676.23 245.991L676.855 249.421C679.585 249.905 679.51 249.563 679.405 252.622C670.035 252.531 659.995 252.278 650.69 252.522L648.395 251.854L647.8 251.007C647.79 248.932 647.78 248.39 647.315 246.38C650.405 245.059 654.44 244.313 657.78 243.565C660.17 243.586 663.23 243.697 665.555 243.55Z" fill="#332B26"/>
<path d="M665.555 243.55C671.03 243.396 671.495 243.284 676.23 245.991L676.855 249.421C671.555 243.758 670.805 249.138 665.555 243.55Z" fill="#332F30"/>
<path d="M621.19 227.389C623.305 227.504 623.085 227.142 624.335 228.236L624.57 228.922C626.185 231.562 625.415 229.238 627.08 230.753C629.12 233.815 628.12 232.174 630.355 233.675C633.535 234.319 634.035 234.209 636.06 236.743C637.36 237.443 636.8 237.296 638.595 236.836L638.82 236.976L637.98 237.951C636.61 237.958 636.35 237.929 634.995 237.707L634.65 237.869C631.95 237.652 628.865 237.231 626.26 237.801C625.19 237.948 624.155 237.616 623.085 237.383C620.01 238.87 620.55 236.772 617.355 237.851L616.46 237.155L616.095 236.364L616.18 235.052L615.34 232.795C615.075 231.298 614.845 229.903 614.65 228.396L615.195 227.774L616.595 228.137C617.565 227.802 620.05 227.545 621.19 227.389Z" fill="#535C64"/>
<path d="M627.08 230.753C629.12 233.815 628.12 232.174 630.355 233.675C633.535 234.319 634.035 234.209 636.06 236.743C637.36 237.443 636.8 237.296 638.595 236.836L638.82 236.976L637.98 237.951C636.61 237.958 636.35 237.929 634.995 237.707L634.65 237.869C631.95 237.652 628.865 237.231 626.26 237.801C625.19 237.948 624.155 237.616 623.085 237.383C622.015 236.773 620.535 235.725 619.985 234.642C620.985 234.272 621.865 233.588 622.78 232.983C624.12 233.869 624.11 233.821 625.69 234.247L626.45 233.794C626.885 232.494 626.915 232.127 627.08 230.753Z" fill="#535C64"/>
<path d="M621.19 227.389C623.305 227.504 623.085 227.142 624.335 228.236L624.57 228.922C626.185 231.562 625.415 229.238 627.08 230.753C626.915 232.127 626.885 232.494 626.45 233.794L625.69 234.247C624.11 233.821 624.12 233.869 622.78 232.983C620.625 231.538 621.355 232.315 620.165 229.654L619.385 229.405L618.715 230.243L617.91 230.157L616.595 228.137C617.565 227.802 620.05 227.545 621.19 227.389Z" fill="#404851"/>
<path d="M616.18 235.052C616.545 233.539 616.545 232.984 617.48 231.802C618.845 232.333 619.045 233.203 619.985 234.642C620.535 235.725 622.015 236.773 623.085 237.383C620.01 238.87 620.55 236.772 617.355 237.852L616.46 237.155L616.095 236.364L616.18 235.052Z" fill="#56738D"/>
<path d="M638.82 236.976C639.165 235.733 639.29 235.648 639.96 234.587L640.87 234.502C642.145 235.5 642.41 235.652 644.02 235.829C644.715 237.5 644.145 236.959 645.635 237.654C648.27 237.081 649.11 236.235 651.565 235.552L651.974 236.075L651 237.087L651.34 238.44C653.655 239.526 656.635 238.663 657.59 239.715C654.895 242.39 653.164 241.941 649.039 242.114C646.159 242.524 619.695 243.086 617.145 242.637L617.575 241.973C619.565 241.312 629.065 241.602 632.365 241.433L637.039 241.146C636.154 238.944 636.255 239.006 634.65 237.869L634.995 237.707C636.35 237.929 636.609 237.958 637.979 237.951L638.82 236.976Z" fill="#6D5B49"/>
<path d="M638.82 236.976C639.165 235.733 639.29 235.648 639.96 234.587L640.87 234.502C642.145 235.5 642.41 235.652 644.02 235.829C644.715 237.5 644.145 236.959 645.635 237.654C648.27 237.081 649.11 236.235 651.565 235.552L651.975 236.075L651 237.087C646.83 238.283 641.615 237.438 640.84 241.334C639.2 241.929 638.93 241.664 637.04 241.146C636.155 238.944 636.255 239.006 634.65 237.869L634.995 237.707C636.35 237.929 636.61 237.958 637.98 237.951L638.82 236.976Z" fill="#625F5C"/>
<path d="M617.355 237.852C620.55 236.772 620.011 238.87 623.086 237.383C624.156 237.617 625.19 237.948 626.26 237.801C628.865 237.231 631.951 237.652 634.651 237.869C636.256 239.007 636.155 238.944 637.04 241.147L632.365 241.434C628.47 240.191 623.89 240.455 619.845 240.136C618.645 240.042 617.995 238.759 617.355 237.852Z" fill="#696968"/>
<path d="M649.77 242.498C652.705 242.48 655.095 242.266 657.78 243.564C654.44 244.312 650.405 245.058 647.315 246.379L646.745 246.539L645.94 245.819C646.295 244.357 648.1 243.677 649.77 242.498Z" fill="#4F5054"/>
<path d="M547.745 207.158C561.99 205.514 575.159 203.589 589.669 203.069C651.769 200.844 715.759 209.372 773.599 232.713C783.984 236.905 804.57 246.201 811.935 254.567L809 253.672C805.25 248.518 765.895 231.68 759.465 231.592C759.2 226.628 753.165 227.721 749.495 227.898C748.275 228.279 748.879 228.241 747.604 227.978C748.409 226.996 749.65 227.097 751.205 226.823L751.265 226.453C703.455 211.697 653.634 204.493 603.604 205.101C598.589 205.185 583.83 205.279 579.65 206.122C577.79 207.113 576.294 206.962 574.229 207.041L574.335 207.528L576.125 208.395C577.045 209.561 578.099 210.549 578.109 211.972C577.644 212.537 577.614 212.677 577.034 213.102L576.599 213.116L573.575 213.142C572.22 213.801 571.46 214.267 569.99 214.554C565.715 214.521 567.205 214.872 563.615 215.548L562.895 209.14C562.37 208.628 562.05 208.642 561.26 208.351C558.07 209.376 558.244 209.154 555.044 208.423C554.804 208.341 553.48 208.22 553.14 208.182C551.71 208.522 549.38 209.159 548 209.259L547.645 209.001L547.745 207.158Z" fill="#56738D"/>
<path d="M563.099 208.582L563.24 207.532C565.96 205.89 576.005 206.078 579.65 206.122C577.79 207.113 576.294 206.961 574.229 207.04L574.335 207.528L576.125 208.395C577.045 209.561 578.099 210.548 578.109 211.972C577.644 212.536 577.614 212.677 577.034 213.102L576.599 213.116L573.575 213.142C572.22 213.801 571.46 214.267 569.99 214.554C565.715 214.52 567.205 214.872 563.615 215.548L562.895 209.14L563.099 208.582Z" fill="#332F30"/>
<path d="M563.099 208.582C566.049 208.671 569.599 208.998 570.669 212.217C570.434 213.177 570.345 213.61 569.99 214.554C565.715 214.521 567.205 214.872 563.615 215.548L562.895 209.14L563.099 208.582Z" fill="#202126"/>
<path d="M576.125 208.395C577.045 209.561 578.1 210.549 578.11 211.972C577.645 212.537 577.615 212.677 577.035 213.102L576.6 213.116L574.89 212.167C574.575 210.551 575.205 210.148 576.125 208.395Z" fill="#202126"/>
<path d="M664.715 227.532C665.455 229.624 664.915 229.748 666.53 231.304C668.26 231.36 667.45 231.551 669.005 230.581C670.58 231.123 686.445 232.137 689.41 232.19L690.125 235.86C691.44 236.323 692.225 236.599 693.585 236.902C694.515 238.529 694.12 239.001 694.785 239.918L695.365 238.781C697.245 238.104 698.83 238.595 700.855 238.925C704.82 238.88 708.79 238.894 712.755 238.968L717.59 238.708C718 240.794 718.44 242.28 717.96 244.33L718.68 244.593C716.175 248.158 711.795 247.219 708.035 246.89L708.085 247.736C706.425 248.028 704.925 247.417 703.255 246.96C703.05 247.817 702.745 248.766 702.75 249.614C702.84 250.764 702.96 251.018 702.54 252.097L702.43 252.5L679.405 252.622C679.51 249.562 679.585 249.904 676.855 249.42L676.23 245.991L677.785 245.527C678.06 244.513 678.05 245.016 677.775 243.965C674.385 242.9 671.32 240.99 668.875 238.414C667.31 238.085 666.39 238.007 664.785 237.871C663.715 236.647 664.06 236.853 663.88 234.84C663.89 232.527 664.375 229.85 664.715 227.532Z" fill="#696968"/>
<path d="M664.715 227.532C665.455 229.624 664.915 229.748 666.53 231.304C668.26 231.36 667.45 231.551 669.005 230.581C670.58 231.123 686.445 232.137 689.41 232.19L690.125 235.86C691.44 236.323 692.225 236.599 693.585 236.902C694.515 238.529 694.12 239.001 694.785 239.918L694.24 240.638L693.19 239.601C689.78 238.027 686.85 238.403 683.125 238.494L681.4 238.423L675.92 238.435L668.875 238.414C667.31 238.085 666.39 238.007 664.785 237.871C663.715 236.647 664.06 236.853 663.88 234.84C663.89 232.527 664.375 229.85 664.715 227.532Z" fill="#404851"/>
<path d="M676.23 245.991L677.785 245.527C677.875 246.27 678.555 247.616 679.18 247.986C679.995 247.121 680.08 246.801 680.615 245.75C682.97 245.756 691.546 245.43 693.031 246.686L693.13 248.432C694.04 249.022 693.986 248.969 695.081 249.038C696.736 248.99 699.47 248.72 700.885 249.304L702.75 249.614C702.84 250.764 702.96 251.018 702.54 252.097L702.43 252.501L679.406 252.622C679.511 249.563 679.585 249.905 676.855 249.421L676.23 245.991Z" fill="#3C3C3F"/>
<path d="M700.885 249.303L702.75 249.614C702.84 250.764 702.96 251.018 702.54 252.097C700.63 252.014 700.46 251.971 699.36 250.577L699.62 249.865L700.885 249.303Z" fill="#332F30"/>
<path d="M712.42 243.474C714.34 243.614 716.215 243.592 717.96 244.33L718.68 244.593C716.175 248.158 711.795 247.22 708.035 246.89C708.295 245.866 708.455 245.644 708.895 244.702L709.105 244.513L709.025 243.53L712.42 243.474Z" fill="#696968"/>
<path d="M700.855 238.925C704.82 238.88 708.79 238.894 712.755 238.968L712.341 241.27C707.326 239.688 704.355 244.217 700.855 238.925Z" fill="#A38D79"/>
<path d="M712.755 238.968L717.59 238.708C718 240.795 718.44 242.28 717.96 244.33C716.215 243.591 714.34 243.614 712.42 243.474C712.515 243.197 712.83 242.823 713.02 242.559L715.095 242.422L715.08 241.092L714.465 240.566L712.715 241.595L712.34 241.27L712.755 238.968Z" fill="#535C64"/>
<path d="M695.08 249.037C695.255 248.645 695.42 247.909 695.54 247.467L694.59 246.279C696.78 245.906 701.39 245.781 703.255 246.96C703.05 247.817 702.745 248.766 702.75 249.614L700.885 249.303C699.47 248.719 696.735 248.989 695.08 249.037Z" fill="#4F5054"/>
<path d="M683.125 238.494C686.85 238.403 689.78 238.027 693.19 239.601C691.36 241.007 686.25 241.507 684.12 240.476C683.39 240.125 683.365 239.28 683.125 238.494Z" fill="#8D7C6A"/>
<path d="M708.895 244.702C706.075 245.107 697.215 245.186 694.34 244.964L696.405 244.737L696.165 244.65C700.635 244.124 704.53 243.804 709.025 243.53L709.105 244.513L708.895 244.702Z" fill="#747B79"/>
<path d="M675.92 238.435L681.4 238.424C681.66 240.096 681.87 239.426 681.145 240.594L679.57 240.799C677.655 240.13 677.065 240.059 675.92 238.435Z" fill="#8D7C6A"/>
<path d="M698.3 239.412C699.62 239.374 699.66 239.276 700.815 239.99L700.86 240.813L699.45 241.936C697.875 241.642 697.48 241.52 696.005 240.898L696.22 240.283L698.3 239.412Z" fill="#535C64"/>
<path d="M605.825 228.523C607.075 229.263 609.23 229.403 610.78 230.007C614.785 231.57 612.77 229.627 614.775 227.228C616.695 226.557 619.07 227.119 621.19 227.389C620.05 227.545 617.565 227.802 616.595 228.137L615.195 227.774L614.65 228.396C614.845 229.903 615.075 231.298 615.34 232.795L616.18 235.052L616.095 236.364L616.46 237.155L615.555 237.068L615.69 238.329C612.8 242.51 594.385 244.502 588.9 243.661L586.97 245.062L586.5 245.887L586.03 245.102C583.46 245.24 568.75 246.41 567.415 247.211C565.86 245.943 565.72 245.748 564.88 243.926L564.625 244.033C564.56 241.811 564.66 239.093 564.675 236.829L564.89 236.865L565.18 235.897C566.095 235.375 569.42 235.841 570.965 235.815L571.305 235.077L570.665 234.123L570.975 233.944C571.76 233.048 572.11 233.295 573.47 231.472C573.66 232.131 573.68 232.012 574.105 232.599C576.405 232.887 580.275 233.528 582.37 232.67L583.28 229.062C587.7 229.09 602.415 230.152 605.465 229.362L605.825 228.523Z" fill="#3B4854"/>
<path d="M570.975 233.945C574.515 234.826 572.7 235.015 575.845 237.093L576.54 236.419C577.915 237.619 579.315 238.793 580.735 239.939L581.055 240.372L582.29 240.689C592.51 238.826 605.895 240.504 615.69 238.329C612.8 242.511 594.385 244.502 588.9 243.661L586.97 245.063L586.5 245.887L586.03 245.102C583.46 245.24 568.75 246.41 567.415 247.211C565.86 245.944 565.72 245.748 564.88 243.927L564.625 244.034C564.56 241.812 564.66 239.094 564.675 236.829L564.89 236.865L565.18 235.897C566.095 235.376 569.42 235.841 570.965 235.815L571.305 235.077L570.665 234.124L570.975 233.945Z" fill="#8D7C6A"/>
<path d="M570.975 233.945C574.515 234.826 572.7 235.015 575.845 237.093L576.54 236.419C577.915 237.619 579.315 238.793 580.735 239.939L581.055 240.372C577.06 241.097 570.015 240.784 565.87 239.56C565.015 239.308 565.055 237.896 564.89 236.865L565.18 235.897C566.095 235.376 569.42 235.841 570.965 235.815L571.305 235.077L570.665 234.124L570.975 233.945Z" fill="#696968"/>
<path d="M564.88 243.926C567.55 243.074 583.705 243.136 586.03 245.102C583.46 245.24 568.75 246.41 567.415 247.211C565.86 245.943 565.72 245.748 564.88 243.926Z" fill="#6D5B49"/>
<path d="M576.54 236.418C577.545 235.076 579.41 235.488 581.045 235.446C583.07 236.128 583.835 236.291 585.625 237.506L586.185 237.881C586.305 237.964 586.42 238.047 586.54 238.13L586.965 237.976C587.415 236.244 586.935 236.873 588.355 235.951C595.64 236.86 607.87 236.883 615.555 237.068L615.69 238.329C605.895 240.503 592.51 238.825 582.29 240.689L581.055 240.372L580.735 239.938C579.315 238.793 577.915 237.619 576.54 236.418Z" fill="#747B79"/>
<path d="M576.54 236.418C577.545 235.076 579.41 235.488 581.045 235.446C583.07 236.128 583.835 236.291 585.625 237.506L586.185 237.881C586.305 237.964 586.42 238.047 586.54 238.13L586.965 237.976C584.335 241.244 583.845 238.463 580.735 239.938C579.315 238.793 577.915 237.619 576.54 236.418Z" fill="#56738D"/>
<path d="M612.54 233.059C613.545 234.538 614.215 236.15 616.095 236.364L616.46 237.155L615.555 237.069C607.87 236.883 595.64 236.861 588.355 235.952L588.155 235.278C590.315 235.302 589.79 235.007 591.39 234.607C597.34 233.12 606.585 232.887 612.54 233.059Z" fill="#535C64"/>
<path d="M581.045 235.446C589.57 233.156 606.465 231.476 615.34 232.795L616.18 235.053L616.095 236.364C614.215 236.15 613.545 234.538 612.54 233.059C606.585 232.887 597.34 233.12 591.39 234.607C589.79 235.007 590.315 235.302 588.155 235.278L588.355 235.952C586.935 236.874 587.415 236.244 586.965 237.977L586.54 238.13C586.42 238.047 586.305 237.964 586.185 237.881L585.625 237.507C583.835 236.292 583.07 236.129 581.045 235.446Z" fill="#4F5054"/>
<path d="M579.45 219.02C583.12 218.909 586.925 219.034 590.61 219.099C595.575 218.703 602.345 218.88 607.435 218.991C605.37 219.336 605.3 218.959 604.395 220.172C605.7 224.444 605.945 223.868 605.825 228.523L605.465 229.362C602.415 230.152 587.7 229.091 583.28 229.063L582.37 232.67C580.275 233.529 576.405 232.887 574.105 232.599C573.68 232.012 573.66 232.131 573.47 231.472C572.73 230.557 573.04 230.876 571.93 230.296C574.44 229.488 577.74 229.968 578.9 226.645C578.4 224.34 578.2 224.104 579.975 222.529C580.58 220.477 580.615 221.379 579.45 219.02Z" fill="#4F5054"/>
<path d="M579.45 219.02C583.12 218.909 586.925 219.034 590.61 219.099C592.9 219.556 594.88 218.869 596.94 219.824C596.925 219.63 595.535 225.198 595.195 225.666C593.26 225.944 592.95 226.068 591.075 225.72L590.82 225.341C591.83 223.74 591.57 224.425 591.395 222.249L590.82 221.425C589.205 222.454 590.615 223.904 587.805 225.377C584.98 226.859 579.5 227.179 579.975 222.529C580.58 220.477 580.615 221.379 579.45 219.02Z" fill="#212835"/>
<path d="M669.005 230.581L669.85 229.544C674.16 229.234 678.86 229.456 683.19 229.681C687.56 229.909 687.22 226.91 687.1 223.123C684.835 220.66 673.525 222.849 669.85 220.909L669.91 219.856C674.135 219.429 699.94 220.727 703.9 221.239L704.515 222.548C704.17 224.55 704.53 224.27 703.365 225.496C703.345 227.187 703.3 228.794 703.435 230.482L703.245 231.961C698.905 232.787 693.295 231.572 689.41 232.19C686.445 232.137 670.58 231.123 669.005 230.581Z" fill="#696968"/>
<path d="M691.175 230.341L688.265 229.498C687.73 228.951 687.54 229.027 687.445 228.324C686.135 218.521 696.59 223.693 702.2 222.884L703.875 222.649C704.09 222.615 704.3 222.581 704.515 222.548C704.17 224.55 704.53 224.27 703.365 225.496C703.345 227.187 703.3 228.794 703.435 230.482C699.185 230.532 695.47 229.94 691.175 230.341Z" fill="#212835"/>
<path d="M693.36 224.685L693.84 223.76L694.83 223.749C695.37 224.276 695.645 224.467 696.055 225.088C698.085 224.677 700.03 224.442 700.71 226.699C701.275 227.313 700.94 227.025 701.735 227.53L703.365 225.497C703.345 227.187 703.3 228.794 703.435 230.482C699.185 230.533 695.47 229.94 691.175 230.341L692.09 229.373C691.765 227.999 691.77 227.826 691.72 226.401L693.36 224.685Z" fill="#2F3B4B"/>
<path d="M693.36 224.685L693.84 223.76L694.83 223.749C695.37 224.276 695.645 224.467 696.055 225.088C695.23 226.628 695.955 227.805 694.105 228.749L693.6 227.626C693.845 226.272 693.755 226.014 693.36 224.685Z" fill="#625F5C"/>
<path d="M696.055 225.088C698.085 224.677 700.03 224.442 700.71 226.699C698.895 227.007 697.855 227.304 696.355 226.6L696.055 225.088Z" fill="#202E3F"/>
<path d="M723.42 233.498C723.76 231.142 724.185 225.612 726.725 225.047C727.745 226.029 727.845 225.979 728.1 227.416L727.13 228.033C728.2 230.319 727.92 227.713 729.64 231.518C733.06 235.813 745.045 234.767 750.94 236.938L751.995 238.144C750.285 239.26 747.19 241.429 745.525 242.355C742.555 242.284 728.655 242.651 727.245 241.442C727.14 239.918 727.025 239.609 726.58 238.127C725.765 239.099 725.345 239.656 724.62 240.7L724.025 240.631C723.805 239.929 723.66 239.645 723.58 238.918C722.785 238.031 722.485 237.895 722.315 236.731C723.405 235.616 723.42 235.937 723.72 234.639L723.42 233.498Z" fill="#202126"/>
<path d="M729.64 231.519C733.06 235.813 745.045 234.767 750.94 236.938L750.03 238.235C746.305 239.858 739.205 237.135 734.815 237.832C735.12 238.667 735.155 238.287 734.86 238.975L733.23 238.701C731.66 237.267 729.795 233.768 729.64 231.519Z" fill="#212835"/>
<path d="M723.42 233.499C724.635 233.604 725.05 233.202 726.02 232.581L726.855 233.171C727 235.921 729.125 236.651 728.465 238.132L726.58 238.128C725.765 239.099 725.345 239.656 724.62 240.701L724.025 240.632C723.805 239.929 723.66 239.646 723.58 238.919C722.785 238.031 722.485 237.896 722.315 236.732C723.405 235.616 723.42 235.938 723.72 234.639L723.42 233.499Z" fill="#332F30"/>
<path d="M658.44 218.292C659.295 218.885 659.775 219.136 660.755 219.481C663.23 222.223 662.765 224.209 664.715 227.532C664.375 229.85 663.89 232.527 663.88 234.84C663.36 235.696 663.175 236.184 662.375 236.774C659.805 236.504 659.425 236.459 657.015 235.427C655.3 235.062 652.82 234.39 651.555 233.19L649.335 232.372C648.245 230.832 648.255 230.582 648.355 228.683C653.585 226.926 651.49 225.079 655.19 221.373L655.165 220.425C656.185 219.689 657.37 218.974 658.44 218.292Z" fill="#C2705F"/>
<path d="M655.19 221.373C655.255 223.529 654.53 224.622 653.625 226.593C653.795 227.451 655.34 232.627 655.725 233.545L657.015 235.427C655.3 235.063 652.82 234.39 651.555 233.19L649.335 232.373C648.245 230.832 648.255 230.583 648.355 228.683C653.585 226.926 651.49 225.079 655.19 221.373Z" fill="#C2705F"/>
<path d="M649.335 232.373C648.245 230.832 648.255 230.583 648.355 228.683C650.435 229.571 650.73 229.319 651.975 230.991C651.905 232.052 651.975 232.235 651.555 233.19L649.335 232.373Z" fill="#D5836B"/>
<path d="M653.625 226.593C654.135 226.696 655.545 226.94 655.96 227.096C656.96 229.581 658.32 228.175 658.82 231.089L659.535 231L660.48 230.349C661.615 232.266 662.57 234.553 662.375 236.774C659.805 236.505 659.425 236.459 657.015 235.427L655.725 233.545C655.34 232.627 653.795 227.451 653.625 226.593Z" fill="#D5836B"/>
<path d="M655.165 220.425C657.635 220.853 657.065 220.38 658.51 221.896C658.77 224.434 657.55 225.323 655.96 227.096C655.545 226.94 654.135 226.696 653.625 226.593C654.53 224.622 655.255 223.529 655.19 221.373L655.165 220.425Z" fill="#D5836B"/>
<path d="M642.295 220.418C643.295 219.198 644.075 218.4 645.195 217.285L647.015 217.403L647.69 218.524C647.025 220.444 645.275 221.047 644.55 222.985C645.39 224.296 645.56 224.598 646.045 226.087L646.15 226.428C650.83 224.558 648.975 224.076 651.73 218.354C654.57 217.686 655.94 217.011 658.44 218.292C657.37 218.974 656.185 219.689 655.165 220.425L655.19 221.373C651.49 225.079 653.585 226.926 648.355 228.683C648.255 230.582 648.245 230.832 649.335 232.372L648.26 233.618C645.285 233.637 645.185 232.848 644.02 235.829C642.41 235.652 642.145 235.5 640.87 234.502L639.96 234.587C639.29 235.648 639.165 235.733 638.82 236.976L638.595 236.836C638.36 235.579 638.85 235.024 639.5 233.863L639.845 233.247L637.205 233.011L637.55 232.502L637.33 233.061L637.72 232.398C641.025 231.05 638.705 233.234 643.465 232.329C643.605 230.592 641.345 230.192 640.66 227.312C642.965 228.407 643.285 229.165 646.04 227.98L645.86 227.429C645.7 224.743 643.665 222.974 642.295 220.418Z" fill="#332F30"/>
<path d="M690.125 235.86C691.235 235.042 691.23 234.972 692.6 234.535L693.08 235.626C696.055 236.45 714.375 236.26 718.75 236.255C718.335 237.039 717.795 237.878 717.59 238.708L712.755 238.968C708.79 238.894 704.82 238.88 700.855 238.925C698.83 238.595 697.245 238.104 695.365 238.781L694.785 239.918C694.12 239.001 694.515 238.529 693.585 236.902C692.225 236.599 691.44 236.323 690.125 235.86Z" fill="#3C3C3F"/>
<path d="M577.74 214.494L578.73 216.935C583.005 218.164 604 216.337 607.155 218.106L607.435 218.991C602.345 218.88 595.575 218.703 590.61 219.099C586.925 219.033 583.12 218.908 579.45 219.019L578.485 218.563C577.465 216.996 577.79 216.565 577.74 214.494Z" fill="#696968"/>
<path d="M749.495 227.898C753.165 227.721 759.2 226.628 759.465 231.592L758.88 232.098C757.97 232.211 757.12 232.37 756.22 232.528C755.19 233.725 755.06 233.969 753.74 234.776L752.77 234.369C750.86 231.979 749.535 230.735 749.495 227.898Z" fill="#202E3F"/>
<path d="M692.6 234.535C698.235 234.611 720.14 235.591 723.72 234.639C723.42 235.937 723.405 235.616 722.315 236.731C721.04 236.237 720.11 236.305 718.75 236.255C714.375 236.26 696.055 236.45 693.08 235.626L692.6 234.535Z" fill="#625952"/>
<path d="M624.57 228.922C627.275 228.873 633.94 226.568 635.58 230.61L635.125 231.192L633.89 231.335L633.705 230.886C634.315 234.416 635.145 234.146 636.06 236.744C634.035 234.21 633.535 234.319 630.355 233.676C628.12 232.174 629.12 233.816 627.08 230.754C625.415 229.239 626.185 231.563 624.57 228.922Z" fill="#3B4854"/>
<path d="M642.295 220.418C643.665 222.974 645.7 224.743 645.86 227.429C643.185 227.222 642.59 227.344 641.27 225.078C641.135 222.964 641.53 222.372 642.295 220.418Z" fill="#3A2727"/>
<path d="M720.895 221.632C723.445 222.817 723.11 225.51 722.465 227.835C721.125 227.787 721.12 227.857 719.895 227.176C719.475 225.465 720.405 223.935 720.895 221.632Z" fill="#2F3B4B"/>
<path d="M557.56 240.134C559.055 240.332 559.77 240.711 560.88 240.167L560.925 240.539C560.645 243.838 561.215 243.218 561.39 245.607L563.02 245.984C564.415 245.312 563.95 245.75 564.625 244.033L564.88 243.926C565.72 245.748 565.86 245.943 567.415 247.211C568.75 246.41 583.46 245.24 586.03 245.102L586.5 245.887L586.97 245.062C589.32 244.961 589.75 244.881 591.86 245.857C598.33 245.765 602.48 245.906 608.805 244.418C610.42 241.29 614.45 243.251 616.27 245.184L617.66 244.82L619.115 243.681C628.695 246.15 629.56 246.409 638.57 242.796C639.18 242.553 641.52 245.624 642.07 246.273L643.25 246.379C643.9 247.63 643.675 247.305 643.38 249.037L646.745 246.539L647.315 246.379C647.78 248.39 647.79 248.932 647.8 251.006L648.395 251.853L650.69 252.522C646.285 252.702 644.48 252.559 640.4 254.211L640.195 254.516C641.195 254.633 642.795 254.868 643.75 254.92C646.775 257.121 652.375 256.113 655.975 256.728C658.38 257.139 659.57 259.706 662.205 259.422C669.505 260.156 676.795 260.906 684.115 261.617C688.305 262.024 692.92 262.068 696.97 262.84C697.56 262.952 697.45 262.973 698.13 262.93C697.685 264.249 697.165 264.864 697.61 265.766L697.63 265.449L699.33 265.845C699.97 267.705 698.19 269.426 697.055 270.982L697.08 272.233C695.825 272.97 694.095 273.981 692.63 274.027C679.75 274.433 667.07 274.253 654.185 275.152C647.97 275.586 640.93 275.235 634.65 275.367C619.69 276.354 604.055 275.918 589.02 275.957C584.93 275.968 579.72 274.222 575.425 274.776C574.865 275.821 574.83 275.79 574.635 276.944C574.235 276.452 573.03 274.215 572.645 273.534C570.59 271.406 567.33 263.815 565.005 260.885L563.76 261.334C562.845 260.397 563.285 260.486 562.32 260.324L561.555 262.082C561.4 263.089 561.2 264.746 560.965 265.672C556.86 263.172 560.525 259.26 554.675 255.871C555.495 254.075 556.41 252.608 557.415 250.92C556.82 247.38 551.04 244.214 552.7 240.903C554.105 239.862 555.7 240.136 557.56 240.134Z" fill="#A4A4A0"/>
<path d="M669.075 265.325L668.675 264.845C670.195 264.223 673.125 263.533 674.775 263.552L675.065 264.018C674.75 266.736 674.5 269.895 673.665 272.456C675.5 271.689 676.425 270.889 677.94 271.477L678.75 272.849C678.49 271.487 679.565 268.599 679.915 266.711C679.94 265.082 679.71 265.799 680.57 264.469C682.35 263.586 682.69 263.35 684.65 263.302L685.655 263.782C685.73 265.417 685.44 269.544 685.94 270.44C687.125 269.437 687.1 269.212 687.59 267.664L687.775 268.431C688.17 270.46 688.35 270.812 690.04 272.02C693.17 272.806 692.265 270.805 696.31 270.016L697.055 270.982L697.08 272.233C695.825 272.97 694.095 273.981 692.63 274.027C679.75 274.433 667.07 274.253 654.185 275.152C647.97 275.586 640.93 275.236 634.65 275.367C636.065 274.491 638.925 275.269 640.505 273.915L639.28 273.021L641.555 273.004C643.6 273.497 651.62 272.832 654.445 272.698C656.44 272.215 658.545 272.256 660.61 272.187L662.93 272.579C665.475 272.581 666.81 271.104 669.07 272.608C668.265 270.35 668.815 267.802 669.075 265.325Z" fill="#E5CEBB"/>
<path d="M673.665 272.456L672.615 272.279C671.16 270.052 672.33 266.291 673.655 264.203L675.065 264.018C674.75 266.736 674.5 269.896 673.665 272.456Z" fill="#4F5054"/>
<path d="M669.075 265.325L670.27 264.997C671.895 266.781 671.15 271.411 669.07 272.608C668.265 270.35 668.815 267.802 669.075 265.325Z" fill="#404851"/>
<path d="M679.915 266.711L681.085 265.345C682.315 267.419 680.625 271.288 678.75 272.849C678.49 271.487 679.565 268.599 679.915 266.711Z" fill="#4F5054"/>
<path d="M683.38 263.583C684.755 264.106 684.255 263.677 685.025 264.793C685.41 267.467 684.625 270.303 683.46 272.698C683.015 272.331 682.63 271.707 682.28 271.219C682.005 268.833 682.84 265.996 683.38 263.583Z" fill="#404851"/>
<path d="M591.86 245.857C598.33 245.765 602.48 245.906 608.805 244.418L609.075 244.849L608.32 247.938C608.265 248.965 608.175 249.792 608.245 250.822C606.815 250.794 604.945 250.969 603.485 251.062C597.57 251.149 571.76 250.174 567.415 247.211C568.75 246.41 583.46 245.24 586.03 245.102L586.5 245.887L586.97 245.062C589.32 244.961 589.75 244.881 591.86 245.857Z" fill="#332F30"/>
<path d="M591.86 245.857C598.33 245.765 602.48 245.906 608.805 244.418L609.075 244.849L608.32 247.938C604.15 249.753 595.75 248.612 591.86 245.857Z" fill="#3C3C3F"/>
<path d="M617.66 244.82L619.115 243.681C628.695 246.15 629.56 246.409 638.57 242.796C639.18 242.553 641.52 245.624 642.07 246.273L643.25 246.379C643.9 247.63 643.675 247.305 643.38 249.037C642.27 250.756 642.545 251.013 641.06 251.473L639.31 250.971L639.02 252.016C632.925 252.006 626.18 252.107 620.15 251.724C621.34 248.306 620.92 246.17 617.66 244.82Z" fill="#3C3C3F"/>
<path d="M639.31 250.971C638.495 249.128 637.72 247.238 638.66 245.408C640.445 245.048 640.005 245.247 642.07 246.273L643.25 246.38C643.9 247.63 643.675 247.305 643.38 249.038C642.27 250.756 642.545 251.013 641.06 251.474L639.31 250.971Z" fill="#202126"/>
<path d="M572.645 273.534C573.67 272.887 574.55 272.635 575.78 272.743C585.91 273.633 595.864 274.222 606.049 273.91C616.944 273.576 628.425 273.991 639.28 273.02L640.505 273.915C638.925 275.269 636.065 274.49 634.65 275.367C619.69 276.354 604.055 275.918 589.02 275.957C584.93 275.968 579.719 274.222 575.424 274.776C574.864 275.821 574.83 275.79 574.635 276.944C574.235 276.452 573.03 274.215 572.645 273.534Z" fill="#F9D19D"/>
<path d="M557.56 240.134C559.055 240.332 559.77 240.711 560.88 240.167L560.925 240.539C560.645 243.838 561.215 243.218 561.39 245.607C560.56 247.809 562.65 248.961 560.27 250.242C556.79 248.527 556.51 243.175 553.65 241.272L552.955 241.728C553.23 245.418 555.19 245.028 556.455 247.329C558.965 251.908 562.99 256.1 565.005 260.885L563.76 261.334C562.845 260.397 563.285 260.486 562.32 260.324L561.555 262.082C561.4 263.089 561.2 264.746 560.965 265.672C556.86 263.172 560.525 259.26 554.675 255.871C555.495 254.075 556.41 252.608 557.415 250.92C556.82 247.38 551.04 244.214 552.7 240.903C554.105 239.862 555.7 240.136 557.56 240.134Z" fill="#7087A0"/>
<path d="M554.675 255.871C555.495 254.075 556.41 252.608 557.415 250.92C558.685 254.984 561.25 257.689 560.745 261.217L561.555 262.082C561.4 263.089 561.2 264.746 560.965 265.672C556.86 263.172 560.525 259.26 554.675 255.871Z" fill="#7F7480"/>
<path d="M641.09 265.564L640.905 264.878C643.54 264.266 644.105 263.195 646.845 264.437C648.365 267.912 645.385 269.006 645.705 271.26L649.23 271.166C650.56 268.36 649.165 267.403 650.365 264.745C652.135 263.472 654.02 263.518 656.19 263.682L654.42 264.407C653.855 266.617 653.34 269.925 653.87 272.155L654.445 272.698C651.62 272.832 643.6 273.497 641.555 273.004L641.525 272.645C640.42 270.58 640.93 268.011 641.09 265.564Z" fill="#B4AFAD"/>
<path d="M641.09 265.563L642.235 265.778C643.03 267.859 642.45 270.677 641.525 272.644C640.42 270.579 640.93 268.01 641.09 265.563Z" fill="#332F30"/>
<path d="M650.645 265.085L651.935 265.534C652.54 267.027 652.015 269.989 652 272.136C651.17 272.19 651.59 272.217 650.66 271.444C650.1 269.405 650.47 267.241 650.645 265.085Z" fill="#3C3C3F"/>
<path d="M644.54 264.072C645.685 264.471 645.59 264.536 646.295 265.556C646.515 267.366 645.895 268.194 645.1 269.856L644.47 270.184L644.045 269.796C644.38 267.686 644.53 266.708 644.54 264.547V264.072Z" fill="#3C3C3F"/>
<path d="M608.805 244.418C610.42 241.29 614.45 243.251 616.27 245.184L617.66 244.82C620.92 246.17 621.34 248.306 620.15 251.724C614.615 251.484 608.99 251.716 603.485 251.062C604.945 250.969 606.815 250.794 608.245 250.822C608.175 249.792 608.265 248.965 608.32 247.938L609.075 244.849L608.805 244.418Z" fill="#31302E"/>
<path d="M609.075 244.85C612.1 245.91 613.525 247.161 612.22 250.393C611.02 251.202 609.735 250.916 608.245 250.823C608.175 249.793 608.265 248.966 608.32 247.939L609.075 244.85Z" fill="#202126"/>
<path d="M646.745 246.539L647.315 246.379C647.78 248.39 647.789 248.932 647.799 251.006L648.395 251.853C646.255 252.373 641.435 252.075 639.02 252.016L639.31 250.971L641.06 251.473C642.545 251.013 642.27 250.756 643.38 249.037L646.745 246.539Z" fill="#332F30"/>
<path d="M660.61 272.187C658.06 267.858 659.725 263.857 664.915 264.876L665.265 265.61C664.525 267.27 664.895 267.174 663.635 267.791L662.091 267.385C661.061 270.048 662.595 270.632 662.93 272.579L660.61 272.187Z" fill="#4F5054"/>
<path d="M687.775 268.431C689.06 265.95 690.63 263.652 694.02 264.705C694.185 266.44 694.055 266.015 693.155 267.849L692.52 267.813L691.255 266.181C689.5 267.879 690.385 269.752 690.965 271.805L690.04 272.019C688.35 270.812 688.17 270.46 687.775 268.431Z" fill="#3C3C3F"/>
<path d="M654.42 264.407L655.585 264.786C656.025 267.141 655.595 270.667 654.445 272.697L653.87 272.154C653.34 269.925 653.855 266.617 654.42 264.407Z" fill="#3B4854"/>
<path d="M809 253.672L811.935 254.567C814.205 257.842 815.56 259.339 813.5 263.246C803.45 276.626 745.185 284.75 741.465 288.72L739.985 290.114C738.3 291.298 732.155 294.57 729.8 295.85C725.57 295.172 717.575 293.541 714.1 293.034C711.155 292.604 699.545 294.31 695.835 294.744C687.225 295.733 678.595 296.581 669.96 297.287C651.8 298.633 633.615 299.558 615.415 300.062C607.25 300.265 597.565 300.661 589.58 300.315L588.625 300.215L587.57 298.553C585.655 294.736 582.765 291.127 580.62 286.605C582.675 287.778 585.24 292.997 585.995 293.112C594.18 294.362 601.235 292.813 609.485 293.774L609.17 292.566C610.53 291.977 616.435 292.1 618.12 292.212C631.56 293.107 644.375 291.863 657.735 291.053C687.615 289.298 717.355 285.645 746.775 280.115C766.36 276.632 784.48 275.232 801.685 264.646C804.69 262.797 809.255 262.641 811.12 259.258C811.42 257.237 810.09 255.581 809 253.672Z" fill="#FEF7C4"/>
<path d="M587.57 298.553C590.7 297.474 633.645 297.403 641.58 297.005C654.465 296.248 667.33 295.227 680.17 293.94C690.255 293.008 701.115 292.261 711.17 290.921C739.38 287.163 767.695 280.608 794.69 271.606C801.725 269.26 806.78 265.946 813.055 263.423L813.5 263.247C803.45 276.627 745.185 284.75 741.465 288.721L739.985 290.115C738.3 291.299 732.155 294.571 729.8 295.851C725.57 295.173 717.575 293.542 714.1 293.034C711.155 292.604 699.545 294.31 695.835 294.744C687.225 295.734 678.595 296.582 669.96 297.288C651.8 298.633 633.615 299.559 615.415 300.062C607.25 300.265 597.565 300.662 589.58 300.315L588.625 300.216L587.57 298.553Z" fill="#CEA179"/>
<path d="M739.985 290.114C736.57 290.591 733.3 292.43 729.4 293.048C726.675 293.48 719.915 293.944 717.745 292.462C719.205 291.266 739.12 287.841 741.465 288.72L739.985 290.114Z" fill="#FFEAAE"/>
<path d="M643.75 254.92C654.225 254.788 674.005 258.473 686.07 259.467C698.79 260.444 711.52 261.273 724.26 261.954C732.555 262.396 743.795 262.664 751.685 264.181C737.21 266.903 736.79 264.391 724.065 272.657C717.935 269.384 712.17 266.697 705.08 268.645C703.19 269.166 702.2 269.501 701.615 271.441L701.42 272.081L697.08 272.233L697.055 270.982C698.19 269.426 699.97 267.705 699.33 265.845L697.63 265.449L697.61 265.766C697.165 264.864 697.685 264.249 698.13 262.93C697.45 262.973 697.56 262.952 696.97 262.84C692.92 262.068 688.305 262.024 684.115 261.617C676.795 260.906 669.505 260.156 662.205 259.422C659.57 259.706 658.38 257.139 655.975 256.728C652.375 256.113 646.775 257.121 643.75 254.92Z" fill="#B4AFAD"/>
<path d="M697.63 265.449C699.775 263.423 701.045 263.892 704.31 263.941C702.98 265.628 700.945 267.702 700.9 269.74L701.615 271.442L701.42 272.082L697.08 272.233L697.055 270.982C698.19 269.427 699.97 267.705 699.33 265.846L697.63 265.449Z" fill="#4F5054"/>
<path d="M640.195 254.516C655.095 253.892 670.095 255.448 684.95 256.663C690.55 257.121 696.065 258.14 701.745 258.477C711.145 259 720.55 259.385 729.96 259.633C737.025 259.805 748.425 258.816 753.96 262.945L751.18 268.11C749.12 266.125 747.09 268.58 745.3 268.38C736.335 267.38 731.405 272.501 723.665 274.733C721.39 275.39 715.875 270.354 713.115 270.905C709.81 270.728 703.415 272.512 701.42 272.081L701.615 271.441C702.2 269.501 703.19 269.166 705.08 268.645C712.17 266.697 717.935 269.384 724.065 272.657C736.79 264.391 737.21 266.903 751.685 264.181C743.795 262.664 732.555 262.396 724.26 261.954C711.52 261.273 698.79 260.444 686.07 259.467C674.005 258.473 654.225 254.788 643.75 254.92C642.795 254.868 641.195 254.633 640.195 254.516Z" fill="#F9D19D"/>
<path d="M718.75 236.255C720.11 236.305 721.04 236.237 722.315 236.731C722.485 237.895 722.785 238.031 723.58 238.918C723.66 239.645 723.805 239.929 724.025 240.631L724.62 240.7C725.345 239.656 725.765 239.099 726.58 238.127C727.025 239.609 727.14 239.918 727.245 241.442C728.655 242.651 742.555 242.284 745.525 242.355C744.05 243.296 742.415 244.395 740.925 245.267C737.76 247.131 734.5 249.077 731.05 250.364C726.985 251.585 718.495 252.233 714.125 252.067L711.765 251.832C711.535 250.502 711.245 249.165 710.97 247.843C710.235 247.718 708.885 247.748 708.085 247.736L708.035 246.89C711.795 247.219 716.175 248.158 718.68 244.593L717.96 244.33C718.44 242.28 718 240.794 717.59 238.708C717.795 237.878 718.335 237.039 718.75 236.255Z" fill="#4F5054"/>
<path d="M731.05 250.364C730.445 247.941 730.085 247.046 731.21 245.075C733.595 244.074 738.28 244.811 740.925 245.267C737.76 247.131 734.5 249.077 731.05 250.364Z" fill="#625952"/>
<path d="M718.75 236.255C720.11 236.305 721.04 236.237 722.315 236.731C722.485 237.895 722.785 238.031 723.58 238.918L721.745 238.887C720.095 240.718 721.235 242.29 720.815 244.963L718.68 244.593L717.96 244.33C718.44 242.28 718 240.794 717.59 238.708C717.795 237.878 718.335 237.039 718.75 236.255Z" fill="#3B4854"/>
<path d="M718.68 244.593L720.815 244.963C722.26 245.813 722.78 245.971 723.71 247.298C722.63 249.16 712.77 248.519 710.97 247.843C710.235 247.719 708.885 247.749 708.085 247.736L708.035 246.89C711.795 247.22 716.175 248.158 718.68 244.593Z" fill="#625F5C"/>
<path d="M755.105 257.346C755.19 258.747 754.995 260.369 756.08 261.418C758.305 263.57 763.53 262.557 766.035 261.269C767.055 262.215 767.01 262.132 767.555 263.408C767.575 264.916 767.96 266.31 766.65 267.34C762.915 270.275 755.445 268.974 751.18 268.11L753.96 262.945L755.105 257.346Z" fill="#8D7C6A"/>
<path d="M755.105 257.346L755.245 256.994C755.08 256.123 755.05 255.901 755.03 255.017L755.73 254.772C760.535 256.125 763.345 253.921 766.295 255.449L766.65 257.383L765.89 257.727C765.905 258.839 765.875 260.201 766.035 261.269C763.53 262.557 758.305 263.57 756.08 261.418C754.995 260.369 755.19 258.747 755.105 257.346Z" fill="#FEF7C4"/>
<path d="M702.75 249.614C702.745 248.766 703.05 247.817 703.255 246.96C704.925 247.417 706.425 248.028 708.085 247.736C708.885 247.748 710.235 247.718 710.97 247.843C711.245 249.165 711.535 250.502 711.765 251.832L714.125 252.067C710 252.479 706.56 252.475 702.43 252.5L702.54 252.097C702.96 251.018 702.84 250.764 702.75 249.614Z" fill="#625952"/>
<path d="M710.97 247.843C711.245 249.166 711.535 250.503 711.765 251.832C709.765 251.917 709.355 252.243 708.705 250.341C709.395 248.794 709.485 248.779 710.97 247.843Z" fill="#3C3C3F"/>
<path d="M766.035 261.269C765.875 260.201 765.905 258.84 765.89 257.728L766.65 257.384C767.355 259.521 767.39 261.194 767.555 263.408C767.01 262.132 767.055 262.215 766.035 261.269Z" fill="#CEA179"/>
</g>
<defs>
<clipPath id="clip0_3690_1672">
<rect width="815" height="505" fill="white"/>
</clipPath>
</defs>
</svg>
