<svg width="567" height="217" viewBox="0 0 567 217" fill="none" xmlns="http://www.w3.org/2000/svg">
<path d="M285.975 40.3486C296.19 40.6967 302.964 43.1512 311.893 47.8398C311.908 60.1945 311.946 72.5797 311.896 84.9355C311.876 90.0824 310.23 95.1366 306.431 98.7695C306.667 98.9698 306.894 99.1807 307.112 99.4014C308.453 100.751 310.154 102.805 310.466 104.686C311.332 109.924 311.009 115.926 310.998 121.251L310.968 145.272C309.709 145.308 308.208 145.258 306.928 145.247C306.798 134.313 307.013 123.345 306.925 112.408C306.905 109.843 306.96 107.325 306.611 104.777C304.362 100.667 295.396 101.907 291.208 101.986L291.24 151.229C289.486 151.285 287.654 151.285 285.894 151.31C286.118 114.413 285.516 77.1899 285.975 40.3486ZM291.211 96.5615C294.471 96.5903 298.107 96.6984 301.321 96.4189C302.409 95.2917 303.005 94.6675 303.924 93.3936C307.681 87.1527 306.634 80.818 306.614 73.7471L306.608 50.8047C302.417 49.6361 298.334 47.6329 293.954 46.8652C293.285 46.7481 291.891 46.4129 291.234 46.2012L291.211 96.5615Z" fill="white"/>
<path d="M251.047 52.2168C251.3 54.6941 251.125 58.8072 251.121 61.4785L251.122 79.168L251.112 136.963L245.824 136.922C245.709 125.866 246.172 113.256 245.758 102.397C245.102 101.847 244.991 102.03 243.924 101.98C240.463 101.928 237.001 101.937 233.54 102.011C234.398 106.977 235.828 111.752 236.605 116.727C237.467 119.131 233.151 120.759 232.425 119C224.277 99.2504 227.417 76.0452 242.053 60.0645C244.744 57.1254 247.565 54.6226 250.647 51.9717L251.047 52.2168ZM245.522 64.5098C237.29 73.6411 233.264 84.5243 233.326 97.0752C233.328 97.4671 233.443 97.7528 233.73 98.0127C237.707 98.0185 241.865 98.0873 245.826 98.0059C245.81 94.3809 246.019 65.0302 245.522 64.5098Z" fill="white"/>
<path d="M280.256 40.2512L280.553 40.2701C281.327 41.6841 280.852 64.7048 280.852 68.1882L275.602 68.2531C275.34 61.5627 275.537 53.5616 275.509 46.7485C269.539 48.4169 266.188 49.248 260.801 52.4322L260.78 142.025C267.415 144.334 267.714 145.444 275.865 146.928L275.888 131.356L275.919 125.847L281.169 125.882C281.378 134.689 281.197 144.241 281.178 153.119C274.828 152.102 270.937 151.78 264.712 149.441C261.948 148.403 257.779 146.224 255.457 145.503L255.433 49.0154C257.002 48.4373 259.967 46.5319 261.805 45.7145C267.93 42.9912 273.585 40.9831 280.256 40.2512Z" fill="white"/>
<path d="M317.719 52.1304C322.41 54.2987 329.457 62.2294 332.427 66.4445C334.385 69.2222 336.583 72.5733 331.979 73.9269C330.531 73.5064 324.571 65.1316 322.861 63.1471C323.361 85.3946 322.599 108.024 322.977 130.241C325.223 127.941 326.732 125.519 328.416 122.82C329.385 120.682 331.237 117.746 333.951 119.502C337.651 125.227 321.506 139.009 317.643 142.267C317.303 138.25 317.515 130.969 317.515 126.771L317.527 97.8887L317.512 68.9317C317.506 63.9499 317.306 56.94 317.719 52.1304Z" fill="white"/>
<path d="M243.062 44.4307C271.068 21.7222 314.709 26.5737 336.918 55.127C346.868 67.9209 350.83 80.4498 351.731 96.3887C353.942 86.1693 353.316 73.268 351.016 63.0537C350.129 59.11 347.964 55.184 347.737 51.0303C347.481 46.2984 349.82 44.0482 354.396 43.9473C362.237 43.7743 370.067 43.8517 377.899 43.8526L422.283 43.8555L547.806 43.8955C545.348 47.0225 543.198 50.3113 540.953 53.1719C527.463 53.392 513.578 53.2393 500.054 53.2393L395.51 53.2637C397.837 55.2194 399.37 56.6596 401.106 59.169L490.237 59.1875C504.832 59.1858 520.21 58.9446 534.761 59.2403C532.364 62.8513 529.607 66.7439 526.894 70.1045C526.37 70.7552 524.372 70.8568 523.558 70.8653C483.339 71.2782 443.003 70.4631 402.796 70.9385C404.59 72.5194 404.765 72.8024 405.297 75.2041C439.37 75.9034 473.755 74.8454 507.86 75.2784C512.339 75.3353 517.113 75.3788 521.583 75.2637C520.396 77.1401 514.492 85.6253 513.212 86.8946C502.974 87.3508 491.454 86.9295 481.059 87.0362C455.525 87.2981 429.633 86.6685 404.134 87.1192C404.602 88.3866 405.253 90.0155 405.588 91.2832C435.548 91.7208 465.628 91.1127 495.601 91.3477C500.193 91.3837 505.036 91.4237 509.617 91.2237C507.037 95.8259 504.17 98.4446 501.302 102.608C469.119 103.03 436.634 102.407 404.41 102.69L404.689 106.957C434.819 106.981 465.763 106.596 495.819 106.999C494.164 111.059 492.192 114.677 490.159 118.55C458.215 118.009 425.404 118.523 393.381 118.45C392.694 120.785 392.054 123.353 389.989 124.854C388.096 132.186 385.778 137.056 377.812 138.754C374.417 142.566 371.988 145.332 366.939 146.942L366.387 146.835C366.154 146.101 365.968 145.308 365.503 144.708C363.473 145.726 362.167 146.396 359.997 147.174C358.752 147.62 357.304 149.885 355.425 150.606L355.241 150.677C352.478 151.728 350.003 151.426 346.461 152.855C349.713 143.875 353.401 135.579 350.341 125.988C351.085 124.406 351.979 122.629 352.662 121.043C349.867 123.353 348.569 126.057 346.271 128.189C341.746 132.388 338.634 136.462 334.693 141.046C321.23 156.71 299.358 165.437 278.81 163.508C263.823 162.134 249.736 155.757 238.815 145.405C236.848 143.534 234.733 141.357 233.042 139.242C228.687 133.794 223.08 130.538 219.14 124.649L218.218 125.75C215.766 132.722 217.891 146.73 222.041 152.869C215.855 150.686 212.621 152.384 208.536 146.872C206.125 146.535 205.768 146.253 203.614 145.145C201.951 144.289 202.925 145.849 201.217 146.542C199.328 146.789 193.897 143.407 193.159 142.096C190.327 137.064 190.688 139.406 186.063 137.403C181.13 135.267 180.103 129.464 178.191 125.253C176.982 122.589 175.715 122.098 174.504 118.419L78.1357 118.461C76.507 114.729 73.945 110.857 72.1328 106.977L163.83 106.949L164.27 102.753C153.455 102.374 141.125 102.652 130.223 102.651L67.1494 102.67L58.1055 91.2198C70.8209 91.5431 84.1953 91.3573 96.9648 91.3584L162.333 91.3321C162.962 89.8716 163.608 88.5596 164.316 87.1358C150.43 86.7153 135.019 87.022 121.032 87.0235L55.3535 87.1289C52.961 83.5837 49.1411 78.7151 46.4746 75.2578L162.433 75.3057C163.451 73.397 163.974 72.6488 165.298 70.9258L42.127 70.8994C39.3017 67.0497 36.3414 62.8091 33.1143 59.3243C44.3669 58.9332 56.9719 59.1862 68.3115 59.1856L130.645 59.1934L152.646 59.2032C157.187 59.2069 162.392 59.3336 166.877 59.0274C168.258 57.8777 170.87 54.7217 172.197 53.2266L27.8242 53.2784C25.9375 50.7129 22.4791 46.2344 20.4756 43.8868L147.285 43.8633L190.924 43.8614C198.489 43.8596 206.16 43.7024 213.695 43.9278C224.787 44.2592 219.249 56.5043 217.618 62.4346C214.762 72.8232 214.103 85.0182 216.229 95.5987C216.564 96.1712 216.661 96.4158 217.238 96.7832C217.946 95.6594 217.255 93.7057 217.86 92.21C218.303 88.071 218.672 83.5894 219.729 79.6133C223.374 65.8965 232.127 53.2969 243.062 44.4307ZM345.938 93.0254C343.846 59.2131 314.758 33.4814 280.933 35.5205C247.033 37.5639 221.226 66.7211 223.322 100.607C225.419 134.494 254.624 160.249 288.518 158.101C322.335 155.957 348.029 126.838 345.938 93.0254ZM214.102 133.37C213.148 134.852 211.316 137.527 210.563 139L210.784 146.689C212.339 147.579 213.187 148.101 214.878 148.67L217.803 149.179C215.409 141.599 215.341 140.992 214.102 133.37ZM353.89 133.275C353.322 139.343 352.673 142.982 350.605 148.816L353.985 148.358C355.591 147.733 355.728 147.804 356.76 146.255C358.508 143.636 356.804 134.431 353.89 133.275ZM203.158 130.381C201.892 135.578 201.381 142.76 208.009 144.24C208.88 143.048 208.437 139.589 208.338 137.901C207.526 136.616 204.164 131.064 203.158 130.381ZM364.895 130.778C360.282 136.511 360.381 136.375 360.006 143.648C360.448 143.94 360.308 143.933 360.782 143.969C361.678 143.636 363.74 142.927 364.299 142.197C365.692 140.377 366.273 132.346 364.895 130.778ZM193.814 126.886C190.123 133.446 192.495 140.498 199.461 143.395C200.061 143.02 200.457 142.761 200.543 141.962C201.183 135.991 199.446 129.815 193.814 126.886ZM374.27 127.136C371.379 128.62 369.764 130.05 368.74 133.251C368.351 134.478 366.358 144.153 369.374 143.122C371.515 142.019 371.436 141.807 373.248 140.41C375.985 138.301 377.451 128.929 374.27 127.136ZM182.887 120.569C179.181 127.227 182.96 133.093 189.053 136.356C189.158 136.414 189.263 136.469 189.37 136.523C190.156 135.437 190.168 129.904 190.555 128.075C188.786 125.871 185.583 120.815 182.887 120.569ZM383.891 120.577C382.273 122.476 379.015 126.014 378.059 128.007C378.323 129.993 378.24 135.063 379.077 135.873C379.888 136.025 380.528 135.493 381.258 135.045C383.427 133.384 384.443 132.206 385.88 129.877C387.541 127.187 388.605 120.427 383.891 120.577ZM206.243 116.316C205.285 118.976 204.471 124.108 204.181 127.022C205.125 128.505 208.429 133.814 209.671 134.735C211.329 132.055 213.99 128.067 215.061 125.265C214.367 123.725 210.094 113.932 209.458 113.356L206.243 116.316ZM358.455 112.995C356.89 117.252 355.085 122.027 352.927 126.007C354.782 128.176 357.725 133.879 358.592 134.5L359.017 134.439C361.021 132.07 362.49 129.225 364.575 127.156C363.525 120.823 363.391 117.113 358.455 112.995ZM202.495 115.584C199.395 116.989 196.578 121.402 194.776 124.309C196.396 125.427 197.022 125.91 198.424 127.282L200.902 129.906C201.383 127.422 203.745 117.254 203.044 115.855L202.495 115.584ZM365.102 98.4034C362.458 96.3988 359.704 108.682 359.39 109.839C360.495 111.216 361.865 113.091 363.258 114.089C364.203 114.274 363.816 114.318 364.721 113.888L364.727 115.239C365.282 115.618 365.381 115.623 366.053 115.695C365.666 115.886 365.131 116.043 365.11 116.388C364.889 119.999 366.928 126.021 367.423 129.534C369.811 127.179 370.852 126.071 373.812 124.406L368.132 116.557C369.033 116.757 368.662 116.805 369.528 116.326C369.997 115.427 369.947 115.822 369.731 114.841L369.205 114.51C370.494 109.6 369.188 101.503 365.102 98.4034ZM377.838 103.73C376.945 103.32 375.869 103.495 374.868 103.56C373.804 103.906 372.507 104.367 371.442 104.638C372.106 108.237 372.876 112.582 370.64 115.815L370.575 115.905C371.631 117.411 375.985 124.022 377.201 124.636C378.97 121.712 381.438 117.792 381.956 114.447C382.331 112.028 379.336 105.576 377.838 103.73ZM190.785 103.469C188.441 107.632 185.468 112.088 186.963 117.04C187.409 118.518 190.244 124.424 191.917 123.88L192.411 123.12C193.918 120.807 196.226 118.384 197.381 116.292C195.987 112.43 196.09 108.551 196.877 104.562C194.935 104.067 192.775 103.418 190.785 103.469ZM185.484 103.534C182.293 104.334 179.65 105.43 176.901 107.28C176.6 112.767 176.425 116.93 178.887 122.092C180.284 116.964 181.563 113.436 184.183 108.77C184.918 107.459 187.264 105.031 186.949 103.788C186.305 103.486 186.2 103.497 185.484 103.534ZM381.444 103.435C383.594 108.997 387.779 113.864 388.608 119.956C388.69 120.557 388.801 120.95 389.176 121.435C389.859 121.102 390.08 120.593 390.476 119.939C391.956 116.798 391.776 110.521 391.433 106.991C387.823 105.404 385.336 103.637 381.444 103.435ZM204.003 98.17C198.735 101.289 198.186 108.771 199.313 114.201C201.659 113.655 202.27 113.297 204.513 114.112L204.995 114.223C206.235 112.787 207.637 111.158 209.15 110.037C208.485 107.957 205.765 99.4247 204.525 98.3262L204.003 98.17ZM173.764 95.6436C173.521 95.6433 173.279 95.6546 173.037 95.6758C165.951 98.7458 165.381 104.791 166.656 111.728L168.808 109.423C171.372 106.319 173.941 104.348 177.582 102.632C177.562 98.7219 178.559 95.6253 173.764 95.6436ZM393.425 95.4073C392.622 95.6945 391.819 95.7959 391.499 96.586C390.891 98.0954 391.127 100.902 391.095 102.581C394.259 104.412 398.398 107.602 400.745 110.351L401.354 110.982L401.72 110.793C402.124 109.148 401.796 107.928 401.88 106.355C402.165 100.895 399.349 95.8449 393.425 95.4073ZM377.629 84.8496C376.896 87.6989 375.293 89.6349 374.47 92.4112C375.901 95.2319 377.533 97.5991 379.449 100.113C381.924 100.927 384.071 101.298 386.619 101.788L387.718 101.946C388.904 100.976 388.617 96.7043 388.684 95.0498C385.589 89.4529 382.998 88.0677 377.629 84.8496ZM190.502 84.8516C186.025 87.3941 182.068 90.4976 179.302 94.9053C179.386 96.0245 179.455 97.1946 179.524 98.3106C179.679 100.81 179.304 102.467 182.261 101.772C189.484 100.419 190.725 99.02 193.556 92.1524C193.132 91.0399 191.114 85.4078 190.502 84.8516ZM202.386 85.7422C198.25 88.1739 196.091 92.4161 194.784 96.8887C193.919 99.8486 194.429 101.453 197.441 101.907C199.381 98.9327 200.899 97.0186 204.425 95.8477C204.814 93.1944 205.154 90.7901 205.398 88.1153C204.958 87.2687 204.564 86.2419 203.742 85.8194L202.386 85.7422ZM364.438 85.7032C363.897 86.5173 363.118 87.6137 362.69 88.461C363.057 90.7911 363.473 93.1131 363.936 95.4258C367.068 97.2497 369.098 97.956 370.334 101.423C370.479 101.835 372.279 101.519 372.725 101.473C374.857 100.934 373.917 97.6258 373.283 96.1045C371.59 92.0436 369.461 86.1749 364.438 85.7032ZM181.282 79.4942C171.769 81.2798 165.411 84.7991 164.852 95.3096L167.104 94.2549C167.884 93.7958 173.811 90.3152 173.989 90.291C176.868 89.909 191.108 79.2631 181.282 79.4942ZM384.609 79.461C382.312 81.7115 384.344 84.0753 386.409 85.5274C391.569 89.1518 397.503 91.7644 402.813 95.1338L403.241 95.1035C403.436 92.9908 402.534 90.125 401.711 88.1885C399.183 82.2563 390.642 79.2553 384.609 79.461ZM178.853 90.1387C177.712 90.7795 176.127 91.4916 175.473 92.5576C175.627 93.2746 175.559 93.0506 176.283 93.5869C177.687 93.1511 179.548 91.8184 179.164 90.2139L178.853 90.1387ZM388.782 90.3018C389.815 92.5522 390.06 93.5549 392.727 93.2188C392.124 91.2439 390.731 90.5643 388.782 90.3018ZM373.693 88.0313C377.3 83.0423 370.369 77.1824 364.997 77.5733C363.831 78.9468 363.528 79.6434 362.726 81.2725C367.658 83.5817 369.383 84.0772 373.123 87.9659L373.693 88.0313ZM205.389 81.4463C204.537 78.3557 204.556 77.3699 201.01 77.6895C197.391 78.9747 195.245 80.6123 192.755 83.5987C193.164 84.7719 193.785 86.9539 194.597 87.7442C195.776 88.0759 195.884 87.6193 196.545 86.6416C198.66 83.8713 202.387 83.0245 205.389 81.4463ZM174.972 78.3731C174.514 78.3048 174.267 78.2424 173.809 78.2901C172.233 78.5829 169.074 79.7253 168.438 81.295L168.696 81.5528L169.231 81.3721C170.269 80.8626 174.517 79.0299 174.972 78.3731ZM391.938 77.9903C393.416 78.8338 399.244 81.5879 400.748 81.3037C399.177 79.243 394.419 77.9391 391.938 77.9903ZM183.461 75C183.557 72.5369 183.685 66.5242 179.707 67.1797C175.237 68.5684 167.995 70.3252 165.803 74.6914C164.875 76.5396 164.941 78.1556 164.988 80.1651L167.84 78.5664C173.358 74.9114 176.882 74.9643 183.461 75ZM203.359 65.6485C200.185 67.7206 190.422 74.1391 187.159 75.7539C187.49 76.5693 188.636 80.1019 189.393 80.1426C195.171 75.6595 198.554 73.3535 205.856 71.2344C205.806 69.3156 206.056 67.1675 204.699 65.878C204.179 65.7271 203.912 65.6113 203.359 65.6485ZM364.063 65.586C361.757 67.1049 362.239 68.7258 362.248 71.2686C366.756 72.3938 370.168 73.9504 374.016 76.5118C375.17 77.2793 378.148 79.8065 379.117 79.8399L379.374 79.5645C379.866 78.7303 380.881 76.9005 381.396 76.1846C379.118 74.684 365.694 65.6939 364.063 65.586ZM387.119 67.041C385.81 68.9357 383.326 72.6639 384.964 74.8741C386.665 75.1945 388.344 74.9785 390.074 75.0547C394.989 75.2717 398.183 76.5035 401.979 79.4571L402.849 79.8086C404.108 78.4337 402.005 73.4181 400.702 72.3819C397.971 70.2101 390.513 67.1787 387.119 67.041ZM203.737 53.8467C201.174 52.8193 196.396 53.2141 193.532 53.295C191.749 54.792 185.104 62.9389 183.209 65.2295C185.285 68.5635 185.767 69.2766 186.631 73.1836C188.924 71.6292 191.205 70.5887 193.405 69.1817C197.543 66.5698 205.313 62.8404 207.381 58.416C206.514 56.2254 206.134 54.8074 203.737 53.8467ZM374.557 53.2578C371.779 53.2477 368.682 53.1726 365.931 53.2569C364.453 53.8442 363.342 54.2856 361.938 55.0254C361.548 56.3037 360.568 59.5698 361.524 60.2676C366.565 63.9359 376.253 70.1617 381.302 72.9502L381.84 73.0977C382.573 72.0224 382.59 68.5777 385.057 65.2227C382.035 61.5116 377.899 56.6261 374.557 53.2578ZM393.881 55.042C390.673 52.2963 382.483 53.2091 378.036 53.2998C380.354 56.2332 384.696 61.4576 387.479 63.7881C392.892 62.5803 397.145 64.5071 401.993 67.0528C401.379 62.4403 397.29 57.9608 393.881 55.042ZM190.108 53.2539C186.125 53.2432 181.859 53.1568 177.899 53.2813C174.033 54.6075 165.842 62.3189 166.445 66.0489C168.092 66.5406 172.897 63.9615 175.458 63.3604C180.446 63.0112 180.447 64.8966 183.864 60.9121C185.95 58.4806 188.038 55.6648 190.108 53.2539Z" fill="white"/>
<path d="M364.721 113.888C366.338 113.239 367.49 113.892 369.206 114.51L369.732 114.841C369.947 115.823 369.997 115.427 369.528 116.326C368.662 116.805 369.034 116.757 368.132 116.557L366.053 115.696C365.381 115.623 365.282 115.618 364.727 115.239L364.721 113.888Z" fill="white"/>
<path d="M346.493 180.358C350.563 179.748 363.542 180.246 367.972 180.774C369.33 180.936 371.835 182.461 373.019 183.205C373.112 183.359 373.199 183.515 373.283 183.672C377.122 190.76 375.266 195.425 368.271 198.959C368.693 199.172 369.109 199.393 369.522 199.62C372.777 201.456 374.211 208.703 375.231 212.364L378.641 212.224C379.11 212.88 379.042 214.027 378.928 215.037L378.815 215.979C377.143 216.158 373.173 216.054 371.311 216.049C369.915 211.123 368.56 204.329 364.994 200.747C362.301 200.196 358.43 200.318 355.617 200.327L355.605 212.3L360.872 212.378L360.797 216.052L346.024 216.051L345.983 212.335L350.841 212.276C350.553 202.825 350.908 193.211 350.695 183.724L345.998 183.737C345.972 182.769 345.807 181.004 346.493 180.358ZM368.173 185.601C364.819 183.348 359.508 183.69 355.628 183.709C355.625 187.977 355.578 192.32 355.631 196.58C360.75 196.582 363.988 196.994 368.598 194.727C370.459 192.212 371.072 187.55 368.173 185.601Z" fill="white"/>
<path d="M201.182 180.238C201.221 185.318 201.207 190.399 201.14 195.479C215.308 179.889 231.628 204.119 216.777 214.936C212.898 217.074 210.45 216.833 206.188 216.126C205.361 215.237 202.08 212.733 200.923 211.81C201.096 213.073 201.07 214.733 201.09 216.036C199.192 216.067 194.469 216.311 192.919 215.855C192.407 215.108 192.548 213.565 192.975 212.801C193.882 212.259 195.679 212.504 196.82 212.556L196.793 183.491C195.628 183.531 193.808 183.78 192.934 183.159C192.376 182.383 192.576 181.238 192.625 180.246L201.182 180.238ZM207.889 194.312C205.599 194.882 203.715 195.993 202.527 198.06C199.893 202.64 200.992 209.672 205.863 212.347C207.743 213.379 209.001 213.241 210.993 213.128C220.467 210.953 220.893 193.701 207.889 194.312Z" fill="white"/>
<path d="M295.413 180.219C295.596 190.878 295.405 201.849 295.475 212.562L299.794 212.633C299.8 213.621 299.945 214.785 299.372 215.545C297.813 216.684 293.625 216.044 291.187 216.009L291.301 211.79C287.185 216.187 284.538 217.183 278.661 216.332C263.523 211.966 269.919 184.103 286.842 191.285C288.959 192.184 289.94 193.64 291.187 195.464C290.897 192.128 291.03 186.967 291.018 183.496L286.514 183.538C286.458 182.501 286.496 181.261 286.499 180.207L295.413 180.219ZM282.512 194.029C280.145 194.487 277.633 195.151 276.456 197.438C272.931 204.292 275.096 212.821 283.753 213.252C285.992 212.8 288.343 211.836 289.428 209.755C292.976 202.959 291.371 194.434 282.512 194.029Z" fill="white"/>
<path d="M23.666 180.264C24.1465 181.787 26.1386 186.048 26.8711 187.784L33.4883 203.56C34.4932 205.901 36.398 209.969 36.9404 212.307L41.1641 212.408L41.0498 216.065L26.7549 216.062L26.709 212.33L31.9121 212.268C30.8895 209.615 29.8008 206.989 28.6465 204.391L23.4844 204.38C19.7767 204.366 16.1339 204.336 12.4258 204.49C11.7008 205.916 10.0632 210.6 9.41797 212.311C11.102 212.27 13.0128 212.359 14.7148 212.4L14.6162 216.053L0.375977 216.078C0.317952 214.864 0.307123 213.56 0.275391 212.337L4.69629 212.332C5.60855 209.454 7.33067 206.133 8.5332 203.243C11.6877 195.469 15.0265 187.771 18.5469 180.155L23.666 180.264ZM20.5859 185.69C18.6767 189.665 16.0701 196.329 14.2852 200.607L20.4512 200.623L27.2607 200.617C26.3071 198.466 21.6646 186.718 20.5859 185.69Z" fill="white"/>
<path d="M100.537 190.6C107.646 189.136 114.597 193.71 116.063 200.817C117.528 207.923 112.955 214.873 105.847 216.34C98.7363 217.807 91.7817 213.233 90.3155 206.124C88.849 199.015 93.426 192.064 100.537 190.6ZM105.337 212.86C114.05 209.881 114.118 192.927 101.315 194.051C91.4038 197.414 93.4676 214.543 105.337 212.86Z" fill="white"/>
<path d="M406.838 190.604C413.941 189.236 420.811 193.88 422.187 200.981C423.562 208.083 418.926 214.956 411.824 216.339C404.709 217.724 397.822 213.078 396.444 205.966C395.068 198.854 399.721 191.974 406.838 190.604ZM411.196 212.853C420.354 210.031 420.174 193.076 407.58 194.031C405.23 194.856 403.189 195.895 402.214 198.364C399.457 205.357 402.33 214.016 411.196 212.853Z" fill="white"/>
<path d="M552.503 190.535C562.392 189.731 566.982 194.489 566.665 204.452C566.452 211.063 563.378 215.293 556.758 216.592C549.766 217.034 543.725 214.11 542.439 206.817C540.999 198.663 544.083 192.088 552.503 190.535ZM556.744 212.825C565.202 210.091 565.527 192.751 552.767 194.056C550.374 194.99 548.649 195.772 547.686 198.4C545.139 205.365 547.751 214.271 556.744 212.825Z" fill="white"/>
<path d="M495.068 198.012C495.961 189.358 509.145 188.465 514.247 192.932C517.423 195.714 516.324 208.225 516.277 212.555L520.494 212.693L520.41 216.156C518.365 215.963 514.234 216.039 512.039 216.015C512.05 214.846 512.135 213.512 512.181 212.33C505.655 217.628 501.211 218.949 494.67 212.488C494.364 211.196 494.105 209.781 494.12 208.448C494.126 206.736 494.812 205.095 496.028 203.888C499.829 200.167 506.969 200.673 511.943 200.76C511.905 199.3 512.013 197.526 511.213 196.314C510.321 194.931 508.895 193.977 507.275 193.676C505.306 193.312 503.273 193.76 501.635 194.916C499.955 196.094 499.934 196.693 499.593 198.613C498.125 198.621 496.909 198.632 495.44 198.503L495.068 198.012ZM512.066 204.296C509.722 204.181 507.965 204.102 505.6 204.227C503.294 204.488 501.237 204.533 499.655 206.536C498.25 208.315 498.413 210.57 500.228 212.014C501.694 213.18 503.721 213.181 505.55 213.118C510.434 211.926 511.525 208.771 512.066 204.296Z" fill="white"/>
<path d="M455.792 179.471C461.315 179.089 464.549 180.406 468.88 183.817C468.863 182.759 468.679 181.373 469.281 180.575C470.099 180.032 471.745 180.181 472.798 180.18C472.9 184.268 472.818 188.645 472.81 192.755L468.799 192.772C468.185 189.776 467.952 188.069 465.529 185.789C463.427 183.808 460.178 183.04 457.327 183.21C454.116 183.399 451.121 184.877 449.018 187.308C443.948 193.062 444.344 205.102 450.431 210.124C453.756 212.868 456.577 213.082 460.687 212.742C465.393 211.5 467.187 208.553 468.045 204.023C469.572 203.88 471.684 203.934 473.263 203.931C472.935 206.373 472.338 209.013 470.91 211.043C465.876 218.056 454.585 218.313 447.773 213.78C439.513 208.284 438.565 194.373 443.765 186.528C446.607 182.236 450.769 180.389 455.792 179.471Z" fill="white"/>
<path d="M313.141 190.52C323.376 189.653 327.473 194.627 328.334 204.442C323.148 204.879 313.091 204.438 307.321 204.597C307.667 206.981 307.769 208.435 309.377 210.323C312.853 214.4 319.175 214.748 322.145 209.976L323.193 208.13L327.407 208.239C325.728 212.718 323.783 215.267 318.766 216.358C305.649 219.211 298.709 206.105 304.951 195.461C306.661 192.548 309.796 191.127 313.141 190.52ZM323.161 200.992C321.424 195.055 319.9 193.277 313.478 193.666C308.99 195.619 308.545 196.335 307.449 201.033L317.628 201.081L323.161 200.992Z" fill="white"/>
<path d="M52.749 190.516C63.2358 189.59 66.9926 194.619 67.7226 204.435C60.9374 204.765 53.6537 204.315 46.6806 204.641C47.3362 207.316 47.9456 209.355 49.9902 211.304C53.2992 214.459 58.7798 213.857 61.7422 210.61C62.1647 209.808 62.5732 208.898 62.9658 208.073L67.0508 208.231C66.8239 209.024 66.4008 210.273 65.9863 210.984C64.4969 213.565 62.0306 215.438 59.1445 216.18C40.5631 220.961 35.5839 194.49 52.375 190.553C52.4992 190.539 52.6242 190.527 52.749 190.516ZM61.5137 196.394C58.628 194.064 57.0029 193.367 53.2119 193.656C48.7785 195.283 48.4123 196.778 46.8554 201.025C50.2837 201.055 53.8245 201.132 57.2431 201.085L62.9551 200.98C62.5473 199.441 62.1797 197.838 61.5137 196.394Z" fill="white"/>
<path d="M237.076 190.493C247.632 189.799 251.006 194.571 251.507 204.482C244.902 204.644 237.798 204.524 231.129 204.574C231.186 205.177 231.259 205.779 231.346 206.378C232.418 213.592 241.827 215.817 245.681 210.39C246.107 209.503 246.232 209.187 246.884 208.463C247.934 207.872 249.59 208.098 250.852 208.147C249.514 213.301 247.374 215.192 242.135 216.366C229.351 219.232 222.586 205.873 228.562 195.614C230.27 192.683 233.304 191.181 236.628 190.531C236.777 190.516 236.926 190.502 237.076 190.493ZM246.85 200.996C245.356 195.437 243.497 193.164 237.354 193.682C232.682 195.4 232.35 196.241 231.168 200.998C234.468 201.088 237.769 201.112 241.07 201.07L246.85 200.996Z" fill="white"/>
<path d="M177.545 194.5C177.536 193.462 177.426 192.071 177.792 191.139C179.501 190.826 184.612 190.952 186.622 190.96L186.628 198.379L186.653 212.678L190.896 212.68C190.915 213.584 190.786 215.099 190.736 216.048L182.315 216.029L182.217 211.966C180.793 213.126 178.983 214.853 177.577 216.113C161.814 219.632 164.862 204.846 165.004 194.531L160.724 194.498L160.727 190.976L169.406 190.979C169.473 196.78 168.995 203.224 169.503 208.816C170.756 216.134 180.741 213.98 181.82 207.545C182.55 203.195 182.249 198.929 182.226 194.524L177.545 194.5Z" fill="white"/>
<path d="M129.31 190.515C131.179 190.383 132.208 190.267 134.069 190.587C135.778 190.881 138.025 192.806 139.302 192.769C139.342 192.224 139.389 191.68 139.443 191.136C140.329 190.641 142.461 190.566 142.557 191.625C142.722 193.446 142.971 198.727 142.394 200.267C136.972 200.898 140.112 198.328 137.66 195.812C136.427 194.546 133.499 193.701 131.725 193.809C129.732 193.945 127.877 194.871 126.571 196.382C124.639 198.659 124.25 201.726 124.493 204.593C125.006 210.62 127.936 213.512 134.124 212.837C137.285 211.597 137.804 210.564 139.167 207.562L143.171 207.654C142.119 211.948 140.393 215.019 135.782 216.2C122.689 219.552 116.035 206.326 121.617 195.666C123.15 192.738 126.173 191.259 129.31 190.515Z" fill="white"/>
<path d="M477.702 180.191L486.416 180.245L486.392 212.534C488.51 212.496 489.79 212.124 491.031 214.112C490.895 216.329 488.699 216.124 487.102 216.056C484.944 215.988 479.563 216.358 477.94 215.85C477.452 215.155 477.489 213.497 478.016 212.81C478.903 212.242 480.718 212.506 481.855 212.563L481.82 183.478C480.677 183.494 478.874 183.789 478.03 183.197C477.443 182.391 477.649 181.224 477.702 180.191Z" fill="white"/>
<path d="M146.516 180.288C149.356 180.188 152.479 180.245 155.344 180.246L155.278 212.552L159.529 212.56C159.529 213.896 159.705 214.76 159.095 215.821C158.266 216.292 156.63 216.088 155.604 216.049L146.58 216.052L146.48 212.588L150.787 212.556L150.763 183.469C149.618 183.494 147.696 183.778 146.884 183.18C146.31 182.393 146.483 181.291 146.516 180.288Z" fill="white"/>
<path d="M530.689 194.903C534.403 190.865 534.802 190.486 540.462 190.239L540.517 194.264C539.72 194.304 538.929 194.368 538.135 194.41C529.168 194.876 530.826 206.061 530.887 212.575L536.454 212.682C536.395 213.792 536.363 214.957 536.206 216.053C532.992 216.05 525.174 216.237 522.315 215.959L522.266 212.539L526.518 212.564C526.434 206.533 526.425 200.502 526.486 194.471L522.214 194.385C522.228 192.959 522.007 192.531 522.67 191.417C524.7 190.285 528.016 191.037 530.861 191.008L530.689 194.903Z" fill="white"/>
<path d="M87.5342 190.27C88.2203 190.187 88.3131 190.175 88.9123 190.509C89.4236 191.487 89.2051 193.22 89.1592 194.393C88.2512 194.394 87.3431 194.41 86.4354 194.44C77.807 194.779 79.3767 206.557 79.6832 212.583C81.4097 212.559 84.028 212.002 84.8715 213.548C84.8752 214.398 84.9954 215.279 84.4561 215.899C81.8899 216.286 74.0241 216.063 71.0924 216.069C71.0292 215.056 70.7797 213.663 71.3402 212.895C72.2226 212.29 74.048 212.524 75.21 212.558C75.157 206.531 75.1547 200.504 75.2027 194.478L71.0516 194.416L71.0269 190.968L79.516 190.993L79.4546 195.279C81.8643 191.036 82.7232 190.772 87.5342 190.27Z" fill="white"/>
<path d="M380.866 194.328C380.875 192.895 380.651 192.529 381.317 191.402C383.201 190.365 386.904 191.032 389.58 190.974L389.527 212.52C390.676 212.51 392.573 212.353 393.529 212.833C393.908 213.43 393.692 214.687 393.631 215.453L393.338 215.916C391.11 216.272 383.635 216.053 381.005 216.029L380.933 212.56L385.112 212.551L385.095 194.429C383.707 194.397 382.242 194.39 380.866 194.328Z" fill="white"/>
<path d="M235.442 14.1084C237.241 14.8506 241.466 23.7119 242.876 25.8721C243.317 26.5469 244.452 25.8701 245.24 26.6162C244.844 27.7677 242.522 28.9361 241.434 29.4766C236.998 34.8845 231.198 29.9007 233.559 23.0527C233.953 22.8101 234.404 22.5572 234.843 22.2812C235.062 22.1435 235.278 21.9997 235.482 21.8486C235.96 21.4956 236.374 21.102 236.613 20.6455C235.385 18.8219 234.783 17.5268 232.59 17.1006C232.451 17.0741 232.311 17.0501 232.171 17.0283L232.125 16.6689C233.017 15.6116 234.045 14.4375 235.442 14.1084ZM237.09 22.4072C236.753 22.5235 236.512 22.5945 236.327 22.6494C236.143 22.7043 236.015 22.7439 235.903 22.7979C235.792 22.8519 235.697 22.9205 235.58 23.0342C235.522 23.0909 235.457 23.1583 235.382 23.2412C235.307 23.3242 235.221 23.4223 235.12 23.5391L234.898 24.9414C236.16 27.617 237.327 29.8614 240.685 29.2354C240.995 26.7463 238.735 24.1119 237.09 22.4072Z" fill="white"/>
<path d="M270.621 2.03027C271.923 2.95294 272.245 14.6152 273.411 16.8867L275.044 17.3154L275.166 17.6445C273.795 18.4367 268.468 19.431 266.74 19.5977C266.527 19.5259 266.316 19.448 266.109 19.3633C262.014 17.6948 262.98 14.1009 264.371 10.873C266.189 9.84677 267.023 9.63191 269.013 9.35352C268.407 6.35976 268.484 5.5413 266.44 3.375C267.894 3.03609 269.218 2.5316 270.621 2.03027ZM267.753 10.4336C267.541 10.4085 267.009 10.4289 266.777 10.4365C265.624 13.878 265.783 18.1838 270.478 18.0547C270.584 16.3142 270.194 10.7239 267.753 10.4336Z" fill="white"/>
<path d="M331.482 16.5902C343.026 16.0001 337.546 29.3076 327.701 29.7318C326.791 29.6559 325.386 29.6654 324.955 28.7816C327.875 27.2605 328.082 28.5271 331.895 25.807C326.956 23.3729 326.602 19.3865 331.482 16.5902ZM333.605 17.7377C330.903 19.1778 328.876 22.9542 332.494 24.5648C333.873 23.049 336.595 19.8982 335.01 17.8842C334.53 17.8177 334.091 17.7411 333.605 17.7377Z" fill="white"/>
<path d="M384.836 180.223C386.404 180.201 388.012 180.221 389.583 180.222L389.588 185.389C388.102 185.472 386.281 185.434 384.769 185.442C384.731 183.767 384.804 181.912 384.836 180.223Z" fill="white"/>
<path d="M319.365 11.0127C321.625 9.18406 326.514 10.9947 326.014 14.2558C325.603 16.9288 323.859 17.1317 321.666 17.6445C322.155 18.1113 323.25 19.123 323.573 19.6679C324.946 21.9896 322.483 24.4112 320.43 25.3007C318.129 25.5896 313.226 24.3063 312.949 21.7617C313.374 21.3094 313.595 21.3053 314.19 21.1445C315.124 21.4687 315.401 22.6356 316.602 23.7138C317.401 24.0779 318.341 23.8396 319.226 23.7109C321.206 20.3639 321.113 19.6461 318.786 16.874C320.444 15.8922 323.458 16.9194 322.617 12.7812C321.343 11.5663 319.857 12.4251 318.158 12.6543C318.216 12.0178 318.871 11.4121 319.365 11.0127Z" fill="white"/>
<path d="M309.323 6.39589C309.567 6.37808 309.811 6.37922 310.053 6.39784C310.065 6.39877 310.077 6.39976 310.089 6.40077C310.471 6.43308 310.846 6.51046 311.208 6.63027C311.304 6.66216 311.4 6.69686 311.494 6.73476C311.949 6.91777 312.379 7.17046 312.766 7.48769C312.843 7.55038 312.916 7.61534 312.987 7.68105C313.111 7.79576 313.227 7.91419 313.332 8.03749C313.436 8.15944 313.531 8.28584 313.618 8.41542C313.634 8.43946 313.65 8.46341 313.666 8.48769C313.68 8.50963 313.693 8.53195 313.707 8.55409C313.724 8.58179 313.742 8.6091 313.758 8.6371C313.806 8.7207 313.851 8.8058 313.894 8.89198C313.903 8.91148 313.913 8.93096 313.922 8.95058C313.941 8.99163 313.96 9.03301 313.978 9.0746C313.985 9.09082 313.991 9.10713 313.998 9.12343C314.01 9.15286 314.022 9.18261 314.033 9.2123C314.043 9.23794 314.053 9.26362 314.062 9.28945C314.099 9.39003 314.133 9.49189 314.162 9.59511C314.165 9.60392 314.167 9.61265 314.17 9.62148C314.189 9.69106 314.205 9.76175 314.221 9.83241C314.233 9.88818 314.246 9.94399 314.257 10.0004C314.269 10.0664 314.28 10.1328 314.29 10.1996C314.298 10.2518 314.305 10.3041 314.312 10.3568C314.32 10.4265 314.326 10.4964 314.331 10.5668C314.335 10.62 314.34 10.6733 314.343 10.7269C314.345 10.7789 314.347 10.8309 314.348 10.8832C314.349 10.9591 314.35 11.0352 314.349 11.1117C314.348 11.1795 314.345 11.2475 314.342 11.3158C314.339 11.373 314.335 11.4302 314.331 11.4877C314.326 11.5585 314.319 11.6294 314.312 11.7006C314.306 11.7574 314.299 11.8144 314.292 11.8715C314.284 11.9313 314.276 11.9912 314.267 12.0512C314.255 12.1263 314.242 12.2015 314.229 12.2768C314.217 12.338 314.204 12.399 314.191 12.4603C314.178 12.5254 314.164 12.5905 314.148 12.6557C314.133 12.7237 314.116 12.7917 314.099 12.8598C314.084 12.9171 314.069 12.9744 314.053 13.0316C314.031 13.1092 314.009 13.1867 313.985 13.2641C313.97 13.3135 313.955 13.3631 313.939 13.4125C313.913 13.494 313.886 13.5754 313.857 13.6566C313.84 13.7072 313.821 13.7576 313.803 13.808C313.777 13.8775 313.751 13.9468 313.724 14.016C313.701 14.0744 313.678 14.1327 313.654 14.1908C313.622 14.2686 313.589 14.346 313.556 14.4232C313.538 14.4643 313.52 14.5054 313.502 14.5463C313.47 14.6179 313.437 14.6891 313.403 14.7601C313.37 14.8308 313.336 14.901 313.301 14.9711C313.268 15.0367 313.236 15.1024 313.202 15.1674C313.182 15.2054 313.162 15.2429 313.142 15.2807C313.098 15.3631 313.054 15.4455 313.009 15.5268C312.984 15.5711 312.958 15.6146 312.933 15.6586C312.89 15.7325 312.848 15.8066 312.805 15.8793C312.774 15.9303 312.742 15.9803 312.711 16.0307C312.674 16.0908 312.637 16.1511 312.599 16.2103C312.563 16.265 312.527 16.3186 312.491 16.3725C312.378 16.5426 312.264 16.7094 312.146 16.8705C312.104 16.9264 312.062 16.9809 312.021 17.0355C311.98 17.0887 311.94 17.1418 311.899 17.1937C311.872 17.229 311.843 17.2635 311.815 17.2982C311.605 17.5602 311.39 17.8066 311.172 18.0326L310.918 18.2865L310.663 18.5219C309.38 19.3601 305.497 21.7848 304.04 20.7465C305.113 19.3832 307.129 19.1352 309.331 16.6439L309.656 16.0639C301.667 13.793 303.91 6.99011 309.075 6.42128C309.158 6.41099 309.241 6.40192 309.323 6.39589ZM310.666 7.15663C307.496 8.09134 306.091 12.1165 308.708 13.9457L310.38 14.0717H310.381C311.231 12.9423 311.729 11.2379 311.6 9.66152C311.575 9.3606 311.527 9.06441 311.455 8.77773C311.436 8.70314 311.416 8.62925 311.394 8.55605C311.294 8.22652 311.158 7.91246 310.986 7.6205C310.898 7.47141 310.801 7.32799 310.693 7.19179C310.684 7.18016 310.675 7.16816 310.666 7.15663Z" fill="white"/>
<path d="M253.981 14.0303C254.794 12.3779 256.927 11.2367 258.807 11.6738C259.631 12.1787 259.751 12.9268 260.041 13.8545L259.58 14.0332C258.714 13.4878 258.019 12.9379 256.992 12.9248C256.094 13.1989 255.736 13.4491 255.276 14.165L255.07 14.5019C257.054 15.5872 258.849 15.0704 260.274 15.7871C261.04 16.4572 261.854 17.0313 262.174 17.9892C262.174 18.8236 261.987 19.1923 261.541 19.792L261.334 20.0654C259.695 21.7216 257.911 23.0967 255.841 21.4912C255.443 20.6748 255.296 20.4768 255.352 19.5791C256.87 18.7391 256.71 20.8586 258.689 20.9512C259.739 20.3938 259.561 20.3093 260.235 19.2021C258.04 16.426 253.796 20.3735 253.905 14.1914L253.981 14.0303Z" fill="white"/>
<path d="M246.179 24.5955C242.81 21.4295 244.443 13.6591 250.048 15.7175C250.528 15.894 251.981 17.3706 252.432 17.8201C250.637 18.5057 248.706 19.4183 246.936 20.2097C248.007 21.715 248.542 22.3571 250.053 23.3855L250.487 23.1238C251.601 22.4177 253.358 21.124 253.909 21.0916C254.003 22.4864 252.795 23.7883 251.732 24.5789L251.405 24.7849C250.629 25.2469 249.777 25.5714 248.866 25.6033C247.872 25.6416 246.903 25.2783 246.179 24.5955ZM250.862 23.6726V23.6716V23.6726ZM247.429 16.4587C246.586 17.3887 246.467 17.2382 246.242 18.3064C246.827 19.0056 247.021 18.9197 248.115 19.1345C248.964 18.2212 248.914 18.5278 249.143 17.4353C248.608 16.6771 248.4 16.6176 247.429 16.4587Z" fill="white"/>
<path d="M299.43 3.78027C299.261 5.49196 297.95 17.1307 298.334 17.9414L300.035 18.5615L300.134 18.9072C299.043 19.2404 295.704 18.7612 294.354 18.6377C293.584 18.5594 292.686 18.5776 292.15 18.0869C292.822 17.5671 294.029 17.6341 294.925 17.5898C295.091 13.8882 295.568 10.3129 295.754 6.71191C294.611 6.75425 292.997 6.86449 291.889 6.80664C294.797 5.00977 296.1 4.63011 299.43 3.78027Z" fill="white"/>
<path d="M281.64 8.2471C282.897 8.39588 284.075 8.81662 284.688 9.77932C284.723 9.83557 284.756 9.89414 284.788 9.95413C284.822 10.0178 284.854 10.0834 284.883 10.1514C284.907 10.2073 284.93 10.2644 284.95 10.3233C284.967 10.3718 284.983 10.4211 284.998 10.4717C285.031 10.5857 285.057 10.7052 285.078 10.8301C285.085 10.8712 285.091 10.9128 285.097 10.9551C284.053 12.57 282.795 12.3951 281.162 12.2071C280.929 12.1802 280.688 12.1531 280.439 12.1309L279.659 12.2588C278.947 13.5628 280.132 15.5759 281.012 16.5977L281.165 16.5801C282.354 16.4377 282.875 16.3298 283.541 15.9424C283.723 15.8367 283.916 15.7103 284.136 15.5567C284.283 15.4542 284.441 15.3394 284.617 15.211L285.205 15.1973L285.18 15.4629C285.082 16.1429 284.746 16.605 284.279 16.9649C284.221 17.0099 284.16 17.0527 284.098 17.0948C283.973 17.1788 283.842 17.2581 283.705 17.333C283.568 17.4079 283.425 17.4785 283.278 17.5479C283.132 17.6174 282.981 17.6853 282.828 17.753C273.929 19.3013 273.905 8.18917 281.283 8.23636L281.64 8.2471ZM282 10C281.2 9.60016 280.333 10.5 280 11H282.5C282.667 10.8333 282.8 10.4 282 10Z" fill="white"/>
</svg>
