<svg width="527" height="527" viewBox="0 0 527 527" fill="none" xmlns="http://www.w3.org/2000/svg">
<rect width="527" height="527" rx="263.5" fill="white"/>
<path d="M248.757 7.30139C389.726 -1.19945 510.954 106.068 519.669 247.024C528.384 387.981 421.303 509.37 280.366 518.307C139.112 527.263 17.4008 419.897 8.66223 278.631C-0.0749341 137.367 107.479 15.8193 248.757 7.30139Z" fill="white" stroke="#422974" stroke-width="6"/>
<path d="M269.901 27.8287C312.131 29.2748 340.136 39.4719 377.051 58.9516C377.111 110.281 377.268 161.738 377.063 213.073C376.979 234.457 370.173 255.452 354.469 270.546C355.443 271.378 356.381 272.255 357.283 273.172C362.826 278.777 369.861 287.315 371.147 295.126C374.73 316.891 373.396 341.825 373.348 363.947L373.228 463.748C368.021 463.895 361.816 463.687 356.526 463.641C355.984 418.215 356.874 372.646 356.513 327.208C356.429 316.551 356.658 306.092 355.215 295.508C345.92 278.431 308.848 283.58 291.533 283.91L291.665 488.498C284.415 488.73 276.839 488.725 269.564 488.829C270.49 335.537 268.001 180.891 269.901 27.8287Z" fill="#422974"/>
<path d="M291.259 50.8287C293.922 51.7191 299.566 53.1303 302.275 53.6232C320.019 56.8518 336.56 65.2756 353.538 70.1907L353.561 166.686C353.644 196.426 357.885 223.069 342.663 249.317C338.94 254.676 336.525 257.299 332.118 262.041C319.1 263.216 304.372 262.762 291.165 262.641L291.259 50.8287Z" fill="white"/>
<path d="M126.847 77.8287L128.574 78.8319C129.669 88.9464 128.911 105.739 128.893 116.645L128.897 188.866L128.853 424.829L106.024 424.663C105.525 379.523 107.526 328.04 105.737 283.706C102.904 281.457 102.427 282.205 97.817 282.004C82.873 281.787 67.9265 281.829 52.985 282.128C56.6896 302.406 62.8619 321.9 66.2199 342.209C69.9408 352.027 51.3022 358.672 48.169 351.49C12.9878 270.856 26.5467 176.115 89.7398 110.87C101.362 98.8698 113.537 88.652 126.847 77.8287Z" fill="#422974"/>
<path d="M104.727 126.829C106.867 129.002 105.964 251.537 106.036 266.664C88.9653 267.004 71.0475 266.715 53.9105 266.691C52.6721 265.606 52.177 264.414 52.1682 262.778C51.9 210.382 69.25 164.949 104.727 126.829Z" fill="white"/>
<path d="M246.894 27.8287L248.143 27.9066C251.411 33.7322 249.408 128.574 249.407 142.925L227.255 143.193C226.154 115.629 226.982 82.6656 226.866 54.5967C201.675 61.4704 187.538 64.8941 164.811 78.0128L164.722 447.124C192.715 456.635 193.979 461.208 228.367 467.321L228.465 403.168L228.593 380.472L250.743 380.616C251.627 416.901 250.861 456.252 250.781 492.829C223.993 488.637 207.574 487.312 181.314 477.677C169.652 473.398 152.064 464.421 142.267 461.452L142.165 63.9358C148.783 61.5543 161.292 53.7042 169.047 50.3368C194.891 39.1169 218.746 30.8439 246.894 27.8287Z" fill="#422974"/>
<path d="M401.288 77.8287C420.863 86.7293 450.267 119.284 462.658 136.587C470.825 147.989 480 161.745 460.789 167.301C454.745 165.575 429.879 131.198 422.744 123.051C424.831 214.375 421.651 307.267 423.229 398.467C432.598 389.022 438.896 379.083 445.923 368.004C449.964 359.226 457.694 347.172 469.017 354.382C484.454 377.883 417.088 434.457 400.972 447.829C399.552 431.341 400.438 401.456 400.438 384.223L400.487 265.662L400.426 146.797C400.402 126.347 399.564 97.5719 401.288 77.8287Z" fill="#422974"/>
</svg>
